<svg xmlns="http://www.w3.org/2000/svg" xmlns:xlink="http://www.w3.org/1999/xlink" viewBox="0 0 50.71 61.32"><defs><linearGradient id="Безымянный_градиент_620" x1="2.36" y1="51.11" x2="49.38" y2="51.11" gradientUnits="userSpaceOnUse"><stop offset="0.37" stop-color="gold"/><stop offset="0.72" stop-color="#ffff93"/><stop offset="1" stop-color="#ffd45c"/></linearGradient><linearGradient id="Безымянный_градиент_620-2" x1="0.67" y1="44.09" x2="50.25" y2="44.09" xlink:href="#Безымянный_градиент_620"/><linearGradient id="Безымянный_градиент_620-3" x1="2.32" y1="16.44" x2="48.9" y2="16.44" xlink:href="#Безымянный_градиент_620"/><linearGradient id="Безымянный_градиент_620-4" x1="0.69" y1="23.39" x2="50.06" y2="23.39" xlink:href="#Безымянный_градиент_620"/><clipPath id="clip-path"><ellipse cx="25.87" cy="8.23" rx="20.65" ry="7.02" transform="translate(-0.12 0.39) rotate(-0.87)" fill="#e3c399" stroke="#ca9e67" stroke-miterlimit="10"/></clipPath></defs><g id="Слой_2" data-name="Слой 2"><g id="бочка_мал"><path d="M11,13.64l-.3,42v1.83a.3.3,0,0,0,.17.26,38.68,38.68,0,0,0,5.83,2.11l.8.2.32-45Z" fill="#deb887" stroke="#ca9e67" stroke-miterlimit="10" stroke-width="0.71"/><path d="M17.77,15.07l-.14,44.5,0,.49s4.27.72,6.41.9h0a.33.33,0,0,0,.35-.32l.21-45.09Z" fill="#deb887" stroke="#ca9e67" stroke-miterlimit="10" stroke-width="0.71"/><path d="M24.78,15.55,24.49,61h.39q3.23,0,6.43-.35h0l.21-45.38-2.82.2c-1.3.09-2.61.13-3.92.12Z" fill="#deb887" stroke="#ca9e67" stroke-miterlimit="10" stroke-width="0.71"/><path d="M31.61,15.23l-.09,45.34h.68a59,59,0,0,0,6.39-1.77l-.67-44.53-.14,0c-2.05.39-4.1.7-6.17.93Z" fill="#deb887" stroke="#ca9e67" stroke-miterlimit="10" stroke-width="0.71"/><path d="M38.06,14.32l.52,43.9a.45.45,0,0,0,.63.4c.56-.25,1.37-.61,1.73-.79h0c.1-.06,1.82-1.09,2.64-1.62l.07-.06,1.45-1.5a.43.43,0,0,0,.13-.3l-.05-42.86h0a61.47,61.47,0,0,1-7,2.79Z" fill="#deb887" stroke="#ca9e67" stroke-miterlimit="10" stroke-width="0.71"/><path d="M4.41,8.58c.07,0,0,.57,0,.57L4.33,20.82l0,2.45L4.18,42.93v1.82l0,5a57.89,57.89,0,0,1-2.2-7.08c-.24-1-.45-2-.64-3a56.14,56.14,0,0,1-.23-19.09c.15-.91.32-1.81.51-2.71a56.34,56.34,0,0,1,2.33-8A6,6,0,0,1,4.41,8.58Z" fill="#deb887" stroke="#ca9e67" stroke-miterlimit="10" stroke-width="0.71"/><path d="M10.87,13.63l-.19,27.85L10.6,53.42V54.7l0,2.88-.39-.2-.32-.18A14.75,14.75,0,0,1,8.06,56c-.16-.11-.31-.24-.47-.37s-.34-.29-.5-.45L7,55.09l-.21-.21c-.06-.06-.11-.12-.17-.17a.52.52,0,0,0-.1-.11,9,9,0,0,1-1.45-2.24,10.31,10.31,0,0,1-.69-1.92c0-.1,0-.19-.07-.28v-.78l0-2.33V45.31L4.6,9.21a0,0,0,0,1,0,0,15.2,15.2,0,0,0,1.93,2.14A19.73,19.73,0,0,0,10.87,13.63Z" fill="#deb887" stroke="#ca9e67" stroke-miterlimit="10" stroke-width="0.71"/><path d="M49.83,38.82c-.14,1.2-.3,2.35-.47,3.42-.19,1.23-.4,2.36-.6,3.35q-.07.38-.15.72c-.07.34-.14.65-.21.95-.26,1.16-.5,2-.66,2.51a2.45,2.45,0,0,1-.15.38,12.69,12.69,0,0,1-1.36,2.16l0,0a25.57,25.57,0,0,1-2.46,2.78l.08-1.65v-.08l0-1.25v-.06l.06-5.62,0-1.57V43.73h0l.22-18.85,0-2.22L44.31,12a.06.06,0,0,1,0-.06,8.73,8.73,0,0,0,2.89-3.37.07.07,0,0,1,.13,0c.25,1,1.19,4.8,2,9.58h0c.14.89.27,1.82.4,2.76a71.24,71.24,0,0,1,.62,7.74A77.47,77.47,0,0,1,49.83,38.82Z" fill="#deb887" stroke="#ca9e67" stroke-miterlimit="10" stroke-width="0.71"/><path d="M49.38,44.36a9,9,0,0,1-1.3,2.48c-.22.32-3.45,4.84-6.46,6.41a34.76,34.76,0,0,1-15.79,3.41A34.76,34.76,0,0,1,10,53.25c-2.55-1.33-6.31-5.5-6.75-6.15a8.65,8.65,0,0,1-.93-1.52c.54,3,2.47,6.33,7,8.71,9.08,4.75,23.82,4.75,32.9,0A12.44,12.44,0,0,0,49.38,44.36Z" fill="url(#Безымянный_градиент_620)"/><path d="M43.82,44.4c-.29.12-.55.31-.84.46-4.67,2.44-10.92,3.79-17.6,3.79S12.46,47.3,7.79,44.86A13.73,13.73,0,0,1,4,42.3c-.88-.94-3.1-3.75-3.33-4,.18,1,.51,2.76.75,3.75a18.91,18.91,0,0,0,2.56,2A22.18,22.18,0,0,0,7.05,46c10.13,5.29,26.55,5.29,36.67,0L43.8,46c2.38-1.25,4.72-2.56,6-4.1.17-1.06.34-2.47.48-3.67C50.16,38.31,47.19,43.06,43.82,44.4Z" fill="url(#Безымянный_градиент_620-2)"/><path d="M48.9,13.85a18.43,18.43,0,0,1-5.25,3.92c-9.85,5.15-25.82,5.15-35.68,0a18.35,18.35,0,0,1-5.65-4.14c.1-.31.25-.82.36-1.15s.27-.81.42-1.23a14.21,14.21,0,0,0,5.85,5c4.48,2.34,10.46,3.62,16.86,3.62s12.39-1.28,16.87-3.62A14.41,14.41,0,0,0,48.4,11.4Z" fill="url(#Безымянный_градиент_620-3)"/><path d="M49.65,18a15.79,15.79,0,0,1-5.46,4.69c-.22.13-.45.25-.68.37-4.8,2.51-11.22,3.89-18.08,3.89S12.15,25.54,7.35,23a20.53,20.53,0,0,1-3.09-2,14.22,14.22,0,0,1-3-3.06C1,18.89.83,19.93.69,20.82a20.12,20.12,0,0,0,3.55,2.65c.64.42,1.32.82,2.06,1.21,10.44,5.45,27.28,5.52,37.86.2l.39-.2a21.4,21.4,0,0,0,5.51-3.88C49.94,19.86,49.79,18.86,49.65,18Z" fill="url(#Безымянный_градиент_620-4)"/><path d="M47.31,7c-.24-1.15-1.27-2.28-3.15-3.3l-.28-.14a25.8,25.8,0,0,0-6.61-2.13A56.91,56.91,0,0,0,24,.56a53.17,53.17,0,0,0-9.46,1.22,34,34,0,0,0-3.81,1.08C7.9,3.87,6,5.1,5,6.41a2.8,2.8,0,0,0-.44,2.78,3.83,3.83,0,0,0,.83,1.25,7.31,7.31,0,0,0,1,.86c.3.21.62.41,1,.62h0l.19.11.06,0C13.91,15.4,27.1,16.26,37.17,14A32.09,32.09,0,0,0,42,12.51l.07,0a16.63,16.63,0,0,0,2.5-1.24h0q.41-.26.75-.51l.37-.29a4.2,4.2,0,0,0,1.65-2.55h0A2.49,2.49,0,0,0,47.31,7Z" fill="#ca9e67" stroke="#b17f4a" stroke-miterlimit="10"/><ellipse cx="25.87" cy="8.23" rx="20.65" ry="7.02" transform="translate(-0.12 0.39) rotate(-0.87)" fill="#e3c399"/><g clip-path="url(#clip-path)"><ellipse cx="25.87" cy="8.23" rx="20.65" ry="7.02" transform="translate(-0.12 0.39) rotate(-0.87)" fill="#e3c399" stroke="#ca9e67" stroke-miterlimit="10"/><line x1="11.9" y1="13.59" x2="31.97" y2="14.86" fill="#e3c399" stroke="#ca9e67" stroke-miterlimit="10"/><line x1="7.13" y1="11.53" x2="39.18" y2="13.42" fill="#e3c399" stroke="#ca9e67" stroke-miterlimit="10"/><line x1="5.3" y1="9.13" x2="43.75" y2="11.51" fill="#e3c399" stroke="#ca9e67" stroke-miterlimit="10"/><line x1="5.84" y1="6.8" x2="45.98" y2="9.56" fill="#e3c399" stroke="#ca9e67" stroke-miterlimit="10"/><line x1="8.25" y1="4.81" x2="46.37" y2="7.45" fill="#e3c399" stroke="#ca9e67" stroke-miterlimit="10"/><line x1="13.5" y1="2.78" x2="44.25" y2="4.79" fill="#e3c399" stroke="#ca9e67" stroke-miterlimit="10"/><line x1="21.96" y1="1.4" x2="37.03" y2="2.18" fill="#e3c399" stroke="#ca9e67" stroke-miterlimit="10"/></g><ellipse cx="25.87" cy="8.23" rx="20.65" ry="7.02" transform="translate(-0.12 0.39) rotate(-0.87)" fill="none" stroke="#ca9e67" stroke-miterlimit="10"/></g></g></svg>