<svg xmlns="http://www.w3.org/2000/svg" xmlns:xlink="http://www.w3.org/1999/xlink" viewBox="0 0 60 60"><defs><linearGradient id="Безымянный_градиент_390" y1="43.78" x2="20.06" y2="43.78" gradientUnits="userSpaceOnUse"><stop offset="0.54" stop-color="#575756"/><stop offset="0.78" stop-color="#c0bfbf"/><stop offset="0.98" stop-color="#6e6e68"/></linearGradient><linearGradient id="Безымянный_градиент_490" x1="20.05" y1="38.42" x2="59.99" y2="38.42" gradientUnits="userSpaceOnUse"><stop offset="0.75" stop-color="#706f6f"/><stop offset="0.97" stop-color="#c0bfbf"/></linearGradient><linearGradient id="Безымянный_градиент_390-2" x1="0" y1="29.62" x2="20.06" y2="29.62" xlink:href="#Безымянный_градиент_390"/><linearGradient id="Безымянный_градиент_85" x1="3.31" y1="29.11" x2="22.76" y2="29.11" gradientUnits="userSpaceOnUse"><stop offset="0.35" stop-color="#333"/><stop offset="0.66" stop-color="#ababab"/><stop offset="0.85" stop-color="#6e6e68"/></linearGradient><linearGradient id="Безымянный_градиент_103" x1="29.84" y1="15.43" x2="48.18" y2="15.43" gradientUnits="userSpaceOnUse"><stop offset="0.66" stop-color="#333"/><stop offset="0.87" stop-color="#ababab"/><stop offset="0.99" stop-color="#6e6e68"/></linearGradient><linearGradient id="Безымянный_градиент_93" x1="17.14" y1="22.15" x2="35.53" y2="22.15" gradientUnits="userSpaceOnUse"><stop offset="0.57" stop-color="#333"/><stop offset="0.77" stop-color="#ababab"/><stop offset="0.92" stop-color="#6e6e68"/></linearGradient><linearGradient id="Безымянный_градиент_373" x1="41.74" y1="9.21" x2="60" y2="9.21" gradientUnits="userSpaceOnUse"><stop offset="0.53" stop-color="#706f6f"/><stop offset="0.58" stop-color="#919090"/><stop offset="0.66" stop-color="#b8b8b8"/><stop offset="0.72" stop-color="#d1d1d1"/><stop offset="0.76" stop-color="#dadada"/><stop offset="0.93" stop-color="#9d9d9c"/></linearGradient><linearGradient id="Безымянный_градиент_463" x1="39.3" y1="37.35" x2="43.84" y2="37.35" gradientUnits="userSpaceOnUse"><stop offset="0.18" stop-color="#777772"/><stop offset="1" stop-color="#c0bfbf"/></linearGradient><linearGradient id="Безымянный_градиент_493" x1="19.96" y1="27.1" x2="60" y2="27.1" gradientUnits="userSpaceOnUse"><stop offset="0.12" stop-color="#706f6f"/><stop offset="1" stop-color="#9d9d9c"/></linearGradient><linearGradient id="Безымянный_градиент_444" x1="41.08" y1="28.05" x2="44.27" y2="28.05" gradientUnits="userSpaceOnUse"><stop offset="0.12" stop-color="#6e6e68"/><stop offset="1" stop-color="#babab9"/></linearGradient><linearGradient id="Безымянный_градиент_460" x1="39.66" y1="31.88" x2="44.26" y2="31.88" gradientUnits="userSpaceOnUse"><stop offset="0.49" stop-color="#6e6e68"/><stop offset="0.64" stop-color="#dadada"/><stop offset="1" stop-color="#706f6f"/></linearGradient><linearGradient id="Безымянный_градиент_460-2" x1="39.01" y1="35.81" x2="44.98" y2="35.81" xlink:href="#Безымянный_градиент_460"/></defs><g style="isolation:isolate"><g id="Слой_2" data-name="Слой 2"><g id="сундук"><g opacity="0.13" style="mix-blend-mode:multiply"><polygon points="40.69 27.27 45.23 24.52 45.14 46.7 40.69 48.96 40.69 27.27" fill="#575756"/></g><path d="M20.06,60l-.13-.07L0,49.19V27.56l.12.07L20.06,38.38Z" fill="url(#Безымянный_градиент_390)"/><path d="M18.68,57.77l-.12-.06L1.38,48.44V29.79l.12.07,17.18,9.26Z" fill="#3b6c5c"/><path d="M20.05,60V38.38l0,0L60,16.84V38.46l0,0Z" fill="url(#Безымянный_градиент_490)"/><polygon points="21.42 57.77 21.42 39.12 21.46 39.1 58.62 19.07 58.62 37.72 58.58 37.74 21.42 57.77" fill="#3c3c3b"/><polygon points="21.59 39.21 21.59 57.51 58.45 37.63 58.45 19.33 21.59 39.21" fill="#3b6c5c"/><g opacity="0.22" style="mix-blend-mode:multiply"><path d="M21.59,39.23v18.3L58.45,37.66V19.36ZM58,37.41,22.05,56.79V39.48L58,20.1Z" fill="#575756"/></g><path d="M20.05,38.47,0,27.74v-.25c0-2.9,1.05-5.06,3-6.08s4.44-.8,7.12.65c5.51,3,10,10.21,10,16.15v.26Z" fill="url(#Безымянный_градиент_390-2)"/><path d="M18.5,36.15,1.39,27V27c.16-3.06,1.73-4.88,4.2-4.88a8.24,8.24,0,0,1,3.79,1.1,18.3,18.3,0,0,1,6.56,6.49A18.46,18.46,0,0,1,18.47,36Z" fill="#3b6c5c"/><path d="M20.15,38.28v-.13c0-5.89-4.45-13.08-9.91-16A8.28,8.28,0,0,0,4.46,21l-.1,0v-.14l0,0,38.36-19a4.06,4.06,0,0,1,.78-.39l.09-.05h0c1.81-.66,4.1-.33,6.46.94A20.9,20.9,0,0,1,60,17V17Z" fill="#3b6c5c"/><line x1="57.96" y1="11.48" x2="57.96" y2="11.48" fill="none"/><g opacity="0.1" style="mix-blend-mode:multiply"><path d="M59.44,17.33l-3,1.64c-1.11-5.21-4.72-13.65-9.35-16.15-2.25-1.21-4.27-.34-5.93.12a6.53,6.53,0,0,1,8.24-1.52C54.89,4.37,59.41,11.42,59.44,17.33Z" fill="#3c3c3b"/></g><g opacity="0.21" style="mix-blend-mode:multiply"><path d="M47.66,23.79l-2.84,1.52C43.71,20.1,40,11.73,35.4,9.23a7.82,7.82,0,0,0-6.07-.3,6.68,6.68,0,0,1,8.38-1.1C43.19,10.78,47.63,17.89,47.66,23.79Z" fill="#575756"/></g><g opacity="0.21" style="mix-blend-mode:multiply"><path d="M48.66,23.14l-2.84,1.52C44.71,19.44,41,11.07,36.4,8.57a7.77,7.77,0,0,0-6.07-.29,6.67,6.67,0,0,1,8.39-1.1C44.19,10.13,48.63,17.23,48.66,23.14Z" fill="#575756"/></g><g opacity="0.21" style="mix-blend-mode:multiply"><path d="M34.7,30.17l-2.84,1.52c-1.11-5.22-4.79-13.59-9.42-16.09a7.82,7.82,0,0,0-6.07-.3,6.68,6.68,0,0,1,8.38-1.1C30.23,17.15,34.67,24.26,34.7,30.17Z" fill="#575756"/></g><g opacity="0.21" style="mix-blend-mode:multiply"><path d="M35.53,29.5,32.68,31c-1.1-5.22-4.78-13.59-9.41-16.08a7.8,7.8,0,0,0-6.08-.3,6.69,6.69,0,0,1,8.39-1.1C31.06,16.49,35.5,23.59,35.53,29.5Z" fill="#575756"/></g><g opacity="0.21" style="mix-blend-mode:multiply"><path d="M23.52,35.65l-2.85,1.52C19.56,32,15.89,23.59,11.26,21.09a7.84,7.84,0,0,0-6.08-.3,6.7,6.7,0,0,1,8.39-1.1C19,22.64,23.48,29.75,23.52,35.65Z" fill="#575756"/></g><path d="M22.76,36.7v0l-3.11,1.89c-1-5.34-4.8-13.54-9.55-16.11a10.78,10.78,0,0,0-6.79-1.19c1.8-1.74,6.17-2.51,9.51-.71C18.31,23.58,22.76,30.78,22.76,36.7Z" fill="url(#Безымянный_градиент_85)"/><path d="M48.18,23.14l-2.85,1.52c-1.11-5.22-4.78-13.59-9.41-16.09a7.79,7.79,0,0,0-6.08-.29,6.67,6.67,0,0,1,8.39-1.1C43.7,10.13,48.14,17.23,48.18,23.14Z" fill="url(#Безымянный_градиент_103)"/><path d="M35.53,30l-2.9,1.41c-1.11-5.22-4.79-13.59-9.42-16.09a8.06,8.06,0,0,0-6.07-.66c1.78-1.93,4.93-2.6,8.39-.74C31,16.9,35.5,24.12,35.53,30Z" fill="url(#Безымянный_градиент_93)"/><path d="M60,16.77l-3,1.65C55.91,13.2,52.3,4.76,47.67,2.26c-2.25-1.2-4.27-.34-5.93.12A6.51,6.51,0,0,1,50,.87C55.45,3.82,60,10.86,60,16.77Z" fill="url(#Безымянный_градиент_373)"/><polygon points="39.3 27.88 43.84 25.13 43.75 47.31 39.3 49.57 39.3 27.88" fill="url(#Безымянный_градиент_463)"/><polygon points="59.99 15.82 19.96 36.8 20.06 38.38 60 17.1 59.99 15.82" fill="url(#Безымянный_градиент_493)"/><g opacity="0.16" style="mix-blend-mode:multiply"><path d="M42.16,29.11c-1.46.11-2,5.27-2.1,6l4.6-2.47C44.19,31.41,43.17,29,42.16,29.11Zm1.41,3.38-2.33,1.25a.18.18,0,0,1-.28-.17c.38-2.36.93-3.64,1.26-3.81.19.07.75.6,1.49,2.35A.3.3,0,0,1,43.57,32.49Z" fill="#575756"/><path d="M45.38,34.23a6.1,6.1,0,0,1-3,4.83c-1.64.89-3,.17-3-1.61a5.22,5.22,0,0,1,.64-2.34l4.61-2.46A2,2,0,0,1,45.38,34.23Z" fill="#575756"/></g><path d="M44.19,27c-.32-.82-1.61-1.4-3.09-1.34,0,1.59,0,3.19,0,4.78C43.49,30,44.6,28.09,44.19,27Zm-.86,1.29a3.24,3.24,0,0,1-1.56,1.27l0-3.24a2.12,2.12,0,0,1,1.75.9A1.36,1.36,0,0,1,43.33,28.29Z" fill="url(#Безымянный_градиент_444)"/><path d="M41.76,28.88c-1.46.11-2,5.27-2.1,6l4.6-2.47C43.79,31.17,42.77,28.8,41.76,28.88Zm1.41,3.38-2.33,1.25a.18.18,0,0,1-.28-.17c.38-2.36.93-3.64,1.26-3.81.19.07.75.6,1.49,2.35A.3.3,0,0,1,43.17,32.26Z" fill="url(#Безымянный_градиент_460)"/><path d="M45,34a6.1,6.1,0,0,1-3,4.83c-1.64.89-3,.17-3-1.61a5.22,5.22,0,0,1,.64-2.34l4.61-2.46A2,2,0,0,1,45,34Z" fill="url(#Безымянный_градиент_460-2)"/><path d="M42.39,35.67l.42.55.34.46s0,.14-.06.17l-.7.37-.69.38c-.06,0-.1,0-.07-.1l.35-.83Z" fill="#1d1d1b"/><ellipse cx="42.39" cy="35.61" rx="0.8" ry="0.48" transform="translate(-10.72 51.21) rotate(-56.4)" fill="#1d1d1b"/><ellipse cx="42.39" cy="35.61" rx="0.26" ry="0.15" transform="translate(-10.72 51.21) rotate(-56.4)" fill="#3c3c3b"/><path d="M42.41,36.38l-.34.67a.06.06,0,0,0,.08.07l.78-.37a.06.06,0,0,0,0-.1l-.43-.29A.07.07,0,0,0,42.41,36.38Z" fill="#3c3c3b"/><g opacity="0.32" style="mix-blend-mode:multiply"><path d="M1.5,30l-.12-.06V48.55l17.18,9.26.12.07V39.22ZM18.22,57.13,1.84,48.3V30.64l16.38,8.83Z" fill="#432918"/></g><g opacity="0.44" style="mix-blend-mode:multiply"><path d="M18.47,36a18.46,18.46,0,0,0-2.53-6.33,18.3,18.3,0,0,0-6.56-6.49,8.27,8.27,0,0,0-3.79-1.1c-2.47,0-4,1.82-4.2,4.88V27L18.5,36.15ZM1.86,26.76c.21-2.71,1.56-4.27,3.73-4.27a7.84,7.84,0,0,1,3.56,1.05,17.82,17.82,0,0,1,6.39,6.34,18.66,18.66,0,0,1,2.32,5.44Z" fill="#7b6a58"/></g></g></g></g></svg>