<svg xmlns="http://www.w3.org/2000/svg" viewBox="0 0 19.75 45.84"><g id="Слой_2" data-name="Слой 2"><g id="значки"><path d="M9.87,1a1.4,1.4,0,1,1-1.4,1.4A1.4,1.4,0,0,1,9.87,1m0-1a2.4,2.4,0,1,0,2.4,2.4A2.4,2.4,0,0,0,9.87,0Z" fill="#cfb53b"/><path d="M15.43,38h-4a1.42,1.42,0,0,0-.42.07V21.18a.92.92,0,0,0,0-.29,2,2,0,1,0-2.32,0,.92.92,0,0,0,0,.29V44.64a1.2,1.2,0,0,0,2.4,0v-.25a1.16,1.16,0,0,0,.42.08h4a1.21,1.21,0,0,0,1.21-1.2V39.15A1.21,1.21,0,0,0,15.43,38Z" fill="#cfb53b"/><path d="M15.07,40.33h-.89v-.89A.49.49,0,0,0,13.7,39h-.54a.48.48,0,0,0-.48.48v.89h-.89a.48.48,0,0,0-.48.48v.49a.48.48,0,0,0,.48.48h.89v.89a.48.48,0,0,0,.48.48h.54a.49.49,0,0,0,.48-.48v-.89h.89a.49.49,0,0,0,.48-.48v-.49A.49.49,0,0,0,15.07,40.33Z" fill="#fff"/><circle cx="8.69" cy="8.22" r="1.64" fill="#cfb53b"/><circle cx="10.94" cy="8.22" r="1.64" fill="#cfb53b"/><circle cx="11.89" cy="17.35" r="1.68" fill="#cfb53b"/><circle cx="7.86" cy="17.35" r="1.68" fill="#cfb53b"/><path d="M17.24,9.11c-.12,2.26-2.42,3.59-4,4.8-1.3,1-2.63,1.9-4,2.77h1.26C9.27,16,8.12,15.19,7,14.37c-1.6-1.16-3.75-2.45-4.33-4.46a3.05,3.05,0,0,1,2.12-4,4.09,4.09,0,0,1,2.65.23c.93.48.88,1.51,1.27,2.35a1.25,1.25,0,0,0,2,.25c.58-.52.74-1.48,1.27-2.09a2.69,2.69,0,0,1,2.58-1,3.57,3.57,0,0,1,2.71,3.51,1.25,1.25,0,0,0,2.5,0,6.15,6.15,0,0,0-4.27-5.85,5,5,0,0,0-4.21.65A6.2,6.2,0,0,0,9.66,5.5a7.27,7.27,0,0,0-.54.89C9,6.54,9,6.7,8.9,6.86c-.17.37-.17.4,0,.08l2,.25c-.09-.2-.1-.59-.19-.83a4.72,4.72,0,0,0-.47-1A4.08,4.08,0,0,0,8.83,4,6.18,6.18,0,0,0,5,3.32,5.46,5.46,0,0,0,0,8.46c-.17,3,1.82,5.09,4,6.79a54.9,54.9,0,0,0,5.14,3.58,1.21,1.21,0,0,0,1.26,0c1.72-1.08,3.36-2.28,5-3.49,2.15-1.6,4.15-3.36,4.3-6.23C19.83,7.5,17.33,7.51,17.24,9.11Z" fill="#cfb53b"/></g></g></svg>