<svg width="235" height="210" viewBox="0 0 235 210" fill="none" xmlns="http://www.w3.org/2000/svg">
<g clip-path="url(#clip0_1345_25409)">
<path d="M84.1811 44.2306H54.1133V84.687H84.1811V44.2306Z" fill="#CCCCCC" stroke="black" stroke-width="0.1" stroke-miterlimit="10"/>
<path d="M84.4429 44.2307H53.9387L52.3677 43.2129H86.2758L84.4429 44.2307Z" fill="#CCCCCC" stroke="black" stroke-width="0.1" stroke-miterlimit="10"/>
<path d="M79.5989 22.6454V28.1159H73.2275V22.6454H65.416V28.1159H59.0882V22.6454H52.0186V43.2128H86.6685V22.6454H79.5989Z" fill="#CCCCCC" stroke="black" stroke-width="0.1" stroke-miterlimit="10"/>
<path d="M52.3677 31.2117H57.9972" stroke="black" stroke-width="0.1" stroke-miterlimit="10"/>
<path d="M56.6008 31.8901V36.6821" stroke="black" stroke-width="0.1" stroke-miterlimit="10"/>
<path d="M71.4382 31.8901V37.3607" stroke="black" stroke-width="0.1" stroke-miterlimit="10"/>
<path d="M52.3677 38.7601H65.0668" stroke="black" stroke-width="0.1" stroke-miterlimit="10"/>
<path d="M58.7391 45.5876V51.1006" stroke="black" stroke-width="0.1" stroke-miterlimit="10"/>
<path d="M55.9025 51.7791H62.9722" stroke="black" stroke-width="0.1" stroke-miterlimit="10"/>
<path d="M74.2748 45.5876V51.7791" stroke="black" stroke-width="0.1" stroke-miterlimit="10"/>
<path d="M55.2043 59.3275H60.1356" stroke="black" stroke-width="0.1" stroke-miterlimit="10"/>
<path d="M58.7391 60.6846V66.876" stroke="black" stroke-width="0.1" stroke-miterlimit="10"/>
<path d="M55.2043 67.5546H62.9722" stroke="black" stroke-width="0.1" stroke-miterlimit="10"/>
<path d="M58.7391 75.103V78.4956" stroke="black" stroke-width="0.1" stroke-miterlimit="10"/>
<path d="M63.6704 71.668V74.382" stroke="black" stroke-width="0.1" stroke-miterlimit="10"/>
<path d="M74.9731 68.9116H61.532V71.6681H74.9731V68.9116Z" stroke="black" stroke-width="0.1" stroke-miterlimit="10"/>
<path d="M76.6314 58.5219C75.8895 54.2812 73.0966 49.3193 68.6453 49.3193H67.3361C62.9721 50.2099 60.7029 53.5601 60.0483 59.7516C59.8133 60.9148 59.844 62.1138 60.1381 63.2642C60.4321 64.4146 60.9825 65.4884 61.7502 66.4095C62.6067 67.2617 63.6434 67.923 64.7887 68.3477C65.934 68.7723 67.1605 68.9503 68.3834 68.8692H69.038C70.129 68.8783 71.2097 68.6638 72.2097 68.24C73.2097 67.8162 74.1067 67.1926 74.8421 66.4095C75.7212 65.3047 76.3376 64.0244 76.6469 62.6606C76.9563 61.2968 76.951 59.8834 76.6314 58.5219ZM69.038 66.7489C63.8886 66.7489 61.6629 64.2468 62.143 60.1334C62.623 56.0199 64.0631 52.2456 67.8161 51.6519C71.5692 51.0582 73.9257 55.3413 74.5367 59.0307C75.1476 62.7201 74.1875 66.4096 69.038 66.7489Z" fill="#E6E6E6" stroke="black" stroke-width="0.1" stroke-miterlimit="10"/>
<path d="M69.038 66.749C63.8885 66.749 61.6629 64.247 62.1429 60.1335C62.623 56.02 64.0631 52.2458 67.8161 51.6521C71.5691 51.0584 73.9257 55.3414 74.5367 59.0309C75.1476 62.7203 74.1875 66.4097 69.038 66.749Z" fill="#C7B299" stroke="black" stroke-width="0.1" stroke-miterlimit="10"/>
<path d="M68.9944 1.39941V22.6454" stroke="black" stroke-width="0.1" stroke-miterlimit="10"/>
<path d="M68.9072 12.8069C68.9072 10.0081 68.9072 7.97248 68.9072 5.85212C68.9072 4.41028 68.9072 2.96862 68.9072 1.27234C71.0892 2.33252 73.533 3.3502 75.9332 4.36797C80.8843 6.70494 86.1405 8.37415 91.5562 9.32953C88.7261 10.1802 85.7896 10.6512 82.8283 10.729C81.8682 10.729 81.0827 10.729 80.2535 10.729C76.2703 10.2741 72.2407 11.0455 68.7326 12.9343L68.9072 12.8069Z" fill="#FF1D25"/>
<path d="M69.2127 1.86606C71.4819 2.6718 73.5766 3.64692 75.9332 4.53747C80.3932 6.60686 85.0772 8.18591 89.8979 9.24486C87.6895 10.0427 85.3585 10.4728 83.0028 10.517C82.0864 10.517 81.2572 10.517 80.4717 10.517C79.6577 10.4727 78.8419 10.4727 78.0279 10.517C74.9879 10.6249 72.009 11.3776 69.2999 12.7223C69.2999 10.093 69.2999 8.14231 69.2999 6.10677C69.2999 4.87697 69.2999 3.56234 69.2999 2.1205M68.8635 1.52673C68.8635 5.76744 68.8635 8.48145 68.8635 13.4007C71.7576 11.8976 74.9667 11.0562 78.2461 10.941C79.948 10.941 81.3881 11.1954 83.221 11.1954C86.2228 11.1294 89.1845 10.5107 91.949 9.37194C84.3556 8.4814 76.8496 4.2832 69.0817 1.52673H68.8635Z" fill="black"/>
<path d="M180.494 42.9584H150.426V83.4148H180.494V42.9584Z" fill="#CCCCCC" stroke="black" stroke-width="0.1" stroke-miterlimit="10"/>
<path d="M180.756 42.9584H150.252L148.681 41.9407H182.632L180.756 42.9584Z" fill="#CCCCCC" stroke="black" stroke-width="0.1" stroke-miterlimit="10"/>
<path d="M175.912 21.3732V26.8437H169.54V21.3732H161.729V26.8437H155.401V21.3732H148.331V41.9406H182.981V21.3732H175.912Z" fill="#CCCCCC" stroke="black" stroke-width="0.1" stroke-miterlimit="10"/>
<path d="M148.681 29.9395H154.31" stroke="black" stroke-width="0.1" stroke-miterlimit="10"/>
<path d="M152.914 30.6179V35.4099" stroke="black" stroke-width="0.1" stroke-miterlimit="10"/>
<path d="M167.751 30.6179V36.0884" stroke="black" stroke-width="0.1" stroke-miterlimit="10"/>
<path d="M148.681 37.4879H161.38" stroke="black" stroke-width="0.1" stroke-miterlimit="10"/>
<path d="M155.052 44.3154V49.8284" stroke="black" stroke-width="0.1" stroke-miterlimit="10"/>
<path d="M152.215 50.5068H159.285" stroke="black" stroke-width="0.1" stroke-miterlimit="10"/>
<path d="M170.588 44.3154V50.5069" stroke="black" stroke-width="0.1" stroke-miterlimit="10"/>
<path d="M151.517 58.0553H156.448" stroke="black" stroke-width="0.1" stroke-miterlimit="10"/>
<path d="M155.052 59.4124V65.6038" stroke="black" stroke-width="0.1" stroke-miterlimit="10"/>
<path d="M151.517 66.2823H159.285" stroke="black" stroke-width="0.1" stroke-miterlimit="10"/>
<path d="M151.517 73.1099H165.656" stroke="black" stroke-width="0.1" stroke-miterlimit="10"/>
<path d="M155.052 73.8308V77.2234" stroke="black" stroke-width="0.1" stroke-miterlimit="10"/>
<path d="M159.983 70.3959V73.1099" stroke="black" stroke-width="0.1" stroke-miterlimit="10"/>
<path d="M171.286 67.6394H157.845V70.3959H171.286V67.6394Z" stroke="black" stroke-width="0.1" stroke-miterlimit="10"/>
<path d="M172.944 57.2497C172.202 52.7969 169.409 48.0471 164.958 48.0471C164.523 48.0055 164.084 48.0055 163.649 48.0471C159.503 48.9377 157.016 52.2879 156.361 58.4794C156.164 59.6223 156.222 60.793 156.531 61.9123C156.84 63.0316 157.392 64.0733 158.15 64.9675C159.017 65.8063 160.055 66.4586 161.198 66.8824C162.341 67.3061 163.562 67.4918 164.784 67.4272H165.438C166.557 67.4271 167.663 67.1922 168.68 66.7385C169.696 66.2847 170.6 65.6227 171.33 64.798C172.129 63.7206 172.686 62.4915 172.964 61.1909C173.243 59.8903 173.236 58.5475 172.944 57.2497ZM165.351 65.4766C160.201 65.6887 157.976 62.9744 158.456 58.8609C158.936 54.7474 160.376 50.9732 164.129 50.3795C167.882 49.7858 170.239 54.0691 170.85 57.7585C171.461 61.4479 170.5 65.2646 165.351 65.4766Z" fill="#E6E6E6" stroke="black" stroke-width="0.1" stroke-miterlimit="10"/>
<path d="M165.351 65.4768C160.202 65.6888 157.976 62.9745 158.456 58.861C158.936 54.7475 160.376 50.9733 164.129 50.3796C167.882 49.7859 170.239 54.0692 170.85 57.7587C171.461 61.4481 170.5 65.2647 165.351 65.4768Z" fill="#C7B299" stroke="black" stroke-width="0.1" stroke-miterlimit="10"/>
<path d="M165.307 0.127197V21.3732" stroke="black" stroke-width="0.1" stroke-miterlimit="10"/>
<path d="M165.22 11.5347C165.22 8.73586 165.22 6.70026 165.22 4.5799C165.22 3.13806 165.22 1.69641 165.22 0.00012207C167.402 1.0603 169.846 2.07799 172.246 3.09576C177.191 5.43834 182.45 7.09414 187.869 8.01487C185.045 8.89447 182.106 9.38005 179.141 9.45682C178.225 9.45682 177.396 9.45682 176.566 9.45682C172.583 9.00191 168.554 9.77329 165.045 11.6621L165.22 11.5347Z" fill="#FF1D25"/>
<path d="M165.526 0.593634C167.795 1.39937 169.889 2.37475 172.246 3.2653C176.706 5.33469 181.39 6.91348 186.211 7.97243C184.002 8.7703 181.671 9.20061 179.316 9.24485C178.399 9.24485 177.57 9.24485 176.785 9.24485C175.971 9.19976 175.155 9.19976 174.341 9.24485C171.299 9.37526 168.322 10.1418 165.613 11.4923C165.613 8.86305 165.613 6.91233 165.613 4.87679C165.613 3.64699 165.613 2.33236 165.613 0.890515M165.176 0.296753C165.176 4.53746 165.176 7.25173 165.176 12.1709C168.07 10.6614 171.278 9.80598 174.559 9.66882C176.261 9.66882 177.701 9.9657 179.534 9.9657C182.536 9.89969 185.497 9.28094 188.262 8.14222C180.669 7.20927 173.162 3.05321 165.395 0.296753H165.176Z" fill="black"/>
<g opacity="0.48">
<g style="mix-blend-mode:multiply" opacity="0.3">
<path d="M76.4568 44.2306H53.9824V83.3723H76.4568V44.2306Z" fill="#4D4D4D"/>
</g>
<g style="mix-blend-mode:multiply" opacity="0.3">
<path d="M57.9536 44.2306H53.9824V83.1179H57.9536V44.2306Z" fill="#333333"/>
</g>
</g>
<g opacity="0.6">
<g style="mix-blend-mode:multiply" opacity="0.3">
<path d="M172.77 43.9338H150.295V80.2343H172.77V43.9338Z" fill="#4D4D4D"/>
</g>
<g style="mix-blend-mode:multiply" opacity="0.3">
<path d="M154.267 43.9338H150.295V79.9799H154.267V43.9338Z" fill="#333333"/>
</g>
</g>
<path d="M189.92 74.17H178.181V79.895H168.406V74.17H156.012V79.895H146.237V74.17H133.843V79.895H124.068V74.17H112.285V79.895H102.51V74.17H90.116V79.895H80.3407V74.17H68.6016V79.895H58.8263V74.17H46.4327V79.895H43.8143V125.737H193.848V79.895H189.92V74.17Z" fill="#CCCCCC" stroke="black" stroke-width="0.1" stroke-miterlimit="10"/>
<path d="M57.9099 79.895H99.1931" stroke="black" stroke-width="0.1" stroke-miterlimit="10"/>
<path d="M137.814 80.5311H167.969" stroke="black" stroke-width="0.1" stroke-miterlimit="10"/>
<path d="M71.0018 90.0728H167.315" stroke="black" stroke-width="0.1" stroke-miterlimit="10"/>
<path d="M71.0018 100.929H166.66" stroke="black" stroke-width="0.1" stroke-miterlimit="10"/>
<path d="M70.3473 110.47H166.66" stroke="black" stroke-width="0.1" stroke-miterlimit="10"/>
<path d="M70.3473 121.284H167.969" stroke="black" stroke-width="0.1" stroke-miterlimit="10"/>
<path d="M83.4392 90.0728V99.0207" stroke="black" stroke-width="0.1" stroke-miterlimit="10"/>
<path d="M109.012 90.0728V98.3846" stroke="black" stroke-width="0.1" stroke-miterlimit="10"/>
<path d="M132.578 90.0728V99.0207" stroke="black" stroke-width="0.1" stroke-miterlimit="10"/>
<path d="M156.187 90.7089V99.0207" stroke="black" stroke-width="0.1" stroke-miterlimit="10"/>
<path d="M71.6564 100.929V108.562" stroke="black" stroke-width="0.1" stroke-miterlimit="10"/>
<path d="M97.8839 101.565V109.198" stroke="black" stroke-width="0.1" stroke-miterlimit="10"/>
<path d="M121.449 100.929V108.562" stroke="black" stroke-width="0.1" stroke-miterlimit="10"/>
<path d="M144.404 100.929V109.834" stroke="black" stroke-width="0.1" stroke-miterlimit="10"/>
<path d="M83.4392 113.015V120.012" stroke="black" stroke-width="0.1" stroke-miterlimit="10"/>
<path d="M132.578 113.651V121.284" stroke="black" stroke-width="0.1" stroke-miterlimit="10"/>
<path d="M109.012 113.015V114.923" stroke="black" stroke-width="0.1" stroke-miterlimit="10"/>
<path d="M156.187 113.015V114.923" stroke="black" stroke-width="0.1" stroke-miterlimit="10"/>
<g style="mix-blend-mode:multiply" opacity="0.24">
<path d="M77.897 81.4216V75.1454H67.3798V80.8703H57.5608V75.1454L45.7781 80.8703V79.6405L42.5924 80.8703H42.5051L42.767 85.3231L44.1198 127.857L163.693 125.44L77.897 81.4216Z" fill="#4D4D4D"/>
</g>
<g style="mix-blend-mode:multiply" opacity="0.53">
<path d="M230.68 205.335C230.68 206.141 229.327 206.947 227.058 207.583C220.939 208.975 214.662 209.602 208.38 209.449H207.812C204.845 209.449 202.096 209.449 199.521 209.11C196.946 208.77 195.375 208.728 193.63 208.431C191.639 208.152 189.69 207.639 187.825 206.904H44.2943C37.6321 208.907 30.6623 209.767 23.6964 209.449C11.39 209.449 1.44012 207.625 1.44012 205.208C1.44012 202.791 11.39 200.967 23.6964 200.967C30.6615 200.667 37.6281 201.528 44.2943 203.512H187.913C189.677 202.811 191.524 202.327 193.411 202.07H193.717C195.462 201.815 197.47 201.561 199.608 201.391H199.957C202.576 201.391 205.456 201.095 208.467 201.095C214.748 200.962 221.022 201.589 227.145 202.96C229.327 203.724 230.68 204.487 230.68 205.335Z" fill="#1A1A1A"/>
</g>
<path d="M46.7818 113.057H5.4986V204.105C6.67687 206.565 13.8774 208.686 23.4345 209.11C34.7372 209.618 45.0362 207.583 46.4327 204.53C46.4716 204.391 46.4716 204.244 46.4327 204.105L46.7818 113.057Z" fill="#CCCCCC" stroke="black" stroke-width="0.1" stroke-miterlimit="10"/>
<path d="M40.8468 83.0756V90.7088H31.6825V83.0756H21.2089V90.7088H12.0446V83.0756H0.872803V111.107L5.49861 113.015H46.7382L51.364 111.107V83.0756H40.8468Z" fill="#CCCCCC" stroke="black" stroke-width="0.1" stroke-miterlimit="10"/>
<path d="M0.916443 111.107H51.364" stroke="black" stroke-width="0.1" stroke-miterlimit="10"/>
<path d="M0.916443 95.204H14.0084" stroke="black" stroke-width="0.1" stroke-miterlimit="10"/>
<path d="M8.77161 95.204V103.473" stroke="black" stroke-width="0.1" stroke-miterlimit="10"/>
<path d="M29.0641 95.8401V103.473" stroke="black" stroke-width="0.1" stroke-miterlimit="10"/>
<path d="M2.22565 105.382H22.5181" stroke="black" stroke-width="0.1" stroke-miterlimit="10"/>
<path d="M12.0446 114.923V123.829" stroke="black" stroke-width="0.1" stroke-miterlimit="10"/>
<path d="M6.1532 123.829H28.4095" stroke="black" stroke-width="0.1" stroke-miterlimit="10"/>
<path d="M32.9916 113.015V123.829" stroke="black" stroke-width="0.1" stroke-miterlimit="10"/>
<path d="M19.8997 123.829V132.098" stroke="black" stroke-width="0.1" stroke-miterlimit="10"/>
<path d="M5.4986 134.006H32.337" stroke="black" stroke-width="0.1" stroke-miterlimit="10"/>
<path d="M32.337 144.863V135.279" stroke="black" stroke-width="0.1" stroke-miterlimit="10"/>
<path d="M12.0446 134.006V144.227" stroke="black" stroke-width="0.1" stroke-miterlimit="10"/>
<path d="M5.4986 144.863H29.0641" stroke="black" stroke-width="0.1" stroke-miterlimit="10"/>
<path d="M19.8997 146.771V155.676" stroke="black" stroke-width="0.1" stroke-miterlimit="10"/>
<path d="M5.4986 155.677H29.0641" stroke="black" stroke-width="0.1" stroke-miterlimit="10"/>
<path d="M12.0446 155.677V165.218" stroke="black" stroke-width="0.1" stroke-miterlimit="10"/>
<path d="M5.4986 165.854H29.7187" stroke="black" stroke-width="0.1" stroke-miterlimit="10"/>
<path d="M19.8997 165.854V173.488" stroke="black" stroke-width="0.1" stroke-miterlimit="10"/>
<path d="M5.4986 175.396H31.6824" stroke="black" stroke-width="0.1" stroke-miterlimit="10"/>
<path d="M11.39 175.396V184.98" stroke="black" stroke-width="0.1" stroke-miterlimit="10"/>
<path d="M5.4986 186.252H32.9916" stroke="black" stroke-width="0.1" stroke-miterlimit="10"/>
<path d="M19.8997 187.524V197.066" stroke="black" stroke-width="0.1" stroke-miterlimit="10"/>
<path d="M5.4986 197.066H31.0278" stroke="black" stroke-width="0.1" stroke-miterlimit="10"/>
<path d="M12.0446 198.338V202.791" stroke="black" stroke-width="0.1" stroke-miterlimit="10"/>
<path d="M230.243 113.651H188.96V204.699C190.138 207.159 197.339 209.279 206.896 209.703C218.199 210.212 228.498 208.177 229.894 205.123C229.913 204.983 229.913 204.84 229.894 204.699L230.243 113.651Z" fill="#CCCCCC" stroke="black" stroke-width="0.1" stroke-miterlimit="10"/>
<path d="M224.308 83.7117V91.3874H215.144V83.7117H204.67V91.3874H195.506V83.7117H184.334V111.743L188.96 113.651H230.2L234.782 111.743V83.7117H224.308Z" fill="#CCCCCC" stroke="black" stroke-width="0.1" stroke-miterlimit="10"/>
<path d="M184.334 111.743H234.782" stroke="black" stroke-width="0.1" stroke-miterlimit="10"/>
<path d="M184.334 95.8401H197.47" stroke="black" stroke-width="0.1" stroke-miterlimit="10"/>
<path d="M192.233 95.8401V104.109" stroke="black" stroke-width="0.1" stroke-miterlimit="10"/>
<path d="M212.526 96.4762V104.109" stroke="black" stroke-width="0.1" stroke-miterlimit="10"/>
<path d="M185.643 106.018H205.98" stroke="black" stroke-width="0.1" stroke-miterlimit="10"/>
<path d="M195.506 115.559V124.465" stroke="black" stroke-width="0.1" stroke-miterlimit="10"/>
<path d="M189.571 124.465H211.871" stroke="black" stroke-width="0.1" stroke-miterlimit="10"/>
<path d="M216.453 113.651V124.465" stroke="black" stroke-width="0.1" stroke-miterlimit="10"/>
<path d="M203.361 124.465V132.734" stroke="black" stroke-width="0.1" stroke-miterlimit="10"/>
<path d="M188.916 134.643H215.799" stroke="black" stroke-width="0.1" stroke-miterlimit="10"/>
<path d="M215.799 145.499V135.915" stroke="black" stroke-width="0.1" stroke-miterlimit="10"/>
<path d="M195.506 134.643V144.863" stroke="black" stroke-width="0.1" stroke-miterlimit="10"/>
<path d="M188.916 145.499H212.526" stroke="black" stroke-width="0.1" stroke-miterlimit="10"/>
<path d="M203.361 147.407V156.313" stroke="black" stroke-width="0.1" stroke-miterlimit="10"/>
<path d="M188.916 156.313H212.526" stroke="black" stroke-width="0.1" stroke-miterlimit="10"/>
<path d="M195.506 156.313V165.854" stroke="black" stroke-width="0.1" stroke-miterlimit="10"/>
<path d="M188.916 166.49H213.18" stroke="black" stroke-width="0.1" stroke-miterlimit="10"/>
<path d="M203.361 166.49V174.124" stroke="black" stroke-width="0.1" stroke-miterlimit="10"/>
<path d="M188.916 176.032H215.144" stroke="black" stroke-width="0.1" stroke-miterlimit="10"/>
<path d="M194.851 176.032V185.616" stroke="black" stroke-width="0.1" stroke-miterlimit="10"/>
<path d="M188.916 186.888H216.453" stroke="black" stroke-width="0.1" stroke-miterlimit="10"/>
<path d="M203.361 188.16V197.702" stroke="black" stroke-width="0.1" stroke-miterlimit="10"/>
<path d="M188.916 197.702H214.489" stroke="black" stroke-width="0.1" stroke-miterlimit="10"/>
<path d="M195.506 198.974V203.427" stroke="black" stroke-width="0.1" stroke-miterlimit="10"/>
<g style="mix-blend-mode:multiply" opacity="0.18">
<path d="M203.492 209.449H217.37L222.039 208.813H222.694V113.948H189.266V204.996L190.575 206.268C192.539 206.904 193.848 207.54 195.812 208.176L203.492 209.449Z" fill="#4D4D4D"/>
</g>
<g style="mix-blend-mode:multiply" opacity="0.18">
<path d="M20.2052 209.449H34.0826L38.7521 208.813H39.4067V113.948H5.97864V204.996L7.28781 206.268C9.2516 206.904 10.5608 207.54 12.5246 208.176L20.2052 209.449Z" fill="#4D4D4D"/>
</g>
<g style="mix-blend-mode:multiply" opacity="0.3">
<path d="M194.502 113.312L195.157 208.176C192.773 207.42 190.553 206.241 188.611 204.699V113.312H194.502Z" fill="#333333"/>
</g>
<g style="mix-blend-mode:multiply" opacity="0.3">
<path d="M11.2154 113.312L11.87 208.176C9.48561 207.42 7.26613 206.241 5.32404 204.699V113.312H11.2154Z" fill="#333333"/>
</g>
<path d="M188.96 114.923V204.699H46.7382V114.923H63.1467V125.101H76.8932V114.923H94.611V125.101H108.357V114.923H126.032V125.101H139.778V114.923H156.841V125.101H170.588V114.923H188.96Z" fill="#CCCCCC" stroke="black" stroke-width="0.1" stroke-miterlimit="10"/>
<g style="mix-blend-mode:multiply" opacity="0.19">
<path d="M182.065 205.632L60.1792 124.592V115.856H47.0873V126.924V205.632H182.065Z" fill="#4D4D4D"/>
</g>
<path d="M81.039 204.699L80.7335 200.458C80.7335 198.847 80.7335 197.193 80.7335 195.539C80.5417 183.633 84.0389 171.945 90.7707 161.995C93.4645 157.526 97.3146 153.82 101.939 151.245C106.563 148.669 111.799 147.314 117.129 147.314C122.459 147.314 127.696 148.669 132.32 151.245C136.943 153.82 140.794 157.526 143.487 161.995C150.219 171.945 153.716 183.633 153.525 195.539C153.525 197.193 153.525 198.847 153.525 200.458L153.219 204.699H81.039Z" fill="#E6E6E6" stroke="black" stroke-width="0.1" stroke-miterlimit="10"/>
<path d="M147.022 199.907C147.022 201.519 147.022 203.13 147.022 204.699H86.8867C86.8867 203.13 86.8867 201.519 86.8867 199.907C86.8867 174.76 100.371 154.404 116.998 154.404C133.625 154.404 147.022 174.76 147.022 199.907Z" fill="#404039" stroke="black" stroke-width="0.1" stroke-miterlimit="10"/>
<path d="M146.501 192.735C147.135 196.74 147.135 200.816 146.501 204.821L95.3993 204.185C94.7584 200.4 94.4373 196.571 94.4392 192.735C94.4392 172.168 101.902 154.569 116.87 154.569H117.219C119.915 154.646 122.569 155.236 125.031 156.307C136.464 161.311 145.192 176.196 146.501 192.735Z" fill="#936037"/>
<g style="mix-blend-mode:multiply" opacity="0.3">
<path d="M68.6453 185.913L67.6853 164.624L61.9684 166.151L68.6453 185.913Z" fill="#4D4D4D"/>
</g>
<g style="mix-blend-mode:multiply" opacity="0.3">
<path d="M67.9471 164.54L61.1829 166.321C61.0699 166.346 60.9524 166.346 60.8391 166.322C60.7259 166.298 60.6195 166.25 60.5277 166.181C60.4359 166.112 60.361 166.024 60.3083 165.923C60.2556 165.823 60.2264 165.712 60.2229 165.6C60.1729 165.37 60.2065 165.13 60.3179 164.921C60.4293 164.712 60.6116 164.548 60.8338 164.455L67.598 162.674C67.711 162.649 67.8285 162.648 67.9418 162.672C68.055 162.697 68.1614 162.745 68.2532 162.814C68.345 162.883 68.4199 162.971 68.4726 163.071C68.5253 163.171 68.5545 163.282 68.558 163.395C68.608 163.625 68.5744 163.864 68.463 164.073C68.3517 164.282 68.1693 164.447 67.9471 164.54Z" fill="#4D4D4D"/>
</g>
<g style="mix-blend-mode:multiply" opacity="0.3">
<path d="M169.846 185.828L168.449 164.921L162.82 166.618L169.846 185.828Z" fill="#4D4D4D"/>
<path d="M168.711 164.837L162.078 166.83C161.685 166.83 161.249 166.83 161.118 166.151C161.065 165.926 161.092 165.69 161.195 165.482C161.298 165.274 161.471 165.106 161.685 165.006L168.319 163.013C168.755 163.013 169.148 163.013 169.279 163.691C169.332 163.917 169.305 164.152 169.201 164.361C169.098 164.569 168.925 164.737 168.711 164.837Z" fill="#4D4D4D"/>
</g>
<path d="M68.3834 186.21L72.311 165.854H64.4559L68.3834 186.21Z" fill="#754C24" stroke="#42210B" stroke-width="0.1" stroke-miterlimit="10"/>
<path d="M72.3111 163.31H64.4559C63.7329 163.31 63.1467 163.879 63.1467 164.582C63.1467 165.285 63.7329 165.854 64.4559 165.854H72.3111C73.0341 165.854 73.6203 165.285 73.6203 164.582C73.6203 163.879 73.0341 163.31 72.3111 163.31Z" fill="#754C24" stroke="#42210B" stroke-width="0.1" stroke-miterlimit="10"/>
<path d="M68.3834 162.674C67.6716 162.794 66.94 162.741 66.2545 162.519C65.569 162.297 64.951 161.913 64.4559 161.402C64.1131 160.951 63.8767 160.432 63.7636 159.882C63.6504 159.332 63.6633 158.765 63.8013 158.221C64.1504 157.034 64.805 157.161 65.765 155.676C66.5273 154.378 66.9751 152.928 67.0743 151.436C67.1411 150.801 67.1411 150.162 67.0743 149.527L69.038 155.252L71.0018 152.072C70.7552 153.119 70.7552 154.206 71.0018 155.252C71.0018 155.592 71.0018 155.507 71.6564 157.161C72.311 158.815 72.3547 159.239 72.311 159.705C72.3079 160.393 72.0785 161.062 71.6564 161.614C71.2136 161.997 70.6951 162.289 70.1323 162.471C69.5696 162.654 68.9745 162.722 68.3834 162.674Z" fill="#F7931E" stroke="#C1272D" stroke-width="0.1" stroke-miterlimit="10"/>
<path d="M169.933 186.21L173.861 165.854H166.006L169.933 186.21Z" fill="#754C24" stroke="#42210B" stroke-width="0.1" stroke-miterlimit="10"/>
<path d="M173.861 163.31H166.006C165.283 163.31 164.696 163.879 164.696 164.582C164.696 165.285 165.283 165.854 166.006 165.854H173.861C174.584 165.854 175.17 165.285 175.17 164.582C175.17 163.879 174.584 163.31 173.861 163.31Z" fill="#754C24" stroke="#42210B" stroke-width="0.1" stroke-miterlimit="10"/>
<path d="M169.933 162.674C169.221 162.794 168.49 162.741 167.804 162.519C167.119 162.297 166.501 161.913 166.006 161.402C165.663 160.951 165.426 160.432 165.313 159.882C165.2 159.333 165.213 158.765 165.351 158.221C165.7 157.034 166.398 157.161 167.315 155.676C168.355 153.717 168.808 151.513 168.624 149.315L170.588 155.041L172.552 151.86C172.305 152.907 172.305 153.994 172.552 155.041C172.552 155.38 172.552 155.295 173.206 156.949C173.861 158.603 173.904 159.027 173.861 159.493C173.858 160.181 173.628 160.85 173.206 161.402C172.782 161.823 172.271 162.154 171.708 162.373C171.144 162.592 170.54 162.695 169.933 162.674Z" fill="#F7931E" stroke="#C1272D" stroke-width="0.1" stroke-miterlimit="10"/>
<path d="M57.91 125.059C67.2052 125.059 80.2099 124.677 89.3742 125.059C80.6463 125.568 66.987 125.059 57.91 125.059Z" fill="black"/>
<path d="M147.677 125.059C157.321 125.059 170.893 124.677 180.45 125.059C171.111 125.568 157.147 125.059 147.677 125.059Z" fill="black"/>
<path d="M67.0743 141.682H169.933" stroke="black" stroke-width="0.1" stroke-miterlimit="10"/>
<path d="M80.1662 141.682V155.04" stroke="black" stroke-width="0.1" stroke-miterlimit="10"/>
<path d="M107.048 143.59V149.315" stroke="black" stroke-width="0.1" stroke-miterlimit="10"/>
<path d="M132.578 142.954V151.86" stroke="black" stroke-width="0.1" stroke-miterlimit="10"/>
<path d="M158.15 141.682V156.313" stroke="black" stroke-width="0.1" stroke-miterlimit="10"/>
<path d="M73.6202 158.221H93.9127" stroke="black" stroke-width="0.1" stroke-miterlimit="10"/>
<path d="M141.742 158.221H164.696" stroke="black" stroke-width="0.1" stroke-miterlimit="10"/>
<path d="M145.713 160.765V165.854" stroke="black" stroke-width="0.1" stroke-miterlimit="10"/>
<path d="M150.95 172.851H165.351" stroke="black" stroke-width="0.1" stroke-miterlimit="10"/>
<path d="M158.15 177.304V190.069" stroke="black" stroke-width="0.1" stroke-miterlimit="10"/>
<path d="M154.223 190.069H169.279" stroke="black" stroke-width="0.1" stroke-miterlimit="10"/>
<path d="M72.311 172.851H84.7484" stroke="black" stroke-width="0.1" stroke-miterlimit="10"/>
<path d="M80.1662 177.94V190.069" stroke="black" stroke-width="0.1" stroke-miterlimit="10"/>
<path d="M66.4197 190.069H80.8208" stroke="black" stroke-width="0.1" stroke-miterlimit="10"/>
<path d="M67.7289 194.521V204.699" stroke="black" stroke-width="0.1" stroke-miterlimit="10"/>
<path d="M82.8282 196.387C83.9629 196.387 85.7085 195.921 86.7558 196.387C85.4598 196.642 84.1243 196.642 82.8282 196.387Z" fill="black"/>
<path d="M84.792 177.304C86.3405 177.734 87.8121 178.392 89.156 179.255C87.6199 178.792 86.1528 178.137 84.792 177.304Z" fill="black"/>
<path d="M93.9564 158.179C96.0337 159.277 98.0054 160.554 99.8478 161.995C97.7303 160.962 95.7517 159.681 93.9564 158.179Z" fill="black"/>
<path d="M116.911 147.365C117.129 149.494 117.129 151.639 116.911 153.768C116.605 151.644 116.605 149.489 116.911 147.365Z" fill="black"/>
<path d="M133.887 160.087C135.021 159.196 136.461 157.415 137.858 156.949C136.722 158.201 135.38 159.261 133.887 160.087Z" fill="black"/>
<path d="M143.749 176.032C145.654 175.382 147.632 174.955 149.641 174.76C147.746 175.442 145.764 175.87 143.749 176.032Z" fill="black"/>
<path d="M147.022 197.872C148.758 197.616 150.523 197.616 152.259 197.872C150.523 198.128 148.758 198.128 147.022 197.872Z" fill="black"/>
<path d="M96.662 169.035C96.662 179.552 97.0984 194.479 96.662 204.699C96.182 194.521 96.662 179.255 96.662 169.035Z" fill="black"/>
<path d="M107.747 159.705C107.747 172.427 108.139 190.408 107.747 203.003C107.267 190.62 107.747 172.258 107.747 159.705Z" fill="black"/>
<path d="M119.529 158.857C119.529 171.579 119.922 189.093 119.529 201.518C119.049 189.305 119.529 171.24 119.529 158.857Z" fill="black"/>
<path d="M131.967 164.582C131.967 175.862 132.359 191.68 131.967 202.749C131.486 191.808 131.967 175.608 131.967 164.582Z" fill="black"/>
<path d="M141.785 177.304C141.785 185.404 142.178 196.726 141.785 204.699C141.305 196.896 141.785 185.192 141.785 177.304Z" fill="black"/>
<g style="mix-blend-mode:multiply" opacity="0.2">
<path d="M224.657 84.0508C224.897 86.5899 224.897 89.1452 224.657 91.6843C220.904 91.6843 215.318 90.8784 211.565 91.0481C211.065 88.741 211.065 86.3578 211.565 84.0508C208.991 84.0508 207.638 84.0508 205.02 84.0508C205.02 87.8674 204.365 87.5282 204.365 90.7087C200.12 90.4969 195.867 90.4969 191.622 90.7087C191.734 88.4093 192.13 86.1314 192.8 83.9237C189.746 83.9237 187.302 83.9237 184.072 83.9237C184.965 92.9356 184.965 102.01 184.072 111.022C198.91 109.622 215.057 107.375 229.72 106.781C229.069 99.2444 229.763 91.655 231.771 84.3477C228.629 83.966 227.887 84.3052 224.657 84.0508Z" fill="#4D4D4D"/>
</g>
<g style="mix-blend-mode:multiply" opacity="0.17">
<path d="M79.8607 22.8998C79.8607 24.5113 79.8607 26.7165 79.8607 27.9887C77.3732 27.9887 72.5292 27.9887 70.0418 27.9887C69.6891 26.3097 69.6891 24.5788 70.0418 22.8998H65.4596V27.9887C63.1903 27.9887 59.1755 28.4129 56.9498 28.6249C57.0297 26.5547 57.3073 24.4961 57.779 22.4758C55.8482 22.6458 53.9057 22.6458 51.9749 22.4758C52.324 32.5263 52.324 31.254 51.9749 40.414C61.8375 39.481 72.5292 37.9968 82.2609 37.5728C82.0922 32.6293 82.8008 27.6945 84.3556 22.9847C82.3045 22.8575 81.9991 23.0694 79.8607 22.8998Z" fill="#666666"/>
</g>
<g style="mix-blend-mode:multiply" opacity="0.21">
<path d="M40.6286 84.0508C40.6286 86.4256 40.6286 89.1399 40.6286 91.6843C36.8756 91.6843 29.3695 91.2177 25.5729 91.3449C25.0709 88.9381 25.0709 86.4577 25.5729 84.0508C22.9981 84.0508 23.6091 84.0508 21.2089 84.0508V91.8538C16.7463 91.6203 12.2741 91.6203 7.81151 91.8538C7.63551 89.2367 7.72319 86.6092 8.07333 84.0086C5.01855 84.0086 3.49118 84.0086 0.218201 84.0086C0.218201 99.2752 0.218201 98.2997 0.218201 112.04C15.0557 110.64 29.9805 108.562 44.6435 107.799C44.6435 99.996 45.9527 94.7375 45.2981 83.9237C43.7454 84.0541 42.1863 84.0965 40.6286 84.0508Z" fill="#4D4D4D"/>
</g>
<g style="mix-blend-mode:multiply" opacity="0.2">
<path d="M176.174 21.6277C176.174 23.1968 176.174 25.8683 176.174 27.3526C173.686 27.3526 167.446 27.3526 165.045 27.3526C164.718 25.3579 164.718 23.3255 165.045 21.3308C163.387 21.3308 163.169 20.9916 161.86 21.6277V26.7166C159.634 26.7166 155.532 27.1405 153.132 27.3526C152.835 25.4873 152.733 23.5979 152.826 21.7126C150.819 21.7126 150.252 21.7126 148.113 21.7126C148.113 31.7207 148.113 30.4909 148.113 39.4812C157.845 38.5482 167.62 37.1911 177.221 36.7246C177.221 31.6358 179.054 28.7097 178.617 21.6277C176.654 21.5853 178.137 21.6277 176.174 21.6277Z" fill="#4D4D4D"/>
</g>
<g style="mix-blend-mode:multiply" opacity="0.19">
<path d="M95.5711 74.5093H90.3343V80.2342H95.5711V74.5093Z" fill="#333333"/>
</g>
<g style="mix-blend-mode:multiply" opacity="0.19">
<path d="M117.827 74.5093H112.591V80.2342H117.827V74.5093Z" fill="#333333"/>
</g>
<g style="mix-blend-mode:multiply" opacity="0.19">
<path d="M161.074 73.8732H155.838V80.2342H161.074V73.8732Z" fill="#333333"/>
</g>
<g style="mix-blend-mode:multiply" opacity="0.19">
<path d="M138.818 73.8732H133.581V80.2342H138.818V73.8732Z" fill="#333333"/>
</g>
<g style="mix-blend-mode:multiply" opacity="0.19">
<path d="M182.065 73.8732H178.137V80.2342H182.065V73.8732Z" fill="#333333"/>
</g>
<g style="mix-blend-mode:multiply" opacity="0.21">
<path d="M83.1337 114.584H76.5878V125.398H83.1337V114.584Z" fill="#333333"/>
</g>
<g style="mix-blend-mode:multiply" opacity="0.21">
<path d="M115.864 114.584H108.008V125.398H115.864V114.584Z" fill="#333333"/>
</g>
<g style="mix-blend-mode:multiply" opacity="0.21">
<path d="M144.709 114.584H139.473V125.398H144.709V114.584Z" fill="#333333"/>
</g>
<g style="mix-blend-mode:multiply" opacity="0.21">
<path d="M175.519 114.584H170.282V124.762H175.519V114.584Z" fill="#333333"/>
</g>
<g style="mix-blend-mode:multiply" opacity="0.19">
<path d="M189.266 124.168L181.89 204.36H188.611L189.266 124.168Z" fill="#4D4D4D"/>
</g>
<g style="mix-blend-mode:multiply" opacity="0.3">
<path d="M126.468 156.525C124.151 155.396 121.597 154.802 119.006 154.786H118.482C116.047 154.585 113.596 154.8 111.238 155.422L119.093 158.603C129.915 158.603 141.698 173.869 141.698 194.267C141.701 197.687 141.336 201.098 140.607 204.445L146.586 205.081C147.331 201.74 147.551 198.308 147.24 194.903C145.364 177.007 137.072 161.571 126.468 156.525Z" fill="#42210B"/>
</g>
</g>
<defs>
<clipPath id="clip0_1345_25409">
<rect width="235" height="210" fill="white"/>
</clipPath>
</defs>
</svg>
