<svg width="29" height="31" viewBox="0 0 29 31" fill="none" xmlns="http://www.w3.org/2000/svg">
<g filter="url(#filter0_d_579_14276)">
<path d="M9.09227 10.9236L8.21842 9.60695L11.9489 2.16113L15.8026 4.09189L16.362 5.50358L14.798 6.09697L15.3707 10.3937L11.8185 12.044L11.0811 10.9095L9.09227 10.9236Z" fill="#312783"/>
<path d="M10.8239 21.0955L7.67113 21.3661L3.39931 19.2259L7.56862 10.9041L8.44246 12.2207L10.4313 12.2066L11.6602 14.2918L12.0343 14.2764L12.2572 16.6083L9.27432 17.9602L10.8239 21.0955Z" fill="#006633"/>
<path d="M23.3252 7.86091L19.116 16.2623L18.0861 14.4192L16.0882 15.0407L14.7911 12.9L12.9231 12.9711L12.9161 12.8786L16.4669 11.2312L15.8942 6.93447L17.4553 6.33966L16.8435 4.61353L23.3252 7.86091Z" fill="#E30613"/>
<path d="M17.4362 15.7159L18.4661 17.559L14.7756 24.9252L9.07322 22.0682L11.9186 21.9282L10.3704 18.7972L13.3533 17.4453L13.0458 14.2385L14.1413 14.1967L15.4384 16.3374L17.4362 15.7159Z" fill="#683C11"/>
</g>
<defs>
<filter id="filter0_d_579_14276" x="0.399292" y="0.161133" width="27.9259" height="30.7639" filterUnits="userSpaceOnUse" color-interpolation-filters="sRGB">
<feFlood flood-opacity="0" result="BackgroundImageFix"/>
<feColorMatrix in="SourceAlpha" type="matrix" values="0 0 0 0 0 0 0 0 0 0 0 0 0 0 0 0 0 0 127 0" result="hardAlpha"/>
<feOffset dx="1" dy="2"/>
<feGaussianBlur stdDeviation="2"/>
<feComposite in2="hardAlpha" operator="out"/>
<feColorMatrix type="matrix" values="0 0 0 0 0 0 0 0 0 0 0 0 0 0 0 0 0 0 0.25 0"/>
<feBlend mode="normal" in2="BackgroundImageFix" result="effect1_dropShadow_579_14276"/>
<feBlend mode="normal" in="SourceGraphic" in2="effect1_dropShadow_579_14276" result="shape"/>
</filter>
</defs>
</svg>
