<svg xmlns="http://www.w3.org/2000/svg" viewBox="0 0 40 60"><g id="Слой_2" data-name="Слой 2"><g id="тряпка"><polygon points="4.31 28.65 0 26.18 0 0 13.55 0 17.11 3.18 13.55 7.05 21.21 18.32 13.55 27.96 9.88 25.81 4.31 28.65" fill="#312783"/><polygon points="23.5 54.8 15.02 60 0 60 0 30.74 4.31 33.21 9.88 30.37 16.27 34.5 17.3 33.93 21.21 40.17 14.73 48.17 23.5 54.8" fill="#063"/><polygon points="40 0 40 29.54 34.51 25.81 29.77 30.37 23.11 26.18 17.96 29.01 17.81 28.76 25.47 19.13 17.81 7.86 21.36 3.99 17.21 0 40 0" fill="#e30613"/><polygon points="34.51 30.37 40 34.1 40 60 19.95 60 27.75 55.6 18.99 48.98 25.47 40.98 20.09 32.4 23.11 30.74 29.77 34.93 34.51 30.37" fill="#683c11"/><polyline points="15.02 60 23.5 54.8 14.73 48.17 21.21 40.17 17.3 33.93 13.79 28.34 13.55 27.96 21.21 18.32 13.55 7.05 17.11 3.18 13.55 0" fill="none"/><polyline points="17.04 0 21.19 3.99 17.63 7.86 25.3 19.13 17.63 28.76 25.3 40.98 18.82 48.98 27.58 55.6 19.78 60" fill="none"/><polyline points="40 34.1 34.51 30.37 29.77 34.93 23.11 30.74 20.09 32.4 19.96 32.47" fill="none"/><polyline points="0 30.74 4.31 33.21 9.88 30.37 16.27 34.5 17.3 33.93" fill="none"/><polyline points="40 29.54 34.51 25.81 29.77 30.37 23.11 26.18 17.96 29.01 17.83 29.08" fill="none"/><polyline points="13.79 28.34 9.88 25.81 4.31 28.65 0 26.18" fill="none"/></g></g></svg>