<svg xmlns="http://www.w3.org/2000/svg" xmlns:xlink="http://www.w3.org/1999/xlink" viewBox="0 0 60 60"><defs><linearGradient id="Безымянный_градиент_63" x1="6.65" y1="32.88" x2="45.32" y2="10.55" gradientUnits="userSpaceOnUse"><stop offset="0.01" stop-color="#9a9a9a"/><stop offset="0.07" stop-color="#a5a5a5"/><stop offset="0.17" stop-color="#c3c3c3"/><stop offset="0.31" stop-color="#f2f2f2"/><stop offset="0.32" stop-color="#f8f8f8"/><stop offset="0.56" stop-color="#f6f6f6"/><stop offset="0.68" stop-color="#eee"/><stop offset="0.78" stop-color="#e1e1e1"/><stop offset="0.86" stop-color="#cecece"/><stop offset="0.93" stop-color="#b6b6b6"/><stop offset="0.94" stop-color="#b2b2b2"/></linearGradient><linearGradient id="Безымянный_градиент_16" x1="46.84" y1="48.05" x2="31.87" y2="22.12" gradientUnits="userSpaceOnUse"><stop offset="0" stop-color="#9d9d9c"/><stop offset="0.04" stop-color="#b4b4b3"/><stop offset="0.1" stop-color="#cdcdcc"/><stop offset="0.17" stop-color="#e0e0e0"/><stop offset="0.25" stop-color="#eee"/><stop offset="0.35" stop-color="#f6f6f6"/><stop offset="0.52" stop-color="#f8f8f8"/><stop offset="0.71" stop-color="#f6f6f6"/><stop offset="0.8" stop-color="#eee"/><stop offset="0.88" stop-color="#e1e1e1"/><stop offset="0.94" stop-color="#cecece"/><stop offset="0.99" stop-color="#b6b6b6"/><stop offset="1" stop-color="#b2b2b2"/></linearGradient><linearGradient id="Безымянный_градиент_14" x1="39.09" y1="27.71" x2="27.16" y2="7.04" xlink:href="#Безымянный_градиент_16"/></defs><g id="Слой_2" data-name="Слой 2"><g id="дерево"><ellipse cx="8.3" cy="33.96" rx="6.99" ry="13.55" transform="translate(-12.27 5.69) rotate(-22.3)" fill="#ebd4b6"/><polygon points="2.07 22.12 2.07 22.12 2.08 22.11 2.07 22.12" fill="#683c11"/><polygon points="2.07 22.12 2.07 22.12 2.08 22.11 2.07 22.12" fill="#683c11"/><path d="M46.74,18.75c0,3.47-1.11,5.81-2.87,6.69L14.24,46c1.44-1.06,2.32-3.25,2.32-6.35,0-6.33-3.7-14-8.26-17.19-2.08-1.44-4-1.69-5.43-.94l3.6-2.5,1.29-.9L18.13,11l.14-.66v-.05a4.15,4.15,0,0,1,5-3.23l.85.21L32.58.91,32.7.82l0,0c1.49-1,3.51-.79,5.74.76C43,4.72,46.74,12.42,46.74,18.75Z" fill="url(#Безымянный_градиент_63)"/><path d="M6.21,34.05l.08,0s0,0,0,0h-.1A.33.33,0,0,1,6,33.78H6s0-.05,0-.07l0,0H6a1.88,1.88,0,0,0,.22-.47s.06-.3.06-.47a2.17,2.17,0,0,0,0-.25,1.31,1.31,0,0,0-.06-.27c0-.19-.12-.39-.19-.6L5.77,31a1.83,1.83,0,0,1,.06-.25c0-.08.14-.17.24-.25s-.18.33-.25.53.09.23.13.35a3.84,3.84,0,0,1,.14.4,1.87,1.87,0,0,1,.13.4,2.88,2.88,0,0,1,.09.4,2.6,2.6,0,0,1,0,.26c0,.08,0,.21,0,.23s-.12.37-.13.41h0a2.67,2.67,0,0,1-.15.32A.46.46,0,0,0,6.21,34.05Z" fill="#936037"/><path d="M6.46,34.31c-.1-.06-.16-.11-.14-.2a.32.32,0,0,0,.14,0A.12.12,0,0,0,6.46,34.31Z" fill="#936037"/><path d="M6.49,30.17c.12.1-.1.15-.37.26.07-.08.09-.14-.06-.17H6l.1,0A2.74,2.74,0,0,0,6.49,30.17Z" fill="#936037"/><path d="M6.54,30.15s0-.08-.09-.16l-.16-.1.23.12c.11.06.18.09.21.07S6.72,30.19,6.54,30.15Z" fill="#936037"/><path d="M6.76,34.66c-.09-.1-.18-.19-.18-.24a1.24,1.24,0,0,0,.18.14S6.74,34.61,6.76,34.66Z" fill="#936037"/><path d="M6.87,30c0,.12,0,.14-.12.06a.23.23,0,0,0,0-.13c0-.07-.06-.17-.11-.3.07.15.11.26.15.32S6.84,30,6.87,30Z" fill="#936037"/><path d="M6.9,30a.46.46,0,0,0,0-.09c0-.08.05-.2.08-.35a1.2,1.2,0,0,0,0,.32c0,.11,0,.09.16,0C7,30,6.91,30.1,6.9,30Z" fill="#936037"/><path d="M7.07,35.27l.08.22c0-.11-.09-.21-.11-.28s-.18-.34-.19-.42a1.21,1.21,0,0,1,.1.14C7,35,7,35.16,7.07,35.27Z" fill="#936037"/><path d="M7.44,36.17c-.08-.1-.18-.21-.26-.33s0,0,0,0a.08.08,0,0,0,0,0C7.33,35.94,7.49,36.14,7.44,36.17Z" fill="#936037"/><path d="M7.69,36.54l-.33-.09a.32.32,0,0,0,.16,0c.05,0,.05-.06,0-.11.12.09.19.16.16.22a0,0,0,0,1,0,0Z" fill="#936037"/><path d="M7.93,36.86v0h0a.34.34,0,0,0-.26.11.69.69,0,0,0,.16-.23.18.18,0,0,0,0-.1A.22.22,0,0,1,7.93,36.86Z" fill="#936037"/><path d="M8.29,37.35h0a.3.3,0,0,0-.25.13,1,1,0,0,0,0-.28v-.1s.05,0,.05,0S8.38,37.24,8.29,37.35Z" fill="#936037"/><path d="M8.3,37.42a0,0,0,0,0,0-.06.19.19,0,0,1,.11.11Z" fill="#936037"/><path d="M8.73,37.83c.08-.1,0-.1-.13-.07l-.22.09a.17.17,0,0,0,.06-.06.23.23,0,0,0,.05-.15c.16,0,.27,0,.18.06.15,0,.22,0,.21.12A.16.16,0,0,0,8.73,37.83Z" fill="#936037"/><path d="M9.22,38.11c0-.08,0-.11,0,0-.1-.16-.18-.15-.36,0,0,0,0,0,0,0l0-.05h0a.4.4,0,0,0,.07-.15c.12-.07.18-.05.25.07C9.16,37.89,9.19,38,9.22,38.11Z" fill="#936037"/><path d="M10.06,38.15c.07.16.07.22,0,.22s-.4-.13-.41-.09a0,0,0,0,0,0,0c-.19-.08-.39-.13-.4,0h0a.06.06,0,0,1,0,0,.07.07,0,0,0,0,0h0c0-.15.19-.06.41,0-.06,0,0,0,0,0a1.92,1.92,0,0,0,.36.13S10.08,38.26,10.06,38.15Z" fill="#936037"/><path d="M10.34,38a1.35,1.35,0,0,1-.06.31.06.06,0,0,1-.08,0l0,0a.48.48,0,0,1-.1-.15h0A.61.61,0,0,0,10,38c.07.19.16.26.2.2a1.77,1.77,0,0,0,.11-.5A.88.88,0,0,0,10.34,38Z" fill="#936037"/><path d="M10.49,37.76c0,.14-.07.25-.09.3h0l0,0s0,0,0-.1a.34.34,0,0,0,0-.1.06.06,0,0,1,0,0s0,0,0,0a1.52,1.52,0,0,0,.09-.26C10.46,37.77,10.47,37.79,10.49,37.76Z" fill="#936037"/><path d="M7.2,29.76l.13-.13.12-.12a.35.35,0,0,0,0,.08c-.18.3.37,0,.52.07a2.58,2.58,0,0,1,.51.28,6.61,6.61,0,0,1,2.07,2.75c.08.18.15.36.22.54v.05a.89.89,0,0,1,0,.29v.24c-.07-.09,0-.5-.07-.64a4.72,4.72,0,0,0-.24-.56,6,6,0,0,0-2.3-2.74c-.14-.08-.59,0-.43-.18C7.39,29.79,7,30.05,7.2,29.76Z" fill="#936037"/><path d="M10.71,34.26a1.2,1.2,0,0,1,.08-.32h0s.07,0,.12-.08a3.49,3.49,0,0,0-.17.34.52.52,0,0,0,0,.11A.14.14,0,0,1,10.71,34.26Z" fill="#936037"/><path d="M10.86,34.45l.2,0c-.16,0-.23.07-.23.13h0a.39.39,0,0,0,0,.06l0,.08a.4.4,0,0,1-.09-.15.1.1,0,0,1,0-.14l0,0Z" fill="#936037"/><path d="M11.05,35l0,0h0l.07.08c-.08,0-.1.06-.09.13h0a.09.09,0,0,0,0,0v0a1.15,1.15,0,0,0,0,.16s0,0,0,.07a.06.06,0,0,0,0,0,.68.68,0,0,0,0,.12,1.73,1.73,0,0,1-.12-.45C11,35.13,11,35,11.05,35Z" fill="#936037"/><path d="M11.18,35.68c0,.22,0,.36,0,.33a2.13,2.13,0,0,1,0,.31,4.07,4.07,0,0,1-.13.56s0,0-.07.14a2.22,2.22,0,0,1-.14.31c0,.05-.13.24-.12.17-.05.09-.1.23-.14.3h0v0s0,0,0-.08.08-.17.13-.25c0,.09.09-.14.14-.21a.48.48,0,0,1,.09-.13c.09-.22.18-.49.17-.43a2.26,2.26,0,0,0,.1-.5,2.93,2.93,0,0,0,0-.54h0Z" fill="#936037"/><path d="M11.17,35.66h0v0Zm-.1-.68,0,0h.07l0,0Zm-.14-.61-.08.07,0,0,0,0a.48.48,0,0,1,.16-.08s-.06,0-.08,0Zm-.07-.61h0l0,.07,0-.07Zm-.46,4.12s0,0,0,0a.06.06,0,0,0,0,0ZM8.77,38,8.86,38s0,0,0,0A.59.59,0,0,1,8.77,38ZM8.3,37.7l.06,0v0Zm-.6-1.16h0s-.1.06-.21.08a1.06,1.06,0,0,1,.26,0,.1.1,0,0,0,0-.07A0,0,0,0,0,7.7,36.54Zm-.28-.36-.14,0,.21.14Zm-.17-6.51h0l0-.06Zm-.35.18v-.13a.49.49,0,0,1,0,.12Zm-.07,4.91Zm-.27-5a1,1,0,0,1,.1.16v0Zm0,4.6,0,0-.1,0S6.52,34.37,6.54,34.39Zm-.17-4.28h0l-.11,0Zm-.15,4,0,0s0,0,0,0,0,0,0,0l-.08,0A0,0,0,0,0,6.22,34.06ZM6,33.73H6Zm0,0H6a.08.08,0,0,1,0,0Zm0,.11v-.07C6,33.87,6,33.9,6,33.81Zm5.17,1.87h0a2.93,2.93,0,0,1,0,.54,2.26,2.26,0,0,1-.1.5c0-.06-.08.21-.17.43a.48.48,0,0,0-.09.13c0,.07-.16.3-.14.21-.05.08-.09.2-.13.25v0s0,0,0-.14a1.52,1.52,0,0,1-.09.26v.18h0c0,.21,0,.07.12-.24a.29.29,0,0,0,0-.09.15.15,0,0,1,0,.07h0c-.06.31,0,0,.14-.22-.05.18.09-.13.13-.21a.69.69,0,0,1,.09-.15c.08-.22.16-.51.16-.46.06-.26.08-.39.1-.52s0-.26,0-.58Zm-.35-1.06h0v0a.11.11,0,0,1,0-.12.1.1,0,0,0,0,.14.4.4,0,0,0,.09.15h0l.21.21h0A2,2,0,0,1,10.83,34.62Zm.21.59a1.73,1.73,0,0,0,.12.45h0a.28.28,0,0,1,0-.12.06.06,0,0,1,0,0s0,0,0-.07,0-.13,0-.18a.09.09,0,0,1,0,0h0c0-.07-.05-.16,0-.2S11,35.13,11,35.21Zm-.29-1A1.05,1.05,0,0,1,10.8,34a.76.76,0,0,1,0-.11l-.05.1a1.2,1.2,0,0,0-.08.32.14.14,0,0,0,0,.06s.09.06.2,0h0l.1,0C10.83,34.35,10.76,34.31,10.75,34.21Zm-3-4.52c-.16.18.29.1.43.18a6,6,0,0,1,2.3,2.74,4.72,4.72,0,0,1,.24.56c.05.14,0,.55.07.64s.06,0,.12-.05h0l0-.08c-.09.08-.13,0-.15-.11s0-.22,0-.34,0-.13,0-.17l-.24-.59a6.13,6.13,0,0,0-2.37-2.83c-.14-.08-.47,0-.43-.19a1.57,1.57,0,0,0-.25.14l-.07,0-.07,0a.37.37,0,0,0-.06.1C7,30.05,7.39,29.79,7.7,29.69ZM10.36,38s0,0,0,0a.88.88,0,0,1,0-.27,1.77,1.77,0,0,1-.11.5c0,.06-.13,0-.2-.2a.61.61,0,0,1,0,.11h0c0,.11,0,.15,0,.16a1.92,1.92,0,0,1-.36-.13s-.08,0,0,0c-.22-.08-.41-.17-.41,0h0s0,0,0-.06-.06-.22-.06-.12c-.07-.12-.13-.14-.25-.07l-.05,0a.18.18,0,0,1,0,.12h0s0,0,0,0l-.05.08c.2-.18.3-.21.4,0,0-.09,0,0,.06.08v0s0,.07,0,.1c0-.15.25-.12.46,0h0a.05.05,0,0,1,0,0s.34.07.42.07.09,0,0-.14a.64.64,0,0,0-.06-.11,1,1,0,0,0,.1.14c.13.15.15.06.18-.23,0-.06,0-.13,0-.2A.34.34,0,0,1,10.36,38Zm-1.51-.08,0-.09c0-.09-.06-.15-.21-.12.09-.08,0-.1-.18-.06l-.13,0a.24.24,0,0,1-.08.16l.16-.05.16,0c.08,0,.11,0,.05.1C8.76,37.83,8.82,37.86,8.85,37.91Zm-.49-.26a.18.18,0,0,0,0-.18h0a.19.19,0,0,0-.11-.11h0c.09-.11-.06-.21-.2-.24s0,0-.05,0a.26.26,0,0,0-.2.12.78.78,0,0,0,.09-.32v0a.22.22,0,0,0-.12-.2h0l-.07,0c0,.06-.09.13-.22.22a.58.58,0,0,1,.28-.09.12.12,0,0,1,.08.06.11.11,0,0,1,0,.06,1.06,1.06,0,0,1-.1.42c.08-.12.19-.14.24-.11s0,0,0,0a.3.3,0,0,1,.19.14.15.15,0,0,1,0,.13A.25.25,0,0,1,8.36,37.65ZM7.7,36.54c0-.06,0-.13-.16-.22l0,0c0,.08,0,.11-.19.08l.22.08A.7.7,0,0,1,7.7,36.54Zm-.28-.36h0s-.11-.23-.21-.39h0l-.06-.09s0-.08,0-.16v0l-.08-.22C7,35.16,7,35,7,34.93a1.21,1.21,0,0,0-.1-.14l0,0c0,.06.14.29.18.45a2,2,0,0,1,.08.31c0,.09.14.27.12.31s0,0,0,0h0C7.23,36,7.35,36.08,7.42,36.18Zm-.29-6.36s.07-.09.12-.15-.13,0,0-.29c-.13.23-.21.39-.26.45l0,0s0,0,0,0V30C6.91,30.1,7,30,7.13,29.82Zm-.24,0a1.54,1.54,0,0,1-.06-.42c0,.38,0,.56-.06.53l0,0a3.8,3.8,0,0,1-.25-.34,1.64,1.64,0,0,1,.18.34l.09.13c.07.08.1.06.12-.06A.7.7,0,0,0,6.89,29.84Zm-.13,4.82s0-.08,0-.1a1.24,1.24,0,0,1-.18-.14l0,0c0,.06.15.2.28.35l-.06-.08Zm0-4.58A.57.57,0,0,0,6.66,30c0,.08,0,.09-.14.06l-.07,0-.29-.1c.18.09.23.16.21.21l.17,0C6.72,30.19,6.77,30.18,6.73,30.08Zm-.27,4.06a.32.32,0,0,1-.14,0l-.05,0c0,.1.07.16.21.23h0A.12.12,0,0,1,6.46,34.14Zm-.09-4a.57.57,0,0,1-.25.13l-.06,0h0l-.15.08c.15.11-.14.37-.19.6V31l.25.66c.07.21.14.41.19.6a1.47,1.47,0,0,1,.06.27,1.39,1.39,0,0,1,0,.27c0,.17-.09.52,0,.46A3.87,3.87,0,0,1,6,33.7s0,0,0,0H6s0,0,0,.05H6v0c0,.13.09.22.17.24h0a.46.46,0,0,1-.16-.26s0,0,0-.06H6a.14.14,0,0,0,0,.06,2.67,2.67,0,0,0,.15-.32h0s.09-.27.13-.41,0-.15,0-.23a2.6,2.6,0,0,0,0-.26,2.88,2.88,0,0,0-.09-.4,1.87,1.87,0,0,0-.13-.4,3.84,3.84,0,0,0-.14-.4c0-.12-.09-.23-.13-.35v0c.07-.2.43-.49.25-.53H6l.12-.05c.27-.11.49-.16.37-.26A.33.33,0,0,0,6.37,30.11ZM6,33.65a.75.75,0,0,1,0,.17c0,.07,0,0,0-.11a0,0,0,0,0,0,0v0S6,33.69,6,33.65Zm0,.17v0Z" fill="#936037"/><path d="M4.15,32.16l0,0h0Zm9.4,5.93a.36.36,0,0,0,.07-.49c.06,0-.08-.24,0-.55-.08.12-.14-.3-.14-.61-.09,0-.11-.35-.18-.51s-.15-.32-.23-.48a7.91,7.91,0,0,1-.9-1.79,8.87,8.87,0,0,0-.44-2.19,8.82,8.82,0,0,0-1.31-1.78l-.9-1.06a14.9,14.9,0,0,0-1.84-2c-.81-.63-1.6-.59-2.06,0-.1.13-.14.32-.22.44s-.24.06-.39.07c-.92.2-1.25,1.41-1.22,2.93,0,.2.1,1,0,.71.08.52.22.92.11.74.17.32.29.48.07.62.07,0,.12,0,.16,0s0-.3-.13-.58c0-.11,0-.29-.06-.52v.09s0-.62,0-.77,0-.38,0-.57a4.75,4.75,0,0,1,0-.54,2.48,2.48,0,0,1,.73-1.85A.69.69,0,0,1,5,27.26c.13,0,.3,0,.4-.1.34-1,1.26-1.25,2.23-.51a15.12,15.12,0,0,1,1.83,2c.51.65,1.29,1.52,1.77,2.2,1,1.37.35,2.19,1.07,3.54.22.41.47.79.69,1.19.07.13.13.29.2.41s0,.48.15.43c0,.33.06.72.13.59-.05.29.08.47,0,.52s.08.21-.06.47c.11-.11,0,.18-.11.42,0,0-.1.26-.15.38s-.15.35-.22.54c-.41,1.11-.76,2.37-1.58,2.83a.9.9,0,0,1-.36.08c-.13,0-.33,0-.39,0s-.53,0-.41-.12a.68.68,0,0,1-.43-.21h0c-.15-.13-.23-.29-.42-.28.09-.09-.17-.23-.45-.35.05-.07-.28-.28-.44-.42s-.3-.3-.44-.46a15.51,15.51,0,0,1-1.94-2.7,17.47,17.47,0,0,1-1.35-3c-.07-.21-.12-.44-.2-.63s0-.55-.17-.63c0-.29.1-.84-.15-.62.19-.38.11-.66-.08-.63a.85.85,0,0,1,0,.7c.22-.16.13.46.17.71s.13.46.2.68.14.44.21.66a16.27,16.27,0,0,0,3.4,5.69l.38.38c.13.11.42.27.38.34.24.11.53.22.39.31.25,0,.34.1.38.26,0-.1.21.24.48.27-.11,0,.24.21.48.17,0,.1.3.06.44,0a.88.88,0,0,0,.39-.11c.82-.49,1.18-1.73,1.62-2.82.07-.19.15-.37.23-.54a2.78,2.78,0,0,0,.15-.39C13.52,38.3,13.72,38,13.55,38.09ZM4,31.59c0,.15,0,.14,0,0Z" fill="#936037"/><path d="M5.17,26c.23-.79.62-1.62,1.41-1.25A8,8,0,0,1,8.8,26.34c.95.9,1.4,2.73,2.36,3.54.88.61,1.5.7,1.82,2.39.22.89.86,1.55,1.13,2.43a9.6,9.6,0,0,1,.34,1.73,3.52,3.52,0,0,0,.05.49c0,.2,0,1,.05.5,0,.65,0,.92,0,.48l0,.46-.06.42c.06-.41,0-.24-.14.38.13-.57-.1.07-.21.28,0,0-.15.19-.21.29-.39.77-.09,2.81-1,2.67.71,0,.65-1.31.76-2.18a1.89,1.89,0,0,1,.1-.44,1.61,1.61,0,0,1,.16-.35c.07-.12.43-.73.21-.29.28-.51.4-.75.17-.32.24-.45.25-.46.1-.4.15-.06.15-.07,0-.47.12.4,0,.14,0-.51,0,.56-.05-.3,0-.53a2.61,2.61,0,0,1,0-.54c0-.18-.05-.36-.08-.55a10.26,10.26,0,0,0-.24-1.1c-.25-.84-.91-1.57-1.1-2.46-.29-1.64-.89-1.71-1.74-2.33-1-.79-1.44-2.6-2.38-3.45a8.53,8.53,0,0,0-1.64-1.24,1.78,1.78,0,0,0-1-.39c-.48.06-.69.72-.93,1.18Z" fill="#936037"/><path d="M7,37.12a3.38,3.38,0,0,1,.38.6c.13.19.26.37.4.54l.28.31a2.83,2.83,0,0,1,.29.27c.15.11.36.25.29.23.19.1.29.2.22.15.15.1.2.16.22.12s.09.13.22.1c-.07.05,0,.11.21.07-.13.06,0,.05.25,0-.11,0,0,0,.16.07,0,0,.21-.18.28-.22s.13,0,.11.17c.16-.41.24-.47.37-.06,0-.43.1-.31.37-.09-.12-.27.13-.17.32-.18,0-.13.16-.19.24-.33s.07-.2.1-.31l.09-.34.09-.33c.06-.16.24-.39.23-.4.18-.15.45-.25.37-.11.16-.12.17-.1,0,0,.08-.13-.17,0-.32.18,0,0-.14.26-.19.42a4.66,4.66,0,0,1-.16.74,1.89,1.89,0,0,1-.21.49c-.09.12-.23.17-.3.27s-.39-.12-.41.12c-.21-.21-.36-.3-.57,0,0-.16-.06-.19-.14-.16s-.3.15-.26.15c-.14,0-.3,0-.18-.05-.23.05-.37.05-.24,0-.21,0-.28,0-.21-.05a.28.28,0,0,1-.22-.08s-.07-.05-.23-.1c.09,0,0-.06-.23-.13.08,0-.1-.11-.27-.22,0,0-.18-.16-.27-.26a2.68,2.68,0,0,1-.28-.3l-.25-.33a5,5,0,0,1-.31-.49A2.2,2.2,0,0,0,7,37.12Z" fill="#936037"/><path d="M9.63,30.35c-2-3-4-2.87-4.68-.46,0,.14-.08.29-.11.45a3.09,3.09,0,0,0-.06.5c0,.19-.35.77,0,.54-.33.39-.12.85,0,.56a.53.53,0,0,0,.06.57.55.55,0,0,1-.13-.61c-.14.3-.43-.18-.06-.6-.37.29,0-.35,0-.57a3.37,3.37,0,0,1,0-.52c0-.17.07-.32.11-.47.56-2.26,3.13-2.54,4.81.61Z" fill="#936037"/><path d="M5.53,24l-.48,0c-.17,0-.49.11-.48.1-.27.08-.84.38-.44.17-.44.23-.47.45-.39.29-.08.16-.06.37-.29.44.22,0,.09.41-.17.62.22,0,.05.36-.08.61.09.09-.05.41-.07.61s0,.41-.07.62C3,28.31,2.9,29.15,2.8,30a10.8,10.8,0,0,0,0,3.11A15.6,15.6,0,0,0,7,40.62c.42.46,1,1.09,1.46,1.65l.37.39c.12.12.31.22.33.34.2.08.69.27.37.32.42,0,.62.1.37.25.26-.14.3,0,.37.17-.07-.21-.07-.21,0,0,0-.22-.06-.31.21-.35-.26,0-.11.12.34-.09-.39.21.16.13.41.19-.14,0-.14,0,0,0-.26-.06-.8,0-.4-.16-.46.19-.6.13-.32.12-.28,0-.26.11-.18.37-.08-.26-.12-.36-.37-.16.24-.2.06-.24-.39-.24.36-.07-.19-.23-.38-.31s-.25-.24-.38-.37l-.37-.39L8,42c-.72-.79-1.44-1.6-2.16-2.44a14.62,14.62,0,0,1-3.09-6.49,12.12,12.12,0,0,1,0-3.13c.08-1,.16-2,.25-3,0-.2.06-.43,0-.59s.21-.49.07-.59c.19-.2.43-.67.11-.54.34-.23.42-.46.17-.47.26,0,.25-.11.26-.35,0,.24,0,.05.41-.27-.35.3.19-.06.46-.15,0,0,.33-.05.5-.06a4.19,4.19,0,0,1,.5,0Z" fill="#936037"/><path d="M15.22,38.24h0Zm0,.72h0v0Zm-.06.7c0,.22-.07.44-.12.66a8.52,8.52,0,0,1-2.26,4.41,2.23,2.23,0,0,1-2.45.47A3.31,3.31,0,0,1,9.83,45c-.16-.09-.32-.2-.48-.31a8.36,8.36,0,0,1-1.49-1.49C4.08,38.77,1,34.23,1.68,28.4a20.22,20.22,0,0,1,.65-3.69c.06-.18.13-.35.2-.51s.19-.29.25-.44a1,1,0,0,0,.3-.34c.15,0,.24-.17.37-.26s.25-.15.38-.22l.38-.2c.48-.37,1.19-.07,1.87.42A28.64,28.64,0,0,1,8.8,25.41a10,10,0,0,1,1.94,2.19c.38.62.65,1.35,1.07,1.92s.9.89,1.33,1.39a10.9,10.9,0,0,1,1.92,5c0,.28.08.56.11.83s0,.55.05.79-.49.77,0,.75l.13-.07c-.41,0,0-.47,0-.72s0-.5-.05-.75-.06-.52-.1-.78a11,11,0,0,0-2-5.09c-.44-.5-.91-.79-1.33-1.35s-.7-1.29-1.08-1.9A9.5,9.5,0,0,0,8.8,25.4a32.89,32.89,0,0,0-2.72-2.3c-.68-.51-1.43-.83-1.92-.47a3.77,3.77,0,0,0-1.47,1c-.77,1.08-.94,2.95-1.16,4.67C.85,34.2,4,38.84,7.83,43.27c1.92,2.35,3.63,2.7,5,1.54a8.57,8.57,0,0,0,2.37-4.66,5.93,5.93,0,0,0,.1-.63c0-.14-.09-.41-.07-.56C14.89,38.82,15.16,39.44,15.13,39.66Zm.08-1.41c-.48.14-.32.3,0,.7a.1.1,0,0,1,.13-.09C15.09,38.58,15,38.42,15.21,38.25Z" fill="#936037"/><path d="M8.26,22.28C5.09,20.08,2.33,20.65,1,23.34c-.09.16-.17.34-.25.52s-.23,1.1-.2.58c-.07.63,0,.91-.18.62.2.3.2.35-.14.67.33-.28,0,.43-.1.72s0,.5-.06.76,0,.53,0,.8a16.11,16.11,0,0,0,.1,1.82c0,.2,0,.58.07.61,0,.31,0,.8.09.62-.06.34.12.51.11.62a1.1,1.1,0,0,1,.13.62c.06-.09.1.4.15.63s.11.41.16.62c.12.41.25.83.39,1.24.06.2.14.41.21.61s.31.6.23.61c.2.29.48.59.25.6.27.08.36.25.26.6.13-.29.37.39.27.59.11-.18.24.33.29.58,0-.25,0,0,.3.56-.26-.51.18.21.31.56,0-.06.21.37.32.55l.34.53A18.84,18.84,0,0,0,7,44.2l.42.36c.15.11.68.14.42.34.4-.1.62-.08.42.31.25-.36.39,0,.54.35,0-.16,0-.12.18,0s.37.17.34.31a.24.24,0,0,1,.16-.11c.06,0,.2.11.06.2.22-.06.7.12.25-.12.48.26.62.43.05.27.58.16.63.17.1-.17.53.34.59.49.12.25.47.25.51.33.15,0,.36.36.47.53.14.15.33.38.41.47.14,0,.27.44.34.52.16,0,.18.47.28.52.19.06.09.46.16.48.14.06,0,.42.14.38.34,0-.19.35.31.28.29.12.07.17.34.09.18-.08.18.17.56.13.41.19.2,0,.23-.08,0-.2.2.12.34.13.3.28.07-.15.19-.22.13-.33a.3.3,0,0,1,.05.24c0-.07.11-.14.2-.21s.25-.25.17-.14c.1-.09-.11.1-.12.13s.29-.34.23-.13c.2-.28.39-.5.15-.06.26-.45.22-.41,0,0,.24-.42.46-.61.18-.11.29-.51.29-.51,0,0,.32-.53.42-.53.14,0,.27-.53.42-.55.17-.13.25-.42.23-.39,0,.11.22-.5.29-.53,0-.14.25-.39.14-.4-.15,0,.29-.43.5-.44.28-.08.23-.36.25-.33.15.17.1-.5.17-.56-.05-.22.22-.34.07-.3-.19,0,.26-.33.46-.4.26-.06.21-.34.19-.28.14.23,0-.51.21-.66,0-.34.2-.32.11-.27-.14,0,.25-.25.38-.33.18,0,.2-.32.06-.19,0,.33,0-.52.23-.71,0-.39.18-.33.1-.27-.15,0,.25-.25.39-.36.2,0,.19-.32,0-.14,0,.34.05-.48.39-.81.26-.48.14-.34.07-.27-.16,0,.23-.25.39-.42.26-.08.13-.33-.18,0-.28.4.1-.42.48-.8.35-.46.13-.35,0-.22-.23,0,.24-.24.47-.47.31-.1.16-.36-.21,0-.36.36.15-.36.62-.81.42-.44.2-.38,0-.2-.21.08.21-.28.56-.57.29-.19.27-.38-.17,0-.39.26.22-.26.78-.73.43-.44.36-.29.18-.18-.15.09.33-.27.58-.43.18-.24.4-.19-.07.15-.37.32.3-.17.78-.52.38-.37.41-.16.28-.08-.09.19.37-.27.52-.36.1-.35.42,0,.13.17-.28.25.41-.08.7-.27.28-.36.42.08.47.06.11.13.36-.07.3-.05-.12-.26.41.2.31.27-.15.17.46.1.56,0,.16-.21.41.24.51.2.23.08.28.12.16.15-.23-.16.38.3.37.31,0,0,.4.29.42.28.05,0,.38.33.49.29.36-.06.13.35,0,.38-.35,0,.35.37.33.3.08-.16.25.46.27.51,0,.1.33.41.42.35.42-.16,0,.51-.08.55-.39.11.29.43.2.22.12-.3.09.51.16.65-.05.17.25.48.31.29.43-.22-.12.51-.18.61-.35.11.13.47,0,.05.08-.31,0,.34,0,.48,0,.1.11.34.23.07.35-.14-.12.19-.2.14-.26,0,0,.11,0-.09,0-.18s0,0,.08,0a.8.8,0,0,1,.28,0,.37.37,0,0,1-.16-.1.47.47,0,0,1-.09-.12.22.22,0,0,1,0-.23.51.51,0,0,1,.34-.13c-.43-.12-.37-.17,0,.05-.39-.23-.2-.51.05-.68-.25,0-.15,0,.08.11-.23-.09-.26-.16-.1-.32-.14,0,.07-.15.21-.29-.14.14-.15.14-.11,0s.12-.34.19-.66c-.12.42,0-.44,0-.67s0-.46,0-.7a18.28,18.28,0,0,0-.17-2.43l-.09-.62c0-.21-.42-.92-.11-.62-.34-.47-.59-.63-.13-.62-.47,0-.43-.07-.15-.63-.29.5-.12-.34-.17-.62,0,0,0-.21-.09-.31l-.09-.31c-.06-.21-.16-.41-.2-.62a1.21,1.21,0,0,1-.21-.61c-.16-.16-.45-.45-.23-.61-.33-.1-.57-.37-.25-.6-.38.1-.51-.33-.26-.6-.28.19-.4-.37-.27-.59-.14.2-.22-.24-.29-.58.07.34-.06-.11-.3-.56.24.45,0,0-.31-.56.25.45-.11-.15-.23-.34,0,0-.13-.2-.09-.2-.24-.27-.38-1-.34-.54-.06-.48.12-.84-.34-.51.45-.35,0-.28-.36-.5.24,0-.24-.33-.37-.49s-.24-.31-.37-.46A15,15,0,0,0,8.26,22.28ZM12,45c.21-.1.27-.14.17,0,0-.18-.22-.16-.37,0,.12-.13.13-.14.06,0a.18.18,0,0,0-.15-.12c-.07,0-.17.07-.11.11s-.15-.09-.15-.17-.21.2-.06.14c-.18.05-.24,0-.21-.21-.1.15-.17.37,0,.17-.19.2-.22,0-.23-.22-.07.22-.1.48,0,.16-.13.31-.16.06-.2-.17,0,.22,0,.42,0,.11,0,.31-.07.12-.16-.1,0,.21-.1.1-.2,0,.1.13.1.22,0,.07,0,.14-.19-.06-.33-.23.14.17.21.31.14.25s-.15-.11-.32-.34c.16.23.21.33.17.31a2.2,2.2,0,0,1-.36-.41c.34.48-.11,0-.3-.13,0,.08-.16-.08-.06-.08-.36-.09-.67-.57-.37-.25-.32-.34-.29-.6-.29-.2,0-.4,0-.46-.29-.23.29-.24.17-.17-.28-.23.41,0,.11,0-.21-.19.23.06-.13-.12-.21-.18a2.37,2.37,0,0,1-.21-.33c-.07-.1-.14-.17-.2-.07-.07-.39,0-.94-.41-.42.29-.6.08-.55-.39-.45.33-.25-.25-.31-.38-.47l-.38-.48a2.08,2.08,0,0,0-.27-.38c-.08-.18-.15-.54-.27-.39,0-.34-.11-.59-.26-.4.06-.32-.21-.48-.26-.41,0-.16-.18-.23-.16-.28a.23.23,0,0,1-.16-.28c-.1.09-.2-.05-.14-.31-.12.14-.2,0-.18-.26-.09.12-.07-.17-.09-.34-.06,0-.11-.17-.21-.24A.53.53,0,0,0,3.56,37a1,1,0,0,1-.19-.29.64.64,0,0,1-.14-.3.38.38,0,0,1-.13-.3,2,2,0,0,1-.24-.56c-.08-.18-.15-.38-.22-.57s-.14-.38-.2-.57,0-.23-.08-.39,0-.38-.08-.4,0,0,0,.21c0-.38.12-.79,0-.66.1-.24,0-.14-.2.08.2-.22.31-.39.17-.25a.25.25,0,0,0-.33-.33c.17-.1.29,0,.16.16.13-.17,0-.28-.1-.2.08-.21-.13-.4-.2-.54.08.17.08.13,0,0s-.17-.32-.15-.58c-.06.07-.08-.34-.1-.58a5.27,5.27,0,0,1-.1-.58q-.08-.57-.12-1.14c0-.21,0-.41,0-.62s.14-.59,0-.61c.15-.35.22-.76,0-.84.2-.14,0-.57.07-.78-.07.06-.09-.39.13-.71-.16,0,.1-.45.17-.65a5.14,5.14,0,0,1,.22-.59,2.87,2.87,0,0,1,2.68-2,4,4,0,0,1,.82.09,3.31,3.31,0,0,1,.42.12c.16,0,.82.36.44.17.48.23.83.43.45.21.38.22.71.64.46.26.25.38.43.75.46.3,0,.45.12.61.44.31-.29.33.1.47.42.35-.16.25.21.48.42.37,0,.29.19.52.41.4,0,.3.25.85.4.42,0,.56.1,1,.4.45-.27.6-.1.72.38.47-.28.22-.14.35.07.42a2,2,0,0,0,.31.07c0,.11.18.36.1.29.2.21.59.48.26.21.36.31.47.37.15.29.33.09.35.07.2.24.15-.17.11-.06.15.29,0-.35,0-.19.19.25-.23-.44-.13-.17.08.39-.2-.54-.06-.26.25.17-.29-.39-.1.07.05.34,0-.15.19.14.27.23l.15.29c0,.05,0,.1.07.14l.08.15c.09.18.27.39.26.56.17.17.51.42.26.56.34.08.53.44.24.58.36,0,.46.47.23.58.29,0,.37.57.21.58.21.12.26.66.19.59.05.09.1.32.14.4s0,.39,0,.19c0,.24.07.67.12.45,0,.35,0,.42,0,.15a1.68,1.68,0,0,0,.07.61c0-.15.06-.15.07,0,0-.15,0,.15,0,.52,0-.18,0,.13,0,.27,0-.09.12-.34.14-.19-.09,0-.15.38-.14.46s.09.11.25.13c-.31,0-.2.08.09.59-.27-.38.05.39.07.59s0,.39,0,.58c0,.39.05.77.05,1.15s0,.49,0,.72l0,.36c0,.12,0,.23,0,.32s0,.43,0,.34c0,.27.1.71-.08.29.17.5.24.83,0,.3a1.67,1.67,0,0,1,.15.52c0,.07-.1,0-.28-.23.17.24.19.47.25.45-.09.13-.26.16-.32-.18.06.34.09.53.27.4-.2.2-.49.26-.36-.13-.18.35-.06.42.23.22-.25.26-.26.33,0,.15-.31.21-.43.23-.12.05-.35.17-.56.09-.27-.09-.3.18-.16.27.17.18-.31.11-.24.19.08.15-.33.05-.52-.08-.26,0-.28-.09-.38-.15-.13,0-.25-.12-.16-.06.07.12-.22-.17-.06,0,.14.17-.21-.2-.4-.34-.27,0-.15-.31-.19-.33-.1,0-.09-.36-.06-.33,0,0-.06-.37.14-.19.16.2,0-.38-.22-.52-.27-.09a1,1,0,0,0,0-.3s-.14.31-.06.39c-.08-.08,0-.36,0-.37s-.16.29-.08.33c-.07,0,.12-.26.16-.21s-.09.37,0,.43c-.09-.06,0-.34,0-.37s-.41.43-.23.25c-.19.18,0-.24.07-.25s-.38.66-.07.38c-.31.28,0-.2,0-.34-.1.11-.4.65-.15.25-.25.41-.06.13.13-.1-.17.32-.43.73,0,.36-.42.38-.35.24-.07-.22-.32.45-.44.67-.17.11-.27.55-.3.77,0,.22-.36.55-.37.5-.22-.14-.15.64-.13.86.09.23-.22.63-.24.58-.22-.07,0,.65.06,1,0,.3,0,.67,0,.45-.24-.16.2.61.25.81,0,.22.21.59.14.3-.23-.21.36.51.41.71,0,.27.41.44.36.26-.08-.18.44.44.53.74.2.24.33.5.22.15-.32-.16.52.31.48.35-.1.25.57.1.44-.07-.08-.2.53.13.74.41.19.19.55.22.25-.06-.25-.11.46.08.3.16-.06.27.35-.09.33-.19,0-.21.37,0,.71.15.16.12.55,0,.16-.09-.18,0,.29,0,.1.15-.06.25.12-.16,0-.31-.06-.14.07-.17,0,0,0,.19a.19.19,0,0,0-.07-.2s-.08,0-.16,0c.07-.07.12-.09.13-.06s0,.08,0,.16c0-.09-.05-.14-.11-.15A.5.5,0,0,0,12,45Z" fill="#ecd6b9"/><ellipse cx="21.56" cy="47.14" rx="6.99" ry="13.55" transform="translate(-16.27 11.71) rotate(-22.3)" fill="#e9cfad"/><polygon points="15.33 35.29 15.33 35.29 15.34 35.29 15.33 35.29" fill="#683c11"/><polygon points="15.33 35.29 15.33 35.29 15.34 35.29 15.33 35.29" fill="#683c11"/><path d="M60,31.92c0,3.47-1.11,5.81-2.87,6.69l-2.59,1.81-2.45,1.7L46.47,46l-.41.29-1.72,1.2-6,4.15-2.3,1.6-.66.46L27.5,59.21c1.43-1.06,2.32-3.25,2.32-6.34,0-6.33-3.7-14-8.26-17.2-2.08-1.44-4-1.69-5.43-.93L45.84,14.08,46,14l0,0c1.49-1,3.51-.79,5.74.76a17.64,17.64,0,0,1,5,5.74,25.73,25.73,0,0,1,2.56,6.2A20.7,20.7,0,0,1,60,31.92Z" fill="url(#Безымянный_градиент_16)"/><path d="M44.45,10.3c.44,1.15,2,2.83,4.49,7,1.41,2.4,1.72,3.27,2.36,4.09,1.26,1.6,2.07.86,1.06-1.61a34.2,34.2,0,0,0-6.52-9.36C44.94,9.65,44.07,9.29,44.45,10.3Z" fill="#9d9d9c"/><path d="M42.66,23c.73,1.4,1.06,1.27,2.15,3.22.37.65.8,1.56,1.68,3.4,1.13,2.38,1.37,3,1.65,3.4.48.68.5-.1.4-.76a29,29,0,0,0-2.48-6.74,39,39,0,0,0-2.68-4.83c-.83-1.23-1.88-2.45-2-1.64A10.63,10.63,0,0,0,42.66,23Z" fill="#878787"/><path d="M25.78,34.26a23.13,23.13,0,0,0,1.73,2.84A18.36,18.36,0,0,0,29,39.54c.19,0-.12-1.24-.58-2.41A10.62,10.62,0,0,0,26.51,34C26.06,33.63,25.66,33.73,25.78,34.26Z" fill="#c6c6c6"/><path d="M30.63,31.42c.58,1.2,1.13.82,2.6,3.42.88,1.57,1.3,2.79,1.85,3.59s.88.5.37-1a34.81,34.81,0,0,0-2.73-5.37c-.18-.3-1.7-2.79-2.27-2.79C30.06,29.32,30.18,30.49,30.63,31.42Z" fill="#9d9d9c"/><path d="M19.47,47.22l.08,0v0a.06.06,0,0,1-.06,0h0a.33.33,0,0,1-.16-.27s0-.05,0-.07l0,0h0s.13-.25.22-.47c0,0,.06-.3,0-.47a1.13,1.13,0,0,0,0-.25,1.31,1.31,0,0,0-.06-.27c0-.19-.12-.39-.19-.6s-.17-.44-.25-.68l.06-.24c0-.08.14-.18.24-.26s-.18.33-.25.53l.13.36c.05.13.1.26.14.39a2.67,2.67,0,0,1,.13.4,2.88,2.88,0,0,1,.09.4,2.6,2.6,0,0,1,0,.26c0,.09,0,.21,0,.23s-.12.37-.13.41a0,0,0,0,0,0,0v0a2,2,0,0,1-.15.32.42.42,0,0,0,.15.26Z" fill="#936037"/><path d="M19.72,47.48c-.1,0-.16-.11-.15-.19a.8.8,0,0,0,.15,0A.11.11,0,0,0,19.72,47.48Z" fill="#936037"/><path d="M19.75,43.35c.12.09-.1.15-.37.26.07-.08.09-.15-.06-.18h0l.1,0Z" fill="#936037"/><path d="M19.8,43.32s0-.08-.1-.16h0l-.15-.1.22.12h0c.12.06.19.09.22.08S20,43.36,19.8,43.32Z" fill="#936037"/><path d="M20,47.82c-.09-.09-.18-.18-.18-.22l.18.14S20,47.78,20,47.82Z" fill="#936037"/><path d="M20.13,43.17c0,.12-.05.14-.12.06s0-.06,0-.13a3.05,3.05,0,0,0-.11-.29c.07.15.11.25.15.32S20.11,43.21,20.13,43.17Z" fill="#936037"/><path d="M20.16,43.12l0-.08c0-.09,0-.21.08-.36a1.26,1.26,0,0,0,0,.33c0,.1.05.08.15,0C20.22,43.22,20.16,43.27,20.16,43.12Z" fill="#936037"/><path d="M20.33,48.44c0,.07.06.17.09.26,0-.12-.1-.24-.12-.31s-.17-.34-.19-.43l.1.14A2.36,2.36,0,0,0,20.33,48.44Z" fill="#936037"/><path d="M20.7,49.34c-.08-.1-.18-.21-.26-.33h0s0,0,0,0C20.59,49.12,20.75,49.31,20.7,49.34Z" fill="#936037"/><path d="M20.94,49.71a1.9,1.9,0,0,0-.32-.09.32.32,0,0,0,.16,0s0-.06,0-.11.19.16.15.21,0,0,0,0Z" fill="#936037"/><path d="M21.19,50v0h0a.33.33,0,0,0-.26.12.86.86,0,0,0,.15-.23.22.22,0,0,0,0-.1A.2.2,0,0,1,21.19,50Z" fill="#936037"/><path d="M21.55,50.53l-.05,0a.3.3,0,0,0-.25.13,1,1,0,0,0,.05-.28v-.1s.05,0,.05,0S21.63,50.41,21.55,50.53Z" fill="#936037"/><path d="M21.56,50.59a0,0,0,0,0,0-.05.24.24,0,0,1,.1.1A.31.31,0,0,0,21.56,50.59Z" fill="#936037"/><path d="M22,51c.08-.09,0-.1-.13-.06l-.22.08s0,0,.06-.06a.23.23,0,0,0,.05-.15c.16,0,.27,0,.18.06.15,0,.22,0,.2.13A.14.14,0,0,0,22,51Z" fill="#936037"/><path d="M22.47,51.26c0-.06,0-.08,0,0-.1-.16-.18-.14-.36,0l0,0,0,0h0a.32.32,0,0,0,.06-.16c.12-.07.19-.05.26.07C22.42,51.07,22.45,51.14,22.47,51.26Z" fill="#936037"/><path d="M23.32,51.33c.07.16.07.21,0,.22s-.39-.14-.39-.1l0,0c-.2-.07-.39-.12-.4,0v0a.2.2,0,0,1,0-.07v0h0c0-.16.2-.06.41,0-.06,0,0,0,0,0a1.92,1.92,0,0,0,.36.13S23.33,51.43,23.32,51.33Z" fill="#936037"/><path d="M23.6,51.18a1.35,1.35,0,0,1-.06.3.05.05,0,0,1-.07,0l0,0a.57.57,0,0,1-.11-.14h0s0-.07,0-.12c.05.19.15.26.19.2a1.77,1.77,0,0,0,.11-.49A.88.88,0,0,0,23.6,51.18Z" fill="#936037"/><path d="M23.75,50.93c0,.14-.07.25-.09.3h0s0,0,0,0,0,0,0-.1a.23.23,0,0,0,0-.1s0,0,0,0v0l.08-.27C23.72,50.94,23.73,51,23.75,50.93Z" fill="#936037"/><path d="M20.45,43h0l.15-.15.11-.1-.05.07c-.18.31.37,0,.52.07a2.65,2.65,0,0,1,.51.29,6.51,6.51,0,0,1,2.07,2.74l.22.55v0a.89.89,0,0,1,0,.29V47c-.07-.08,0-.5-.07-.64a5.55,5.55,0,0,0-.24-.56,5.93,5.93,0,0,0-2.3-2.73c-.14-.08-.59,0-.43-.19C20.65,43,20.31,43.21,20.45,43Z" fill="#936037"/><path d="M24,47.43a1.07,1.07,0,0,1,.08-.31h0a.19.19,0,0,0,.12-.07,2.65,2.65,0,0,0-.17.33.52.52,0,0,0,0,.11A.08.08,0,0,1,24,47.43Z" fill="#936037"/><path d="M24.12,47.62l.2,0c-.16,0-.23.07-.23.13a.19.19,0,0,0,0,.07l0,.08a.3.3,0,0,1-.09-.15s0-.09,0-.14l0,0Z" fill="#936037"/><path d="M24.31,48.17s0,0,0,0,0,0,0,0a.46.46,0,0,1,.07.07c-.08,0-.11.06-.1.13h0v0l0,0a1.62,1.62,0,0,0,0,.2.19.19,0,0,0,0,.07.86.86,0,0,0,0,.13,1.83,1.83,0,0,1-.12-.46C24.26,48.31,24.25,48.19,24.31,48.17Z" fill="#936037"/><path d="M24.43,48.85c0,.2,0,.34,0,.34a1.92,1.92,0,0,1,0,.3,3.76,3.76,0,0,1-.13.56s0,.05-.07.14a3.09,3.09,0,0,1-.14.32s-.13.23-.12.16c-.05.09-.1.23-.14.3h0c0,.05,0,0,0-.07s.08-.17.13-.25c0,.09.09-.13.14-.21s.07-.13.09-.13c.09-.22.18-.48.17-.43a2.26,2.26,0,0,0,.1-.5,4,4,0,0,0,0-.45v0a.15.15,0,0,0,0-.07h0Z" fill="#936037"/><path d="M24.42,48.84h0v0Zm-.09-.68s0,0,0,0h.07l0,0Zm-.14-.61-.08.06,0,0,0,0h0l.16-.08h-.09Zm-.07-.62h0s0,0,0,0,0,0,0,0Zm-.45,4.13v0s0,0,0,0ZM22,51.19l.09-.07s0,0,0,0A.38.38,0,0,1,22,51.19Zm-.41-.34v0l-.06.06ZM21,49.7h0s-.09.06-.2.08a.71.71,0,0,1,.26,0,.08.08,0,0,0,0-.07S21,49.71,21,49.7Zm-.27-.35h0a.47.47,0,0,1-.14-.05l.2.14Zm-.17-6.51h0l0-.06Zm-.35.18v-.1a.28.28,0,0,1,0,.09Zm-.07,4.92h0Zm-.18-4.84L19.82,43a1,1,0,0,1,.1.16v0Zm-.1,4.47s0,0,0,0l-.11,0Zm-.18-4.29h0l-.11,0Zm-.15,3.95.05,0a.06.06,0,0,1,0,0v0l-.08,0Zm-.19-.33Zm0,0h0v0h0a.08.08,0,0,1,0,0Zm0,.12s0,0,0-.07C19.24,47,19.25,47.07,19.27,47Zm5.16,1.87h0a.15.15,0,0,1,0,.07v0a4,4,0,0,1,0,.45,2.26,2.26,0,0,1-.1.5s-.08.21-.17.43c0,0-.05.06-.09.13s-.16.3-.14.21c-.05.08-.1.2-.13.25v0s0,0,0-.14l-.08.27a1.16,1.16,0,0,0,0,.17h0c0,.22,0,.07.12-.25a.19.19,0,0,0,0-.08.15.15,0,0,1,0,.07c-.06.31,0,0,.14-.21-.05.18.09-.14.13-.22a.69.69,0,0,1,.09-.15,3.27,3.27,0,0,1,.16-.45c.06-.27.08-.4.1-.53s0-.26,0-.57Zm-.13-.47a1.83,1.83,0,0,0,.12.46h0a.86.86,0,0,1,0-.13.19.19,0,0,1,0-.07c0-.08,0-.16-.05-.23v0h0a.2.2,0,0,1,0-.2C24.25,48.19,24.26,48.31,24.3,48.38Zm-.21-.6h0a.12.12,0,0,1,0-.13c-.05,0-.06.1,0,.14a.3.3,0,0,0,.09.15h0l.21.22h0A1.5,1.5,0,0,1,24.09,47.78Zm-.08-.4a1.14,1.14,0,0,1,0-.26l.05-.15-.06.15a1.07,1.07,0,0,0-.08.31.08.08,0,0,0,0,.06s.09.06.2.06h0l.1-.06C24.09,47.52,24,47.48,24,47.38ZM20.45,43c-.14.26.2,0,.51-.09-.16.18.29.11.43.19a5.93,5.93,0,0,1,2.3,2.73,5.55,5.55,0,0,1,.24.56c.05.14,0,.56.07.64s.06,0,.12,0h0l0-.08c-.09.09-.13,0-.15-.11s0-.22,0-.33,0-.14,0-.18l-.24-.59a6.13,6.13,0,0,0-2.37-2.83c-.14-.08-.47,0-.43-.19a1.57,1.57,0,0,0-.25.14l-.06,0-.09.05a.37.37,0,0,0-.06.1Zm3.17,8.21a0,0,0,0,1,0,0,.88.88,0,0,1,0-.27,1.77,1.77,0,0,1-.11.49c0,.06-.14,0-.19-.2,0,0,0,.09,0,.12h0c0,.1,0,.14,0,.15a1.92,1.92,0,0,1-.36-.13c-.05,0-.08,0,0,0-.21-.07-.41-.17-.41,0a.29.29,0,0,0,0-.09c0-.12,0-.19,0-.1-.07-.12-.14-.14-.26-.07l0,0a.21.21,0,0,1,0,.13h0a0,0,0,0,1,0,0,.22.22,0,0,1-.05.08c.2-.18.3-.21.4,0,0-.09,0,0,.06.06a.09.09,0,0,0,0,0s0,.07,0,.1c0-.15.25-.12.46,0a.06.06,0,0,1,0,0c.05-.05.34.07.42.07s.08,0,0-.13l-.07-.11a1.1,1.1,0,0,1,.11.14c.12.14.14,0,.17-.24,0-.06,0-.12,0-.2A.23.23,0,0,1,23.62,51.16Zm-1.51-.08a.31.31,0,0,0,0-.08c0-.1-.05-.16-.2-.13.09-.08,0-.1-.18-.06l-.13,0a.27.27,0,0,1-.08.16l.16,0,.16,0c.08,0,.11,0,.05.09C22,51,22.08,51,22.11,51.08Zm-.49-.26a.18.18,0,0,0,0-.18.24.24,0,0,0-.1-.1h0c.08-.12-.07-.22-.2-.25s0,0-.05,0a.25.25,0,0,0-.2.13.82.82,0,0,0,.09-.33v0a.2.2,0,0,0-.12-.19h0l-.06,0a.49.49,0,0,1-.22.21.52.52,0,0,1,.27-.08.09.09,0,0,1,.09.05.14.14,0,0,1,0,.06.89.89,0,0,1-.1.42c.08-.12.19-.14.24-.11h0a.33.33,0,0,1,.19.14.15.15,0,0,1,0,.13A.27.27,0,0,1,21.62,50.82Zm-.82-1.33-.06-.05c0,.08,0,.11-.19.08l.23.08a.75.75,0,0,1,.17.1C21,49.65,20.92,49.58,20.8,49.49ZM20.41,49l.27.34h0c.05,0-.11-.22-.21-.38h0l-.06-.09s0-.07,0-.15h0c0-.09-.07-.19-.09-.26a2.36,2.36,0,0,1-.12-.34l-.1-.14,0,0c0,.05.14.28.18.45a1.57,1.57,0,0,1,.08.31c0,.08.13.25.11.3s0,0,0,0Zm0-6,.13-.16c-.1,0-.13,0,0-.29a4.33,4.33,0,0,1-.25.46l0,0,0,0v.1C20.16,43.27,20.22,43.22,20.38,43Zm-.46.1a.92.92,0,0,0,.09.13c.07.08.1.06.12-.06a.63.63,0,0,0,0-.16,1.54,1.54,0,0,1-.06-.42c0,.38,0,.55-.06.54l0,0a2.62,2.62,0,0,1-.26-.34,1.64,1.64,0,0,1,.18.34Zm.1,4.64-.18-.14h0l0,0s.13.2.27.35a.37.37,0,0,1-.06-.1S20,47.75,20,47.74Zm0-4.48a.45.45,0,0,0-.07-.14c0,.08,0,.09-.15.06h0l-.07,0h0l-.28-.1c.18.1.23.16.21.21l.17,0h0C20,43.36,20,43.36,20,43.26Zm-.27,4.06a.8.8,0,0,1-.15,0l0,0c0,.09.07.16.2.22h0A.11.11,0,0,1,19.72,47.32Zm-.09-4a.57.57,0,0,1-.25.13l-.06,0-.15.08c.15.11-.14.38-.19.6v0l0,0c.08.23.17.45.25.66s.14.41.19.6l.06.28a2.6,2.6,0,0,1,0,.26c0,.17-.09.52,0,.47a4.41,4.41,0,0,1-.19.43v0h0V47c0,.14.09.22.17.24h0a.42.42,0,0,1-.15-.26s0,0,0-.06a.11.11,0,0,0,0,.06,2,2,0,0,0,.15-.32h0s.09-.27.13-.41,0-.14,0-.23a2.6,2.6,0,0,0,0-.26,2.88,2.88,0,0,0-.09-.4,2.67,2.67,0,0,0-.13-.4c0-.13-.09-.26-.14-.39l-.13-.36v0c.07-.2.43-.48.25-.53h-.07l.12,0c.27-.11.49-.17.37-.26A.31.31,0,0,0,19.63,43.28Zm-.38,3.54a.75.75,0,0,1,0,.17v0c0,.08,0,0,0-.11v0S19.25,46.86,19.25,46.82Z" fill="#936037"/><path d="M17.41,45.33l0,0h0Zm9.4,5.93a.36.36,0,0,0,.07-.49c.06,0-.08-.24,0-.55-.08.12-.14-.29-.14-.61-.1,0-.11-.34-.18-.51s-.15-.32-.23-.48a8.39,8.39,0,0,1-.91-1.79A8.48,8.48,0,0,0,25,44.64a9.19,9.19,0,0,0-1.3-1.78l-.91-1.06a15.53,15.53,0,0,0-1.84-2c-.81-.62-1.61-.58-2.06,0-.1.13-.14.32-.22.44s-.25.06-.39.07c-.92.21-1.25,1.41-1.23,2.93,0,.22.12,1.06,0,.67.09.54.23,1,.12.78.16.32.29.48.06.63.08,0,.13,0,.17,0s0-.29-.13-.58c0-.11,0-.29-.06-.52v.1c0-.06,0-.62,0-.78s0-.38,0-.57,0-.36,0-.54a2.52,2.52,0,0,1,.74-1.85.58.58,0,0,1,.36-.15c.13,0,.3,0,.4-.11.33-1,1.26-1.25,2.23-.51a15.12,15.12,0,0,1,1.83,2c.51.65,1.29,1.52,1.77,2.21,1,1.36.35,2.18,1.07,3.53.22.41.47.79.69,1.19.07.14.13.29.2.41s.05.48.15.43c0,.33.06.72.13.59-.05.3.08.47,0,.52s.08.21-.06.47c.11-.11,0,.19-.11.42,0,0-.1.26-.15.38s-.15.35-.22.54c-.41,1.11-.76,2.38-1.58,2.83a.94.94,0,0,1-.36.08c-.13,0-.33.05-.39,0s-.53-.05-.41-.12a.61.61,0,0,1-.42-.21h0c-.15-.13-.23-.28-.42-.28.09-.09-.17-.23-.45-.35,0-.07-.29-.28-.44-.41s-.3-.3-.44-.47a15.51,15.51,0,0,1-1.94-2.7,16.75,16.75,0,0,1-1.35-3c-.07-.2-.12-.44-.2-.62s0-.56-.17-.63c0-.29.09-.85-.15-.63.19-.38.11-.66-.08-.63a.85.85,0,0,1,0,.7c.22-.16.13.46.17.71s.13.46.2.68.14.45.21.66a16.09,16.09,0,0,0,3.4,5.69l.38.38c.13.11.41.28.38.34.24.11.53.23.38.31.26,0,.35.1.39.27,0-.11.21.24.48.27-.12,0,.24.21.47.16,0,.11.31.06.45.05a.89.89,0,0,0,.39-.12c.82-.49,1.18-1.72,1.62-2.82.07-.19.15-.36.22-.54a2.46,2.46,0,0,0,.16-.38C26.79,51.47,27,51.19,26.81,51.26Zm-9.52-6.5c0,.15,0,.14,0,0Z" fill="#936037"/><path d="M18.43,39.2c.23-.78.62-1.62,1.41-1.25a8.6,8.6,0,0,1,2.22,1.56c1,.9,1.4,2.73,2.36,3.54.88.62,1.5.7,1.82,2.39.22.89.86,1.55,1.13,2.44a9.33,9.33,0,0,1,.34,1.72,3.37,3.37,0,0,0,.05.49c0,.2,0,1,0,.5,0,.65,0,.93,0,.48l0,.46-.06.42c.06-.4,0-.24-.14.38.13-.56-.1.07-.21.29,0-.06-.15.18-.21.28-.4.78-.09,2.82-1,2.67.71,0,.65-1.3.76-2.18A2,2,0,0,1,27,53a1.61,1.61,0,0,1,.16-.35c.07-.12.43-.73.21-.29.28-.51.4-.75.17-.31.24-.45.25-.47.09-.41.16-.06.15-.07,0-.47.12.4,0,.15,0-.51,0,.56-.06-.29,0-.53a2.54,2.54,0,0,1-.05-.54c0-.18,0-.36-.08-.55-.06-.36-.14-.73-.24-1.1-.25-.83-.91-1.57-1.1-2.45-.29-1.65-.89-1.71-1.74-2.33-1-.8-1.44-2.61-2.39-3.46a8.12,8.12,0,0,0-1.63-1.23,1.73,1.73,0,0,0-1-.4c-.48.06-.69.73-.93,1.18Z" fill="#936037"/><path d="M20.27,50.29a3.13,3.13,0,0,1,.38.61c.13.18.26.37.4.53s.19.21.28.31.27.23.29.27.36.25.29.23c.19.11.29.2.22.15.15.1.2.16.22.12a.17.17,0,0,0,.22.1c-.07.06,0,.11.21.07-.13.06,0,.06.25,0-.11,0,0,.06.16.07,0,0,.21-.18.28-.22s.13,0,.11.17c.16-.41.24-.47.37-.06,0-.43.1-.31.37-.08-.13-.28.13-.18.32-.18,0-.14.16-.2.24-.34s.07-.2.1-.31l.09-.33a3.37,3.37,0,0,1,.09-.34,4,4,0,0,1,.23-.39c.18-.16.45-.25.37-.11.16-.12.16-.11,0,0,.08-.13-.17,0-.32.18,0,0-.14.26-.19.42a6.35,6.35,0,0,1-.16.75,1.81,1.81,0,0,1-.21.48c-.09.12-.23.17-.3.27s-.39-.12-.41.12c-.22-.21-.36-.3-.57,0,0-.16-.07-.19-.14-.16s-.3.15-.26.15c-.14,0-.3,0-.18,0-.23.06-.37,0-.24,0-.21,0-.28,0-.21,0a.33.33,0,0,1-.22-.07,1.17,1.17,0,0,0-.23-.1c.09,0,0-.07-.23-.14.08,0-.1-.1-.27-.21a1.92,1.92,0,0,0-.28-.26l-.27-.31c-.08-.1-.17-.21-.25-.33a5,5,0,0,1-.31-.49,2.69,2.69,0,0,0-.25-.51Z" fill="#936037"/><path d="M22.89,43.53c-2-3-4-2.87-4.68-.47,0,.14-.08.3-.11.45A2.27,2.27,0,0,0,18,44c0,.2-.35.78,0,.54-.33.39-.12.85,0,.56a.55.55,0,0,0,.06.58.58.58,0,0,1-.13-.62c-.14.3-.43-.18-.06-.6-.38.3,0-.35,0-.56a3.49,3.49,0,0,1,0-.53c0-.16.07-.32.11-.47.56-2.26,3.13-2.53,4.81.62Z" fill="#936037"/><path d="M18.79,37.15l-.49.05c-.16,0-.48.1-.47.09-.27.08-.84.38-.45.17-.43.23-.46.45-.38.29-.08.17-.06.38-.29.44.22,0,.08.42-.17.62.22,0,0,.36-.08.61.08.09-.05.41-.07.61s0,.42-.07.62c-.08.83-.16,1.67-.26,2.48a10.8,10.8,0,0,0,0,3.11,15.6,15.6,0,0,0,4.15,7.55c.42.46,1,1.1,1.46,1.65l.36.39c.13.12.32.22.34.34.19.08.69.27.37.32.42,0,.62.1.37.25.26-.14.3,0,.37.17-.07-.21-.07-.2,0,0,0-.23-.06-.32.21-.36-.26,0-.11.12.34-.09-.39.22.15.13.41.19-.14,0-.14,0,0,0-.26,0-.8,0-.4-.16-.46.19-.6.13-.32.12-.28,0-.26.11-.18.37-.08-.26-.12-.35-.37-.15.24-.21.06-.25-.39-.25.36-.07-.19-.23-.38-.31s-.25-.24-.38-.37l-.37-.39c-.13-.13-.25-.27-.37-.4-.72-.79-1.44-1.6-2.16-2.44A14.62,14.62,0,0,1,16,46.22a12.12,12.12,0,0,1,0-3.13l.24-3a4.22,4.22,0,0,0,.06-.59c.05-.21.21-.49.07-.59.19-.2.43-.67.11-.54.34-.23.42-.45.17-.46.26,0,.25-.11.26-.35,0,.23,0,0,.4-.28-.34.3.2-.06.47-.15,0,0,.33,0,.5,0a2.83,2.83,0,0,1,.5,0Z" fill="#936037"/><path d="M28.48,51.41h0Zm0,.72h0Zm-.07.7c0,.23-.06.44-.11.66A8.6,8.6,0,0,1,26,57.9a2.21,2.21,0,0,1-2.45.47,3.31,3.31,0,0,1-.47-.22,4.32,4.32,0,0,1-.48-.31,8.61,8.61,0,0,1-1.49-1.48c-3.78-4.41-6.85-9-6.19-14.79a21.09,21.09,0,0,1,.66-3.69,3.26,3.26,0,0,1,.2-.5c.07-.16.19-.29.25-.45a.9.9,0,0,0,.3-.34c.14,0,.24-.17.37-.26s.25-.15.38-.22l.38-.2c.48-.37,1.19-.07,1.87.42a28.79,28.79,0,0,1,2.72,2.26A9.91,9.91,0,0,1,24,40.77c.38.62.65,1.35,1.07,1.93s.9.88,1.32,1.39a10.72,10.72,0,0,1,1.93,5c0,.28.08.55.1.82s0,.55.06.79-.49.77,0,.75l.13-.07c-.41,0,0-.47,0-.72s0-.5-.05-.75-.06-.52-.1-.78a11,11,0,0,0-2-5.09c-.44-.5-.91-.79-1.33-1.35s-.7-1.29-1.08-1.9a10.2,10.2,0,0,0-2-2.18,32.72,32.72,0,0,0-2.72-2.29c-.68-.51-1.43-.84-1.92-.48a3.69,3.69,0,0,0-1.47,1c-.77,1.07-.94,2.94-1.16,4.66-.68,5.92,2.45,10.57,6.31,15C23,58.8,24.72,59.14,26,58a8.51,8.51,0,0,0,2.38-4.65c0-.21.07-.42.1-.63s-.09-.42-.07-.57C28.15,52,28.42,52.61,28.38,52.83Zm.09-1.41c-.48.14-.32.3,0,.71,0-.07,0-.11.13-.1C28.35,51.75,28.23,51.6,28.47,51.42Z" fill="#936037"/><path d="M21.52,35.46c-3.17-2.21-5.93-1.63-7.31,1-.09.17-.17.34-.25.53s-.23,1.09-.21.57c-.06.64,0,.91-.17.63.2.29.2.34-.14.67.33-.29,0,.42-.1.71s-.05.5-.06.76,0,.53,0,.81c0,.59,0,1.2.09,1.81,0,.2,0,.58.08.61,0,.32,0,.8.09.62-.06.34.12.51.11.62a1.23,1.23,0,0,1,.13.63c.06-.1.1.4.15.62s.11.41.16.62c.12.42.25.83.39,1.24.06.2.14.41.21.61s.31.6.23.61c.2.3.48.59.25.61.27.08.36.24.26.59.13-.29.37.4.27.59.11-.18.24.33.29.58-.05-.25,0,0,.3.57-.26-.52.18.2.31.55,0-.06.21.37.32.55l.34.53a18.48,18.48,0,0,0,3,3.62q.21.2.42.36c.15.12.68.14.41.34.41-.1.62-.08.43.31.25-.35.39,0,.54.35,0-.16.05-.11.18,0s.37.16.34.3a.24.24,0,0,1,.16-.11c.06,0,.2.11.06.2.22,0,.7.13.25-.12.48.26.62.43.05.28.58.15.63.16.1-.17.53.33.59.49.12.24.47.25.51.33.15,0,.36.35.47.52.14.14.33.38.41.48.14,0,.27.44.34.51.16,0,.18.46.28.51.19.05.09.46.16.48.14.06,0,.42.14.38.34,0-.19.35.31.29.29.12.07.17.34.09.18-.08.18.17.56.13.41.19.2-.05.23-.07,0-.2.2.13.34.13.3.28.06-.15.19-.22.13-.33a.3.3,0,0,1,.05.24c0-.06.11-.14.2-.21s.25-.24.17-.13l-.12.12s.29-.34.23-.13c.2-.28.39-.5.15-.06.26-.45.22-.41,0,0,.24-.42.46-.61.18-.1.29-.52.29-.52,0,0,.31-.53.42-.52.14,0,.27-.52.42-.55.17-.12.25-.43.23-.4,0,.1.21-.5.29-.53,0-.14.25-.39.14-.4-.15,0,.29-.43.5-.44.28-.08.23-.36.25-.33.15.17.1-.5.17-.56,0-.22.21-.34.07-.3-.19,0,.26-.33.46-.4.26-.05.2-.34.19-.29.14.23.05-.52.21-.66,0-.35.2-.32.11-.26-.14,0,.25-.24.38-.32.18,0,.2-.32.06-.18,0,.33,0-.51.24-.71.05-.39.19-.33.11-.26-.14,0,.25-.24.39-.36.2,0,.19-.31,0-.14,0,.34.05-.48.39-.81.26-.48.14-.34.07-.27-.16,0,.23-.25.39-.41.26-.07.13-.34-.18,0-.28.4.1-.43.48-.81.34-.47.14-.35,0-.22-.22,0,.23-.24.47-.46.31-.1.16-.36-.21,0-.36.36.15-.35.62-.81.42-.44.2-.37,0-.2-.21.08.21-.28.56-.57.29-.19.27-.38-.17,0-.39.26.22-.25.78-.72.43-.44.35-.29.18-.17-.15.09.33-.26.58-.43.18-.23.39-.2-.07.14-.37.31.3-.17.78-.52.38-.37.4-.15.28-.07-.09.2.37-.27.52-.37.09-.35.43,0,.13.17-.27.25.4-.08.7-.28.28-.37.42.08.47.06.1.13.37-.07.31,0-.11-.26.41.21.31.27-.15.17.46.1.56,0,.16-.21.41.24.51.2.23.09.28.11.16.14-.23-.17.38.3.37.31,0,0,.4.3.42.28,0,0,.38.33.49.29.36-.05.13.34,0,.37-.35,0,.35.36.33.3.08-.17.25.47.27.51,0,.11.33.4.42.34.42-.17,0,.51-.08.56-.39.11.29.43.2.22.12-.3.09.51.16.66-.05.17.25.48.31.29.42-.21-.11.5-.17.6-.35.1.14.47,0,.05.09-.31,0,.34,0,.49,0,.1.11.34.23.07.35-.14-.12.2-.2.14-.26,0,0,.12-.05-.08,0-.18,0,.05,0,0,.08,0a.8.8,0,0,1,.28,0,.37.37,0,0,1-.16-.1.31.31,0,0,1-.09-.11.24.24,0,0,1,.05-.24.64.64,0,0,1,.34-.13c-.44-.11-.37-.17,0,.05-.39-.23-.2-.51,0-.68-.24,0-.14,0,.09.11-.23-.09-.26-.16-.1-.32-.14,0,.07-.15.21-.28-.14.13-.15.13-.12,0a4,4,0,0,0,.19-.65c-.11.42,0-.45.05-.68s0-.46,0-.7a18.39,18.39,0,0,0-.17-2.43l-.09-.62c0-.2-.42-.92-.11-.62-.34-.47-.59-.63-.13-.62-.47,0-.43-.07-.15-.62-.29.5-.12-.34-.17-.63,0,0-.06-.2-.09-.31l-.09-.31a6.21,6.21,0,0,1-.2-.61,1.21,1.21,0,0,1-.21-.62c-.16-.16-.45-.45-.23-.61-.33-.09-.57-.37-.25-.6-.38.1-.51-.33-.26-.6-.28.2-.4-.36-.27-.58-.14.2-.22-.25-.29-.58.07.33-.06-.11-.3-.57.24.45,0,0-.31-.56.25.45-.11-.15-.23-.34,0,0-.13-.2-.09-.2-.24-.27-.38-1-.34-.53-.06-.49.12-.85-.34-.52.45-.35,0-.28-.36-.5.24,0-.24-.32-.37-.48s-.24-.32-.37-.47A14.67,14.67,0,0,0,21.52,35.46Zm3.69,22.75c.21-.1.27-.15.17,0,0-.18-.22-.17-.37,0,.12-.14.13-.14.06,0a.2.2,0,0,0-.15-.12c-.07,0-.17.07-.11.11s-.15-.09-.15-.17-.21.2-.06.14c-.19.05-.24,0-.21-.21-.1.15-.17.37,0,.17-.19.2-.22,0-.23-.22-.07.22-.1.48,0,.17-.13.31-.16,0-.2-.18,0,.22,0,.42,0,.11,0,.31-.07.12-.16-.1,0,.21-.1.1-.2,0,.1.13.1.22,0,.07,0,.14-.19-.06-.33-.23.14.17.21.31.14.26s-.15-.12-.32-.35c.16.23.21.33.17.31a2.35,2.35,0,0,1-.36-.4c.34.47-.11,0-.3-.13,0,.07-.16-.09-.06-.09-.36-.09-.67-.57-.38-.24-.31-.34-.28-.61-.28-.21,0-.4,0-.46-.29-.22.29-.24.17-.18-.28-.24.41,0,.11,0-.21-.18.23,0-.13-.13-.21-.19a3,3,0,0,1-.21-.32c-.07-.11-.14-.17-.2-.08-.07-.39,0-.94-.41-.42.29-.6.08-.55-.39-.45.33-.25-.25-.31-.39-.46l-.37-.49a2.08,2.08,0,0,0-.27-.38c-.09-.18-.15-.54-.27-.39,0-.34-.11-.59-.26-.4.06-.32-.21-.48-.26-.41,0-.16-.18-.23-.16-.28a.22.22,0,0,1-.16-.27c-.1.08-.2-.06-.15-.32-.11.14-.19,0-.17-.26-.09.12-.07-.17-.09-.34s-.11-.17-.21-.24a.55.55,0,0,0-.09-.31,1,1,0,0,1-.19-.28.63.63,0,0,1-.14-.3.4.4,0,0,1-.13-.31,1.67,1.67,0,0,1-.24-.56c-.08-.18-.15-.38-.22-.57s-.14-.38-.2-.57a2.54,2.54,0,0,1-.08-.39c0-.17,0-.38-.08-.4s0,0,0,.22c0-.38.12-.8,0-.67.1-.24,0-.14-.2.09.2-.23.31-.4.17-.25a.25.25,0,0,0-.33-.33c.17-.11.29,0,.16.15.13-.17,0-.28-.1-.2.08-.21-.13-.39-.2-.54.08.17.08.13,0,0s-.16-.32-.14-.58c-.06.07-.08-.34-.11-.58s-.06-.38-.09-.58q-.07-.57-.12-1.14c0-.21,0-.41,0-.62s.14-.59,0-.6c.15-.35.22-.77,0-.84.2-.14,0-.58.07-.78-.07,0-.09-.4.13-.72-.16,0,.1-.45.17-.65a4.37,4.37,0,0,1,.21-.58,2.91,2.91,0,0,1,2.69-2,3.32,3.32,0,0,1,.81.1l.43.11c.16.06.82.36.44.17.48.23.83.43.45.21.38.22.71.64.46.26.25.38.43.75.46.3,0,.45.12.62.43.32-.28.32.11.46.43.34-.16.25.21.48.42.37,0,.29.19.52.41.4,0,.3.25.86.4.42,0,.56.1,1,.4.45-.27.6-.11.72.38.47-.28.22-.14.35.07.42a1.25,1.25,0,0,0,.31.07c0,.11.17.37.1.29.2.21.59.48.26.22.36.3.47.36.15.28.33.09.34.07.2.24.15-.17.11-.06.15.29,0-.35,0-.19.19.25-.23-.44-.13-.17.08.39-.2-.54-.07-.26.25.17-.29-.39-.1.07,0,.34,0-.15.19.14.27.23L26,43l.07.15.08.14c.09.19.27.39.26.56.17.17.51.42.26.57.34.08.53.43.24.57.36,0,.46.48.23.58.29,0,.37.57.21.58.21.12.25.66.19.59.05.09.1.32.14.4s.05.39,0,.2c0,.23.07.66.12.45,0,.34,0,.41.05.14a1.65,1.65,0,0,0,.07.61c0-.15.06-.15.07,0,0-.15,0,.16,0,.52,0-.18,0,.14,0,.27,0-.09.12-.34.14-.19-.09,0-.15.38-.14.46s.09.11.25.13c-.31,0-.2.09.09.59-.27-.37.05.39.07.59s0,.39.05.58c0,.39.05.77.05,1.15s0,.49,0,.72l0,.36c0,.12,0,.23,0,.32s0,.43,0,.34c0,.27.1.71-.08.3.17.49.24.82,0,.29a1.75,1.75,0,0,1,.15.52c0,.07-.1,0-.28-.23.17.24.19.48.25.45-.09.13-.26.16-.32-.17.05.34.09.52.27.39-.2.21-.49.26-.36-.13-.18.36-.06.42.23.22-.25.26-.26.33,0,.15-.31.21-.43.23-.12,0-.35.18-.56.1-.27-.09-.3.19-.17.27.17.19-.32.1-.24.18.08.14-.33.05-.52-.07-.26,0-.28-.09-.38-.15-.13,0-.25-.12-.17-.06.07.13-.22-.18-.07,0,.14.17-.21-.21-.4-.35-.28,0-.14-.31-.18-.33-.09,0-.09-.36-.06-.33,0,.05-.06-.37.14-.18.16.2,0-.38-.22-.51-.27-.09a1.05,1.05,0,0,0,0-.3s-.14.31-.06.39c-.08-.08,0-.36,0-.37s-.16.29-.08.34c-.07,0,.12-.27.16-.21s-.09.36,0,.43c-.09-.07,0-.35,0-.38s-.4.44-.23.25c-.19.18.05-.23.08-.25s-.38.66-.07.38c-.31.28,0-.2,0-.34-.1.11-.4.65-.15.25-.25.41-.06.13.13-.1-.17.32-.43.74,0,.36-.42.38-.35.24-.07-.21-.32.44-.44.66-.17.1-.27.56-.31.77.05.22-.36.56-.37.5-.22-.13-.15.63-.13.85.09.22-.22.63-.24.59-.22-.07,0,.66.06,1,0,.31,0,.66,0,.44-.24-.17.2.61.25.81,0,.22.21.59.14.31-.23-.2.36.51.41.71,0,.26.41.45.36.26-.08-.18.44.44.53.74.2.25.33.49.22.14-.32-.17.52.31.48.35-.1.25.57.1.44-.07-.08-.19.53.12.74.41.19.19.55.22.25-.07-.25-.11.46.07.3.16-.06.26.35-.09.33-.18,0-.2.37,0,.71.14.15.11.55,0,.17-.09-.17-.05.29,0,.1.15-.06.26.11-.17,0-.31-.06-.15.07-.16,0,0,0,.19a.17.17,0,0,0-.07-.19s-.08,0-.16,0,.12-.09.13-.06,0,.08,0,.17c0-.1,0-.15-.11-.16A.53.53,0,0,0,25.21,58.21Z" fill="#e8cdab"/><ellipse cx="19.07" cy="26.78" rx="5.61" ry="10.88" transform="translate(-8.74 9.24) rotate(-22.3)" fill="#ead1b1"/><polygon points="14.64 17.48 14.64 17.48 14.64 17.48 14.64 17.48" fill="#683c11"/><polygon points="14.64 17.48 14.64 17.48 14.64 17.48 14.64 17.48" fill="#683c11"/><path d="M49.77,14.9c0,2.79-.89,4.66-2.3,5.37l-1,.68-1.34.93-4.59,3.19-.57.4L29.63,32.68a2.26,2.26,0,0,0-.75-.88c-.79-.55-2-.65-2.36-.12s.25,1,.81,2.59l-3.79,2.41c1.15-.85,2-2.48,2-5,0-5.08-3-11.27-6.64-13.81-1.67-1.16-3.3-1.53-4.47-.92l5.4-3.51.79-.55,3.74-2.6,2-1.41,8.4-5.84,2.45-1.7L38.4.57,38.5.5l0,0h0c1.19-.78,2.82-.64,4.61.61C46.8,3.63,49.77,9.81,49.77,14.9Z" fill="url(#Безымянный_градиент_14)"/><path d="M17.21,27.42l.07,0s0,0,0,0h0l0,0s0,0,0,0a.3.3,0,0,1-.11-.21.13.13,0,0,1,0-.06s0,0,0,0h0a1.85,1.85,0,0,0,.17-.38s.05-.24,0-.37a1.49,1.49,0,0,0,0-.21,1.6,1.6,0,0,0-.05-.21,3.85,3.85,0,0,0-.16-.48l-.2-.55a1.94,1.94,0,0,0,.05-.2c0-.06.12-.13.19-.2s-.14.27-.19.42.07.2.1.29l.12.32a3.79,3.79,0,0,1,.17.64,1.49,1.49,0,0,1,0,.21,1.53,1.53,0,0,0,0,.18c0,.12-.1.33-.1.34a2,2,0,0,1-.12.25A.43.43,0,0,0,17.21,27.42Z" fill="#936037"/><path d="M17.22,26.93a.08.08,0,0,0,0,0S17.22,26.94,17.22,26.93Z" fill="#936037"/><path d="M17.42,27.63c-.08-.05-.13-.09-.12-.16a.27.27,0,0,0,.12,0S17.39,27.58,17.42,27.63Z" fill="#936037"/><path d="M17.45,24.31c.09.07-.08.12-.29.2.05-.06.05-.11-.06-.13h0A2.49,2.49,0,0,0,17.45,24.31Z" fill="#936037"/><path d="M17.48,24.29s0-.07-.08-.13a.36.36,0,0,0-.12-.08l.19.1c.09,0,.14.07.17.05S17.63,24.32,17.48,24.29Z" fill="#936037"/><path d="M17.67,27.91c-.08-.08-.15-.15-.15-.19l.14.11S17.65,27.87,17.67,27.91Z" fill="#936037"/><path d="M17.75,24.17c0,.09,0,.11-.1,0s0-.05,0-.1h0s0-.1-.06-.18a1.37,1.37,0,0,0,.09.2C17.71,24.19,17.73,24.2,17.75,24.17Z" fill="#936037"/><path d="M17.77,24.13l0-.07c0-.07,0-.17.06-.29a1,1,0,0,0,0,.26c0,.09,0,.07.13,0C17.82,24.2,17.78,24.25,17.77,24.13Z" fill="#936037"/><path d="M17.91,28.4c0,.06.05.14.07.21,0-.1-.08-.19-.1-.26s-.14-.28-.15-.34l.09.12A2.82,2.82,0,0,0,17.91,28.4Z" fill="#936037"/><path d="M18.2,29.12c-.06-.08-.14-.17-.2-.26h0a.05.05,0,0,0,0,0C18.12,28.94,18.25,29.1,18.2,29.12Z" fill="#936037"/><path d="M18.41,29.42a1.52,1.52,0,0,0-.27-.08.18.18,0,0,0,.13,0s0,0,0-.09.16.13.13.18h0Z" fill="#936037"/><path d="M18.6,29.67v0h0a.27.27,0,0,0-.21.09.51.51,0,0,0,.12-.18.08.08,0,0,0,0-.08A.16.16,0,0,1,18.6,29.67Z" fill="#936037"/><path d="M18.89,30.07h0a.26.26,0,0,0-.2.1.93.93,0,0,0,0-.22v-.08s0,0,0,0S19,30,18.89,30.07Z" fill="#936037"/><path d="M18.9,30.13s0,0,0-.05a.13.13,0,0,1,.09.09A.2.2,0,0,0,18.9,30.13Z" fill="#936037"/><path d="M19.24,30.45c.07-.07,0-.08-.1-.05l-.17.07,0,0a.19.19,0,0,0,0-.12c.13,0,.22,0,.15.05.11,0,.17,0,.16.1S19.3,30.43,19.24,30.45Z" fill="#936037"/><path d="M19.63,30.68c0-.06,0-.09,0,0-.08-.13-.15-.12-.29,0h0l0,0a.27.27,0,0,0,.05-.13c.1-.06.15,0,.21.06C19.59,30.5,19.61,30.57,19.63,30.68Z" fill="#936037"/><path d="M20.31,30.72c.06.13.06.17,0,.17s-.32-.11-.33-.07,0,0,0,0h0c-.15-.06-.31-.1-.32,0h0a0,0,0,0,1,0,0h0v0h0c0-.12.15-.05.32,0,0,0,0,0,0,0a1.1,1.1,0,0,0,.29.11S20.32,30.8,20.31,30.72Z" fill="#936037"/><path d="M20.54,30.6a.61.61,0,0,1-.06.24s0,0-.06,0h0l0,0-.08-.12a.44.44,0,0,0,0-.1c.05.16.13.22.16.17a2,2,0,0,0,.09-.4A.65.65,0,0,0,20.54,30.6Z" fill="#936037"/><path d="M20.66,30.29c0,.11,0,.13,0,.11s-.06.2-.08.24h0v0h0s0,0,0-.08l0-.07h0C20.61,30.44,20.63,30.37,20.66,30.29Z" fill="#936037"/><path d="M18,24l.1-.11.1-.09,0,.06h0c-.14.24.3,0,.43.05a2.05,2.05,0,0,1,.4.23,5.29,5.29,0,0,1,1.67,2.21c.06.14.12.28.17.43h0a0,0,0,0,1,0,0,.88.88,0,0,1,0,.24,1.07,1.07,0,0,0,0,.18c-.05-.07,0-.4-.06-.51s-.12-.31-.19-.45a4.89,4.89,0,0,0-1.85-2.2c-.11-.06-.48,0-.34-.15C18.17,24,17.89,24.2,18,24Z" fill="#936037"/><path d="M20.83,27.59a1,1,0,0,1,.07-.26h0s.05,0,.09-.06a1.58,1.58,0,0,0-.13.27.13.13,0,0,0,0,.08S20.84,27.61,20.83,27.59Z" fill="#936037"/><path d="M21,27.74l.16,0c-.14,0-.19.06-.19.11a.08.08,0,0,0,0,.05A.11.11,0,0,0,21,28a.25.25,0,0,1-.07-.12s0-.07,0-.11,0,0,0,0Z" fill="#936037"/><path d="M21.1,28.18h0l0,.06c-.06,0-.08.05-.07.11v0a0,0,0,0,0,0,0s0,.1,0,.16v.05a.56.56,0,0,0,0,.1,1.7,1.7,0,0,1-.09-.36C21.07,28.29,21.06,28.2,21.1,28.18Z" fill="#936037"/><path d="M21.21,28.72c0,.14,0,.25,0,.27h0c0,.15,0,.2,0,.24a4.07,4.07,0,0,1-.1.45s0,0-.06.12a1.89,1.89,0,0,1-.11.25s-.11.19-.1.13-.08.19-.11.24h0s0,0,0-.06l.1-.2c0,.07.07-.11.11-.16a.33.33,0,0,1,.07-.11c.07-.15.12-.32.14-.35a2.3,2.3,0,0,0,.08-.4,3,3,0,0,0,0-.38v-.06h0Z" fill="#936037"/><path d="M21.2,28.71h0Zm-.08-.54h0l0,0ZM21,27.68l-.06.05s0,0,0,0,0,0,0,0l.12-.06H21ZM21,27.19a0,0,0,0,1,0,0l0,0Zm-1.67,3.42.07-.06a0,0,0,0,0,0,0A.47.47,0,0,1,19.28,30.61Zm-.34-.28v0l0,0Zm-.53-.91h0a.34.34,0,0,1-.17.07.43.43,0,0,1,.2,0,.08.08,0,0,0,0-.07Zm-.22-.29h0a.24.24,0,0,1-.11,0l.16.11A.23.23,0,0,0,18.19,29.13Zm-.14-5.23h0l0,0Zm-.28.14h0v0Zm-.19.06s0,0,0,0a.21.21,0,0,1,0,.06h0Zm-.09,3.6s0,0,0,0l-.09,0Zm-.15-3.45h0l-.09,0Zm-.11,3.18a.05.05,0,0,0,0,0v0s0,0,0,0l-.07,0Zm-.16-.27h0Zm0,0h0a0,0,0,0,0,0,0Zm0,.09v-.06C17,27.27,17,27.3,17.06,27.22Zm4.15,1.5h0v.06a3,3,0,0,1,0,.38,2.3,2.3,0,0,1-.08.4s-.07.2-.14.35a.33.33,0,0,0-.07.11c0,.05-.13.23-.11.16l-.1.2v0h0s0,0,0-.11c0,.08-.05.15-.07.21s0,.1,0,.14h0c0,.17,0,.06.1-.2a.64.64,0,0,0,0-.07.35.35,0,0,1,0,.06c-.05.25,0,0,.11-.17,0,.14.07-.11.1-.17S21,30,21,30a2.08,2.08,0,0,1,.13-.37l.08-.42c0-.05,0-.21,0-.47Zm-.28-.85h0a.11.11,0,0,1,0-.1s-.05.07,0,.11A.25.25,0,0,0,21,28h0l.16.17h0A1.33,1.33,0,0,1,20.93,27.87Zm.17.48a1.7,1.7,0,0,0,.09.36h0a.29.29,0,0,1,0-.1v-.05c0-.07,0-.14,0-.19v0a.17.17,0,0,1,0-.17S21.07,28.29,21.1,28.35Zm-.23-.8a.47.47,0,0,1,0-.21s0-.06,0-.09l0,.08a1,1,0,0,0-.07.26s0,0,0,0,.07.05.16.05h0l.08-.05C20.93,27.66,20.87,27.63,20.87,27.55Zm-2.45-3.64c-.14.15.23.09.34.15a4.89,4.89,0,0,1,1.85,2.2c.07.14.13.3.19.45s0,.44.06.51.05,0,.09,0l0-.07c-.08.07-.1,0-.12-.08s0-.18,0-.27h0a.58.58,0,0,0,0-.14,3.85,3.85,0,0,0-.19-.47,4.91,4.91,0,0,0-1.9-2.27c-.11-.07-.37,0-.35-.15a.81.81,0,0,0-.2.11h0l-.06,0-.05,0A.35.35,0,0,0,18,24C17.89,24.2,18.17,24,18.42,23.91Zm2.13,6.67a0,0,0,0,1,0,0,.65.65,0,0,1,0-.22,2,2,0,0,1-.09.4s-.11,0-.16-.17a.44.44,0,0,1,0,.1h0q0,.12,0,.12a1.1,1.1,0,0,1-.29-.11s-.07,0,0,0c-.17-.06-.32-.13-.32,0l0-.05c0-.11,0-.18,0-.09-.06-.1-.11-.12-.21-.06l0,0a.15.15,0,0,1,0,.11,0,0,0,0,1,0,0s0,.05,0,.06c.17-.14.25-.16.33,0,0-.07,0,0,0,.06h0v0h0s0,.05,0,.07.2-.09.37,0a0,0,0,0,1,0,0s.27.06.34.06.07,0,0-.11a.36.36,0,0,0,0-.09l.07.11h0c.11.12.12,0,.15-.19h0a.77.77,0,0,1,0-.15Zm-1.21-.06a.25.25,0,0,0,0-.07c0-.08-.05-.12-.16-.1.07-.07,0-.08-.15-.05l-.11,0a.18.18,0,0,1-.06.13l.13,0,.13,0c.06,0,.09,0,0,.08S19.32,30.48,19.34,30.52Zm-.4-.21a.15.15,0,0,0,0-.14h0a.13.13,0,0,0-.09-.09h0c.07-.09-.05-.17-.16-.2s0,0,0,0a.22.22,0,0,0-.16.1.78.78,0,0,0,.07-.26v0a.16.16,0,0,0-.1-.15h-.06s-.06.1-.17.17a.41.41,0,0,1,.22-.07.07.07,0,0,1,.07,0l0,.05a.77.77,0,0,1-.08.34c.06-.1.16-.12.19-.09h0a.33.33,0,0,1,.15.11.14.14,0,0,1,0,.11A.17.17,0,0,1,18.94,30.31Zm-.66-1.07,0,0c0,.06,0,.09-.15.07l.18.06a.56.56,0,0,1,.14.09C18.44,29.37,18.39,29.32,18.28,29.24ZM18,28.86h0c.07.1.16.2.22.28h0c.05,0-.08-.18-.16-.31L18,28.74s0-.07,0-.13-.05-.15-.07-.21a2.82,2.82,0,0,1-.09-.27L17.73,28s0,0,0,0,.11.23.15.37l.06.24c0,.07.11.22.09.25h0ZM18,24l.09-.12c-.07,0-.1,0,0-.23a2.24,2.24,0,0,1-.21.36l0,0,0,0v.09C17.78,24.25,17.82,24.2,18,24Zm-.38.09.07.1c.06.07.09.05.1,0s0-.08,0-.13h0a.86.86,0,0,1-.05-.34c0,.31,0,.44,0,.43l0,0h0a2.6,2.6,0,0,1-.21-.27,1.68,1.68,0,0,1,.15.26Zm.08,3.72-.14-.11h0l0,0s.12.17.23.29a.35.35,0,0,1,0-.08S17.64,27.84,17.66,27.83Zm0-3.6a.37.37,0,0,0-.06-.1c0,.06,0,.07-.11.05l-.07,0-.22-.08c.14.07.19.12.17.17a.4.4,0,0,1,.13,0C17.63,24.32,17.67,24.32,17.64,24.23Zm-.22,3.27a.27.27,0,0,1-.12,0l0,0c0,.08.05.13.16.19h0C17.39,27.58,17.38,27.54,17.42,27.5Zm-.08-3.25s-.11.07-.2.11l0,0h0a.67.67,0,0,0-.12.06c.12.09-.12.3-.16.48v0c.07.18.14.36.2.53s.12.33.16.48a2.07,2.07,0,0,1,0,.22.82.82,0,0,1,0,.21c0,.14-.07.42,0,.38a3,3,0,0,1-.16.34v0h0v0a0,0,0,0,1,0,0c0,.11.06.17.12.19s0,0,0,0h0a.43.43,0,0,1-.12-.21s0,0,0,0a.06.06,0,0,0,0,0,2,2,0,0,0,.12-.25s.07-.22.1-.34a1.53,1.53,0,0,1,0-.18,1.49,1.49,0,0,0,0-.21,3.79,3.79,0,0,0-.17-.64L17,25.27c0-.09-.07-.19-.1-.29v0a0,0,0,0,0,0,0c.05-.15.35-.38.19-.42h-.05l.1,0h0c.21-.08.38-.13.29-.2Zm-.32,3c0,.08,0,.06,0-.07a0,0,0,0,0,0,0v0s0,0,0,0A.29.29,0,0,1,17,27.22Zm0,0v0a.41.41,0,0,1,0-.1A.83.83,0,0,0,17,27.24Z" fill="#936037"/><path d="M15.56,25.9s0,0,0,0h0Zm7.56,4.76a.29.29,0,0,0,.05-.39s-.06-.19,0-.44c-.06.1-.11-.24-.1-.49-.08,0-.09-.28-.15-.41s-.12-.26-.19-.39A6.46,6.46,0,0,1,22,27.1a7.31,7.31,0,0,0-.35-1.76,7.17,7.17,0,0,0-1.05-1.42l-.73-.86a12.08,12.08,0,0,0-1.48-1.6c-.64-.5-1.28-.47-1.65,0-.08.1-.11.25-.18.35s-.19.05-.31.05c-.74.17-1,1.14-1,2.36,0,.17.09.79,0,.57.07.41.17.73.09.61.13.24.23.37,0,.49.06,0,.1,0,.13,0s0-.24-.1-.47h0a3.19,3.19,0,0,1-.05-.48v.15s0-.49,0-.62,0-.31,0-.45,0-.3,0-.44A2,2,0,0,1,16,22.09a.62.62,0,0,1,.29-.12c.1,0,.24,0,.32-.08.27-.82,1-1,1.79-.42a12.24,12.24,0,0,1,1.47,1.62c.42.53,1,1.23,1.43,1.78.8,1.09.28,1.75.86,2.84.17.33.37.63.55.95.06.11.1.24.16.33s0,.39.12.35c0,.26.05.57.11.47,0,.24.06.38,0,.42s.06.17-.05.37c.09-.08,0,.16-.09.34a1.46,1.46,0,0,1-.11.31c-.07.14-.12.28-.18.43-.33.89-.61,1.91-1.27,2.28a.75.75,0,0,1-.29.06c-.1,0-.26,0-.31,0s-.43,0-.33-.1a.53.53,0,0,1-.35-.17h0c-.13-.1-.19-.23-.35-.22.07-.07-.13-.19-.35-.29,0,0-.24-.22-.36-.33s-.24-.24-.35-.37a12.16,12.16,0,0,1-1.56-2.17,13.84,13.84,0,0,1-1.08-2.42c-.06-.17-.1-.36-.17-.51s0-.44-.14-.5c0-.24.08-.68-.12-.51.16-.3.1-.53-.06-.5a.68.68,0,0,1,0,.56c.18-.13.1.37.14.57l.15.55c.06.18.12.35.17.52a13.25,13.25,0,0,0,2.73,4.58l.31.3c.1.09.33.22.3.28.2.08.43.18.32.24a.28.28,0,0,1,.31.22c0-.09.16.19.38.22-.09,0,.19.16.38.13,0,.08.24,0,.36,0a.62.62,0,0,0,.32-.09c.65-.39.94-1.38,1.29-2.27l.18-.43A1.29,1.29,0,0,0,23,31C23.09,30.83,23.25,30.6,23.12,30.66Zm-7.65-5.22c0,.12,0,.12,0,0Z" fill="#936037"/><path d="M16.38,21c.19-.63.5-1.31,1.14-1a6.24,6.24,0,0,1,1.78,1.25c.76.72,1.13,2.19,1.9,2.84.7.49,1.2.56,1.46,1.92.17.71.69,1.25.9,2a7.45,7.45,0,0,1,.28,1.39,2.46,2.46,0,0,0,0,.4c0,.16,0,.84,0,.39,0,.53,0,.75,0,.39v.37s0,0-.05.34c.05-.33,0-.2-.11.3.1-.45-.08.06-.17.23,0,0-.12.15-.17.23-.32.62-.07,2.26-.83,2.14.57,0,.52-1,.62-1.74a1.91,1.91,0,0,1,.07-.36,1.22,1.22,0,0,1,.14-.28c0-.09.34-.59.16-.23.23-.41.33-.61.14-.26.19-.36.2-.37.07-.32.13-.05.12-.06,0-.38.09.32,0,.12,0-.41,0,.45-.05-.24,0-.42a2.55,2.55,0,0,1,0-.44l-.06-.44a7,7,0,0,0-.2-.88c-.2-.67-.73-1.27-.88-2-.23-1.32-.71-1.37-1.4-1.87S20,22,19.28,21.34a6.64,6.64,0,0,0-1.31-1,1.37,1.37,0,0,0-.84-.32c-.38,0-.56.58-.75.95Z" fill="#936037"/><path d="M17.86,29.88a4.07,4.07,0,0,1,.31.49,4.8,4.8,0,0,0,.32.43,2.73,2.73,0,0,0,.23.25c.07.08.21.18.23.22s.28.2.23.18a1.78,1.78,0,0,1,.18.12c.11.08.16.13.17.1a.15.15,0,0,0,.18.08c-.06,0,0,.09.17.05-.11.05,0,.05.2,0-.09,0,0,0,.13.05s.16-.14.22-.17.1,0,.09.13c.13-.33.19-.37.3,0,0-.35.08-.26.29-.07-.1-.23.11-.14.26-.15,0-.11.13-.16.19-.27s.06-.16.09-.25,0-.18.06-.27.05-.18.08-.26a1.83,1.83,0,0,1,.19-.32c.14-.13.36-.2.29-.09.13-.1.13-.09,0,0,.06-.11-.14,0-.26.14s-.11.21-.15.34a4.67,4.67,0,0,1-.13.6,1.42,1.42,0,0,1-.17.39c-.07.09-.18.14-.24.22s-.31-.1-.33.09c-.17-.17-.29-.24-.45,0,0-.13-.06-.15-.12-.13s-.24.12-.21.12-.24,0-.14,0c-.18,0-.3,0-.19,0-.17,0-.23,0-.18,0a.27.27,0,0,1-.17-.06.82.82,0,0,0-.18-.08c.06,0,0-.05-.19-.11.07,0-.08-.09-.22-.17,0,0-.14-.14-.22-.21L18.52,31c-.08-.09-.14-.18-.21-.27s-.17-.26-.25-.39a1.63,1.63,0,0,0-.2-.42Z" fill="#936037"/><path d="M20,24.45c-1.63-2.39-3.17-2.31-3.75-.37a1.9,1.9,0,0,0-.09.36,2,2,0,0,0-.05.4c0,.16-.28.62,0,.43-.27.32-.1.69,0,.45a.43.43,0,0,0,.05.47.46.46,0,0,1-.1-.5c-.12.24-.35-.14-.05-.48-.31.24,0-.28,0-.45a2.09,2.09,0,0,1,0-.42A3.82,3.82,0,0,1,16.1,24c.45-1.81,2.51-2,3.86.5Z" fill="#936037"/><path d="M16.67,19.33l-.39,0c-.13,0-.38.08-.38.07-.21.07-.67.31-.36.14-.34.18-.37.36-.3.23-.07.13-.05.3-.24.35.18,0,.07.34-.14.5.18,0,0,.29-.06.49.07.08,0,.33-.06.5s0,.33-.05.49c-.07.67-.13,1.34-.21,2a8.63,8.63,0,0,0,0,2.49,12.63,12.63,0,0,0,3.34,6.07c.34.36.77.88,1.17,1.32.1.11.21.21.3.32s.25.17.27.27.55.22.29.25c.34,0,.5.08.3.21.21-.12.24,0,.29.13-.05-.17-.05-.16,0,0,0-.18-.05-.25.16-.28-.21,0-.09.09.28-.07-.32.17.12.1.32.15-.11,0-.11,0,0,0-.2-.05-.64,0-.32-.13-.37.15-.47.1-.25.1-.23,0-.21.08-.15.29-.06-.21-.09-.28-.3-.12.2-.17,0-.2-.3-.2.28-.06-.16-.19-.31-.25s-.21-.19-.31-.29l-.3-.32-.29-.32c-.58-.63-1.16-1.29-1.74-2a11.72,11.72,0,0,1-2.48-5.22,9.57,9.57,0,0,1,0-2.51c.07-.79.12-1.59.2-2.37a4.23,4.23,0,0,0,0-.48c0-.16.17-.39.05-.46.16-.17.35-.54.09-.44.28-.18.34-.36.14-.37.21,0,.2-.09.21-.28,0,.18,0,0,.33-.23-.28.24.15,0,.37-.12,0,0,.26,0,.4,0l.4,0Z" fill="#936037"/><path d="M24.46,30.79h0Zm0,.58h0Zm-.05.55c0,.19-.06.36-.09.53A6.92,6.92,0,0,1,22.47,36a1.79,1.79,0,0,1-2,.38,3.14,3.14,0,0,1-.37-.18L19.74,36a7,7,0,0,1-1.2-1.19c-3-3.55-5.5-7.19-5-11.88a16.12,16.12,0,0,1,.52-3,3.89,3.89,0,0,1,.16-.41,3.24,3.24,0,0,0,.2-.36.72.72,0,0,0,.25-.27c.11,0,.19-.14.29-.21a3.07,3.07,0,0,1,.31-.17l.3-.17c.39-.29,1,0,1.5.34a24.94,24.94,0,0,1,2.19,1.81,8.17,8.17,0,0,1,1.55,1.76c.31.49.53,1.08.87,1.54s.72.72,1.06,1.12a8.77,8.77,0,0,1,1.55,4c0,.23.06.45.08.66s0,.45.05.64-.4.62,0,.61l.1-.06c-.33,0,0-.38,0-.58s0-.4-.05-.61-.05-.41-.08-.62a8.7,8.7,0,0,0-1.62-4.08c-.35-.41-.73-.65-1.07-1.09s-.56-1-.86-1.53a8.19,8.19,0,0,0-1.57-1.75,22.73,22.73,0,0,0-2.19-1.84c-.54-.41-1.14-.67-1.54-.39a3.1,3.1,0,0,0-1.18.8,9,9,0,0,0-.93,3.74c-.55,4.76,2,8.49,5.06,12,1.54,1.89,2.92,2.17,4,1.24a6.83,6.83,0,0,0,1.91-3.74c0-.16.06-.33.08-.51s-.07-.32-.06-.44C24.19,31.25,24.41,31.75,24.38,31.92Zm.07-1.13c-.39.12-.26.25,0,.57,0-.05,0-.08.11-.08C24.35,31.06,24.26,30.93,24.45,30.79Z" fill="#936037"/><path d="M24.6,19.85c-.66-.76-1-1.85-2.05-3.3s-1.3-1.15-2.31-2.48l-.42-.59.79-.55c.48.52,1.31,1.44,2.45,2.86a24.9,24.9,0,0,1,2.31,3.09C26.15,20.38,25.46,20.84,24.6,19.85Z" fill="#575756"/><path d="M30.73,16.25c0,.7-1,.12-1.87-1.18-.69-1-.72-1.57-1.43-2.63-1.13-1.69-2.17-1.89-2.23-1.9-.46-.08-.54.24-.79-.12l-.06-.09,2-1.41c.36.4.69.83,1,1.24A19.43,19.43,0,0,1,29,12.48C29.11,12.7,30.7,15.37,30.73,16.25Z" fill="#b2b2b2"/><path d="M40.56,25.07l-.57.4c-.79-1.55-1.8-2.54-2.61-4.19-.34-.68-.59-1.36-.47-1.43s1.24,1.4,1.78,2.17a24.44,24.44,0,0,1,1.41,2.17C40.28,24.51,40.43,24.8,40.56,25.07Z" fill="#c6c6c6"/><path d="M30.42,25.68a3.61,3.61,0,0,0,1.16,1c.3.14.53.25.62,0a4.75,4.75,0,0,0-.55-2.37,10.2,10.2,0,0,0-1.15-1.76c-1.56-2.15-1.74-2.27-1.88-2.31-.34-.1-.58.26-.51.93A11,11,0,0,0,30.42,25.68Z" fill="#3c3c3b"/><path d="M46.49,21l-1.34.93c-.19-.19-.72-1-.64-.66a10,10,0,0,0-.62-1.91c-.5-.74-4.72-2.1-4.62-2.51.06-.24,3.33.4,3.64.5a3.27,3.27,0,0,1,1.28.8A13.14,13.14,0,0,1,46.49,21Z" fill="#dadada"/><path d="M34.6,9.85c.36.53.55.36,1.17,1A26.52,26.52,0,0,1,37.37,13c.25.36.54.75.94,1.28.83,1.07,1,1.13,1,1.13.26,0,0-.89-.06-1a9.8,9.8,0,0,0-1-2.2,16.67,16.67,0,0,0-1.71-2.43,6.24,6.24,0,0,0-1.47-1.4c-.17-.09-.9-.5-.93.12A2.71,2.71,0,0,0,34.6,9.85Z" fill="#575756"/><path d="M42.12,6.11c.46.7.64.52,1.41,1.37.24.26.84,1.12,2,2.84.33.47.69,1,1.2,1.7,1,1.43,1.19,1.52,1.25,1.53.29.09-.13-1.08-.2-1.26A17.22,17.22,0,0,0,46.4,9.47a28.87,28.87,0,0,0-2.2-3.23,10.72,10.72,0,0,0-1.79-1.92c-.2-.14-1-.75-1,0A4.47,4.47,0,0,0,42.12,6.11Z" fill="#c6c6c6"/><path d="M53.24,33.32c.68,1.56,1,2.34,1.46,2.31s.83-1.07.92-1.72a3.59,3.59,0,0,0-1.24-3.21c-.6-.49-1.66-1-2-.59S52.43,31.45,53.24,33.32Z" fill="#575756"/><path d="M39,4.44c-.29.33-1,0-2.55-.63-.67-.28-1.23-.52-1.65-.73l2.45-1.7a3.14,3.14,0,0,1,1.31,1.14C38.9,3.06,39.31,4.06,39,4.44Z" fill="#706f6f"/><path d="M40.3,28.12c-.61-.45-1.4-.43-1.65.15a1.75,1.75,0,0,0,.24,1.5,2.05,2.05,0,0,0,.93.82,1,1,0,0,0,1.28-.22A2.06,2.06,0,0,0,40.3,28.12Z" fill="#575756"/><path d="M20.23,7.5c-.44.31-.51,1.46-.23,1.56s.51-.8.86-1a2.85,2.85,0,0,0,.75-.47c.23-.22.41-.5.21-.61A2.32,2.32,0,0,0,20.23,7.5Z" fill="#575756"/><path d="M46.47,46l-.41.29c-.48-.61-1.06-1.42-1.51-2.06-.56-.81-.81-1.21-3.17-4.9-2.54-4-2.82-4.41-3.11-5-.8-1.5-.25-1.28.75-.12a49.75,49.75,0,0,1,3.58,5c1.41,2.2,2.31,3.83,2.81,4.74C45.76,44.68,46.17,45.42,46.47,46Z" fill="#b2b2b2"/><path d="M36.07,53.26l-.66.46c-.25-.52-.57-1.16-1-1.95C33.18,49.25,33,49,32.59,48.06c-.88-2-1.24-3.77-.54-2.92a17.47,17.47,0,0,1,1.24,2.09,54.08,54.08,0,0,1,2.5,5.3C35.89,52.78,36,53,36.07,53.26Z" fill="#9d9d9c"/><path d="M29.63,32.68l-2.3,1.59c-.56-1.55-1.11-2.14-.81-2.59s1.57-.43,2.36.12A2.26,2.26,0,0,1,29.63,32.68Z" fill="#706f6f"/><path d="M54.54,40.42l-2.45,1.7-.27-.56c-.83-1.7-1.63-3.32-1.19-3.74s1.92.58,2.69,1.27A7,7,0,0,1,54.54,40.42Z" fill="#9d9d9c"/><path d="M9.58,21.53a18.07,18.07,0,0,1-3.12-2.47l1.3-.9A18.4,18.4,0,0,1,9.2,19.39C11,21.15,11.33,22.54,9.58,21.53Z" fill="#575756"/><path d="M29,9.66c2,.18,4.83,1.15,5.09,3.51,0,1.16-.73,2.19-.32,3.06a4.45,4.45,0,0,0,2.37,1.87,3.34,3.34,0,0,1-2.86-1.67,2.37,2.37,0,0,1,.05-1.76c.38-1,.88-2.09,0-2.93-1.21-1.06-3-1.3-4.32-2.08Z" fill="#a48a7b"/><path d="M47.58,18.29a15,15,0,0,1-3.86-3.64c-1.08-1.41-1.64-3.09-2.65-4.55C39.08,6.25,37,5.1,33,7l0,0c6.66-4,8.28,3,11.08,7.44a20.75,20.75,0,0,0,3.54,3.86Z" fill="#a48a7b"/><path d="M33.62,4.18c-.19.15-.95-.44-1.34-.79a7,7,0,0,1-1-1.08l-.16-.21,1-.72C33.13,2.59,33.87,4,33.62,4.18Z" fill="#878787"/><path d="M13.51,14.26c.09.45-.08,1.2.52,1.06.37-.18,1-.39,1.33,0,.1.14.13.49,0,.51a.6.6,0,0,0-.27-.23,2.35,2.35,0,0,1-1.88-.53c-.19-.31.11-.92.32-.85Z" fill="#a48a7b"/><path d="M59.26,26.67a1.57,1.57,0,0,1-1.23.45c-.52-.1-.64-.58-1.3-.69s-1,.21-1.06,0,.28-.43.42-1-.05-.64-.23-1.58a3.47,3.47,0,0,1-.08-2c.14-.32.3-.39.51-.65,0,0,.12-.17.21-.32a1.86,1.86,0,0,0,.2-.45A25.73,25.73,0,0,1,59.26,26.67Z" fill="#e2d7c7"/><path d="M59.27,26.67a1.61,1.61,0,0,1-1.19.48c-.47,0-.72-.5-1.13-.62a1.43,1.43,0,0,0-.62-.07c-.25,0-1,.28-.63-.27a2.07,2.07,0,0,0,.39-.87c-.05-.84-.38-1.69-.44-2.55-.2-1.06.79-1.47,1.05-2.4a23.86,23.86,0,0,1,2.57,6.3Zm0,0a41.29,41.29,0,0,0-2.51-6.18c-.27.84-1.25,1.3-1.06,2.28s.4,1.69.46,2.56a2.17,2.17,0,0,1-.38.9c-.28.44.31.15.55.15a1.36,1.36,0,0,1,.66.08c.43.14.67.6,1.11.64a1.67,1.67,0,0,0,1.17-.43Z" fill="#cbbba0"/><path d="M44.34,47.51l-6,4.15a2.12,2.12,0,0,1-.12-1.94c.57-1,2.23-.45,2.75-1.42s-1-2.83-.42-3.41c.3-.3,1,0,1.06,0,.78.32.75,1,1.76,1.87.41.34.76.61.76.61Z" fill="#e2d7c7" stroke="#cbbba0" stroke-miterlimit="10" stroke-width="0.1"/></g></g></svg>