<svg width="356" height="86" viewBox="0 0 356 86" fill="none" xmlns="http://www.w3.org/2000/svg">
<g filter="url(#filter0_i_1348_16675)">
<path d="M342.1 73.8411H-12V0.00101868H328.61C328.61 0.00101868 358.31 -0.345804 355.67 11.7595C355.67 11.7595 348.93 24.5249 346.81 50.5926C344.69 76.6604 342.1 73.8411 342.1 73.8411Z" fill="url(#paint0_linear_1348_16675)"/>
</g>
<mask id="mask0_1348_16675" style="mask-type:alpha" maskUnits="userSpaceOnUse" x="-12" y="0" width="368" height="74">
<path d="M342.1 73.8411H-12V0.00101868H328.61C328.61 0.00101868 358.31 -0.345804 355.67 11.7595C355.67 11.7595 348.93 24.5249 346.81 50.5926C344.69 76.6604 342.1 73.8411 342.1 73.8411Z" fill="url(#paint1_linear_1348_16675)"/>
</mask>
<g mask="url(#mask0_1348_16675)">
<rect x="142" y="-14" width="214" height="100" fill="url(#paint2_linear_1348_16675)"/>
</g>
<path d="M315.53 12.3748C315.53 12.3748 313.94 5.53901 330.53 4.94605C330.53 4.94605 345.61 4.77823 344.96 9.84635L344.8 16.1675C339.549 18.8589 333.696 19.7242 328 18.6512C318.88 16.7828 315.53 12.3748 315.53 12.3748Z" fill="#3A362C"/>
<g opacity="0.79">
<path d="M315.53 12.3748C315.53 12.3748 313.94 5.53901 330.53 4.94605C330.53 4.94605 345.61 4.77823 344.96 9.84635L344.8 16.1675C339.549 18.8589 333.696 19.7242 328 18.6512C318.88 16.7828 315.53 12.3748 315.53 12.3748Z" fill="url(#paint3_linear_1348_16675)" style="mix-blend-mode:multiply"/>
</g>
<path d="M345 9.84635C341.992 11.3807 338.74 12.2256 335.436 12.3313C332.131 12.437 328.841 11.8013 325.76 10.4617L326.07 17.1744C332.163 19.3853 338.718 19.44 344.84 17.331L345 9.84635Z" fill="url(#paint4_linear_1348_16675)"/>
<path d="M320.13 73.0803C320.71 66.9493 321.82 46.4531 315.53 12.3748C315.53 12.3748 339.31 25.0955 355.53 12.0616C355.53 12.0616 353.28 23.9767 351.21 36.8987C349.21 49.5634 349.13 75.3626 345.43 84.2458C345.43 84.2458 331 91.3949 321.01 76.8171C320.308 75.7392 319.994 74.4053 320.13 73.0803Z" fill="url(#paint5_linear_1348_16675)"/>
<defs>
<filter id="filter0_i_1348_16675" x="-12" y="0" width="367.836" height="77.9302" filterUnits="userSpaceOnUse" color-interpolation-filters="sRGB">
<feFlood flood-opacity="0" result="BackgroundImageFix"/>
<feBlend mode="normal" in="SourceGraphic" in2="BackgroundImageFix" result="shape"/>
<feColorMatrix in="SourceAlpha" type="matrix" values="0 0 0 0 0 0 0 0 0 0 0 0 0 0 0 0 0 0 127 0" result="hardAlpha"/>
<feOffset dy="4"/>
<feGaussianBlur stdDeviation="25"/>
<feComposite in2="hardAlpha" operator="arithmetic" k2="-1" k3="1"/>
<feColorMatrix type="matrix" values="0 0 0 0 0.505882 0 0 0 0 0.435294 0 0 0 0 0.270588 0 0 0 0.6 0"/>
<feBlend mode="normal" in2="shape" result="effect1_innerShadow_1348_16675"/>
</filter>
<linearGradient id="paint0_linear_1348_16675" x1="165" y1="74" x2="166" y2="-3.7526e-06" gradientUnits="userSpaceOnUse">
<stop stop-color="#A79875"/>
<stop offset="0.473958" stop-color="#F6E7B3"/>
<stop offset="1" stop-color="#AA9668"/>
</linearGradient>
<linearGradient id="paint1_linear_1348_16675" x1="336" y1="37" x2="157" y2="37" gradientUnits="userSpaceOnUse">
<stop stop-color="#A79875"/>
<stop offset="1" stop-color="#AA9668" stop-opacity="0"/>
</linearGradient>
<linearGradient id="paint2_linear_1348_16675" x1="305" y1="42" x2="160" y2="44" gradientUnits="userSpaceOnUse">
<stop offset="0.335766" stop-color="#846F3A"/>
<stop offset="1" stop-color="#846F3A" stop-opacity="0"/>
</linearGradient>
<linearGradient id="paint3_linear_1348_16675" x1="330" y1="26.9986" x2="330.286" y2="4.94664" gradientUnits="userSpaceOnUse">
<stop stop-color="#D2BE8B"/>
<stop offset="1" stop-color="#5B4B22"/>
</linearGradient>
<linearGradient id="paint4_linear_1348_16675" x1="325.72" y1="14.3551" x2="344.96" y2="14.3551" gradientUnits="userSpaceOnUse">
<stop offset="0.04" stop-color="#E4D7B6"/>
<stop offset="1" stop-color="#413714"/>
</linearGradient>
<linearGradient id="paint5_linear_1348_16675" x1="312.46" y1="45.1106" x2="352.107" y2="48.8371" gradientUnits="userSpaceOnUse">
<stop stop-color="#BFAB75"/>
<stop offset="1" stop-color="#675B3D"/>
</linearGradient>
</defs>
</svg>
