<svg width="20" height="20" viewBox="0 0 20 20" fill="none" xmlns="http://www.w3.org/2000/svg">
<path d="M9.9954 19.9908C15.5157 19.9908 19.9908 15.5157 19.9908 9.9954C19.9908 4.47509 15.5157 0 9.9954 0C4.47509 0 0 4.47509 0 9.9954C0 15.5157 4.47509 19.9908 9.9954 19.9908Z" fill="#FF7F00"/>
<path d="M9.9954 15.8988C13.2558 15.8988 15.8988 13.2558 15.8988 9.9954C15.8988 6.73501 13.2558 4.09195 9.9954 4.09195C6.73501 4.09195 4.09195 6.73501 4.09195 9.9954C4.09195 13.2558 6.73501 15.8988 9.9954 15.8988Z" stroke="black" stroke-miterlimit="10" stroke-linecap="round"/>
<path d="M9.99539 12.3035C11.2701 12.3035 12.3034 11.2701 12.3034 9.99541C12.3034 8.72071 11.2701 7.68736 9.99539 7.68736C8.72069 7.68736 7.68735 8.72071 7.68735 9.99541C7.68735 11.2701 8.72069 12.3035 9.99539 12.3035Z" fill="black"/>
</svg>
