<svg width="20" height="20" viewBox="0 0 20 20" fill="none" xmlns="http://www.w3.org/2000/svg">
<path d="M9.9954 19.9908C15.5157 19.9908 19.9908 15.5157 19.9908 9.9954C19.9908 4.47509 15.5157 0 9.9954 0C4.47509 0 0 4.47509 0 9.9954C0 15.5157 4.47509 19.9908 9.9954 19.9908Z" fill="#FF7F00"/>
<path d="M12.3678 13.4368L10.4919 16.4468" stroke="black" stroke-miterlimit="10" stroke-linecap="round"/>
<path d="M8.62527 13.4368L10.5053 16.4468" stroke="black" stroke-miterlimit="10" stroke-linecap="round"/>
<path d="M13.977 8.1862L16.8092 10.0662" stroke="black" stroke-miterlimit="10" stroke-linecap="round"/>
<path d="M13.977 11.9287L16.8092 10.0529" stroke="black" stroke-miterlimit="10" stroke-linecap="round"/>
<path d="M10.4919 15V3" stroke="black" stroke-miterlimit="10" stroke-linecap="round"/>
<path d="M8.62527 6.0069L10.5053 3" stroke="black" stroke-miterlimit="10" stroke-linecap="round"/>
<path d="M12.3678 6.0069L10.4919 3" stroke="black" stroke-miterlimit="10" stroke-linecap="round"/>
<path d="M16 10L4 10.0529" stroke="black" stroke-miterlimit="10" stroke-linecap="round"/>
<path d="M6.48276 11.9287L4 10.0529" stroke="black" stroke-miterlimit="10" stroke-linecap="round"/>
<path d="M6.48276 8.1862L4 10.0662" stroke="black" stroke-miterlimit="10" stroke-linecap="round"/>
</svg>
