<svg width="40" height="40" viewBox="0 0 40 40" fill="none" xmlns="http://www.w3.org/2000/svg">
<path d="M20.0156 20.0703L34.1543 5.90394V5.88832L20.0156 0V20.0703Z" fill="#1A93E8"/>
<path d="M20.0156 20.0703V0L5.84567 5.85709V5.87271L20.0156 20.0703Z" fill="#BDEFFE"/>
<path d="M40 20.0078L34.1699 5.84146L20.0312 20.0078H40Z" fill="#44BFFC"/>
<path d="M5.89243 34.1273L19.9688 40L20.0312 39.9688V19.9766L5.89243 34.1273Z" fill="#147CE8"/>
<path d="M20.0156 20.0078L34.1232 34.1585L40 20.0234L39.9844 20.0078H20.0156Z" fill="#7DE0FD"/>
<path d="M20.0312 39.9844L34.1232 34.1585L34.1387 34.1273L20.0312 19.9766V39.9844Z" fill="#23A4E8"/>
<path d="M20.0312 19.9766H0.0155945L5.83009 34.1117L5.89245 34.1273L20.0312 19.9766Z" fill="#2CA8EF"/>
<path d="M5.87685 5.79462L0 19.9297L0.0155885 19.9766H20.0312L5.87685 5.79462Z" fill="#48C5F5"/>
<path d="M28.1995 11.6829L19.922 8.24677L11.629 11.6673L8.19952 19.9766L11.629 28.2702L19.9065 31.7063L28.1995 28.2702L31.629 19.9766L28.1995 11.6829Z" fill="url(#paint0_linear_1_272)"/>
<path d="M23.3705 21.4957C23.5313 21.6134 23.6626 21.7669 23.7539 21.9443C23.8453 22.1216 23.8942 22.3178 23.8967 22.5173C23.8409 22.8386 23.6695 23.1284 23.415 23.3318C23.1605 23.5352 22.8405 23.6381 22.5154 23.6212" stroke="white" stroke-width="0.5" stroke-miterlimit="10" stroke-linecap="round"/>
<path d="M14.9837 18.3487C14.7485 18.339 14.5169 18.4086 14.3259 18.5464C14.0995 18.7249 13.952 18.9851 13.9148 19.2714C13.8919 19.5132 13.9262 19.757 14.0147 19.9831C14.1033 20.2092 14.2437 20.4113 14.4246 20.573" stroke="white" stroke-width="0.5" stroke-miterlimit="10" stroke-linecap="round"/>
<path d="M18.4042 11.9227L25.163 14.4766L21.2162 24.9558L14.4575 22.4184L18.4042 11.9227ZM18.2233 11C18.1221 11.001 18.0236 11.0331 17.9412 11.092C17.8589 11.151 17.7966 11.2339 17.7629 11.3295L13.5859 22.4349C13.5622 22.4943 13.5507 22.5578 13.552 22.6218C13.5533 22.6858 13.5674 22.7488 13.5935 22.8072C13.6196 22.8656 13.6571 22.9181 13.7038 22.9617C13.7505 23.0053 13.8055 23.0391 13.8655 23.061L21.2327 25.8456H21.3971C21.4969 25.8482 21.595 25.8195 21.6776 25.7633C21.7603 25.7071 21.8232 25.6264 21.8576 25.5325L26.0345 14.4272C26.0585 14.3666 26.0702 14.3019 26.0691 14.2368C26.068 14.1716 26.0541 14.1073 26.0281 14.0476C26.0021 13.9879 25.9646 13.9339 25.9177 13.8888C25.8709 13.8436 25.8155 13.8082 25.755 13.7846L18.3878 11.033H18.2233V11Z" fill="white"/>
<path d="M18.9469 12.8454C18.8835 12.8464 18.8222 12.8678 18.7719 12.9064C18.7215 12.9449 18.6849 12.9986 18.6673 13.0596L18.5193 13.4386C18.5037 13.4763 18.496 13.5168 18.4967 13.5577C18.4975 13.5985 18.5066 13.6387 18.5236 13.6759C18.5406 13.713 18.565 13.7462 18.5954 13.7734C18.6258 13.8006 18.6615 13.8213 18.7002 13.834H18.7824H18.9469C19.0104 13.8351 19.0728 13.8168 19.1257 13.7815C19.1786 13.7462 19.2195 13.6955 19.2429 13.6363L19.358 13.2573C19.3738 13.2185 19.3817 13.1768 19.3811 13.1348C19.3805 13.0928 19.3716 13.0514 19.3547 13.013C19.3378 12.9745 19.3134 12.9399 19.2829 12.9111C19.2524 12.8823 19.2164 12.86 19.1771 12.8454H19.0949H18.9469Z" fill="white"/>
<path d="M13.4379 15.0533C13.3638 15.0555 13.2926 15.0828 13.2359 15.1306C13.1792 15.1785 13.1403 15.2441 13.1255 15.3169V15.7288C13.116 15.8094 13.1382 15.8906 13.1872 15.9551C13.2363 16.0197 13.3085 16.0626 13.3886 16.0748H13.5201C13.5951 16.0758 13.6679 16.0497 13.7253 16.0013C13.7827 15.9529 13.8207 15.8854 13.8326 15.8112V15.3993C13.8396 15.3591 13.8382 15.3178 13.8285 15.2781C13.8188 15.2385 13.8011 15.2012 13.7764 15.1687C13.7517 15.1363 13.7206 15.1092 13.685 15.0894C13.6494 15.0695 13.61 15.0572 13.5695 15.0533H13.4379Z" fill="white"/>
<path d="M21.43 27.1967C21.3857 27.1984 21.3422 27.2096 21.3025 27.2295C21.2628 27.2494 21.2278 27.2775 21.1998 27.312L20.9202 27.6086C20.8909 27.6377 20.8676 27.6723 20.8517 27.7105C20.8358 27.7487 20.8276 27.7897 20.8276 27.831C20.8276 27.8724 20.8358 27.9134 20.8517 27.9515C20.8676 27.9897 20.8909 28.0244 20.9202 28.0535C20.948 28.085 20.9822 28.1103 21.0204 28.1276C21.0587 28.1449 21.1002 28.1539 21.1422 28.1539C21.1842 28.1539 21.2257 28.1449 21.264 28.1276C21.3023 28.1103 21.3365 28.085 21.3642 28.0535L21.6273 27.7569C21.6828 27.6961 21.7136 27.6168 21.7136 27.5344C21.7136 27.4521 21.6828 27.3728 21.6273 27.312H21.5451C21.4919 27.2609 21.4215 27.2315 21.3478 27.2296L21.43 27.1967Z" fill="white"/>
<path d="M20.69 23.0281C20.6269 23.0291 20.5655 23.0483 20.513 23.0834C20.4605 23.1184 20.4192 23.1679 20.394 23.2258L20.2624 23.6047C20.2466 23.6436 20.2387 23.6853 20.2393 23.7273C20.2399 23.7693 20.2488 23.8107 20.2657 23.8491C20.2826 23.8876 20.307 23.9222 20.3375 23.951C20.368 23.9798 20.404 24.0021 20.4433 24.0167H20.5255H20.5913C20.6521 24.0145 20.7109 23.9947 20.7605 23.9596C20.8102 23.9244 20.8485 23.8756 20.8709 23.8189L21.0189 23.44C21.0347 23.4011 21.0426 23.3594 21.042 23.3175C21.0415 23.2755 21.0325 23.234 21.0156 23.1956C20.9987 23.1572 20.9743 23.1225 20.9438 23.0937C20.9133 23.065 20.8773 23.0426 20.838 23.0281H20.7558H20.69Z" fill="white"/>
<path d="M20.3282 17.08L20.7722 18.8265L19.2758 19.8481L18.8318 18.1015L20.3282 17.08ZM20.5913 15.8936H20.4762L18.0424 17.5413C18.0072 17.5556 17.9752 17.5769 17.9485 17.604C17.9218 17.6311 17.9008 17.6634 17.887 17.6989C17.8731 17.7343 17.8666 17.7723 17.8679 17.8103C17.8692 17.8484 17.8782 17.8858 17.8944 17.9203L18.618 20.7872C18.6423 20.8364 18.6798 20.8778 18.7263 20.9069C18.7727 20.936 18.8263 20.9516 18.8811 20.952C18.9182 20.9659 18.9591 20.9659 18.9962 20.952L21.43 19.3043C21.4652 19.29 21.4972 19.2687 21.5239 19.2416C21.5506 19.2145 21.5716 19.1822 21.5854 19.1468C21.5993 19.1113 21.6058 19.0734 21.6045 19.0353C21.6032 18.9972 21.5942 18.9598 21.578 18.9254L20.9202 16.0749C20.8976 16.0092 20.8514 15.9542 20.7907 15.9207C20.7299 15.8872 20.6588 15.8776 20.5913 15.8936Z" fill="white"/>
<path d="M15.7895 14.0482L12.5828 13.7681C12.5089 13.7589 12.4339 13.7651 12.3625 13.7863C12.2911 13.8074 12.2248 13.843 12.1677 13.8909C12.1107 13.9389 12.064 13.998 12.0308 14.0648C11.9975 14.1315 11.9783 14.2044 11.9743 14.2789L11.0041 25.3348C10.995 25.4088 11.0011 25.4839 11.0222 25.5555C11.0433 25.627 11.0789 25.6935 11.1267 25.7507C11.1745 25.8078 11.2336 25.8545 11.3002 25.8879C11.3668 25.9212 11.4395 25.9405 11.5139 25.9444L14.6219 26.2245" stroke="white" stroke-width="0.5" stroke-linecap="round" stroke-linejoin="round"/>
<path d="M25.7879 17.9202L28.1723 19.6833C28.2898 19.7747 28.3673 19.908 28.3888 20.0555C28.4103 20.2029 28.3739 20.3529 28.2874 20.4741L21.8905 29.4045C21.8479 29.4659 21.7935 29.518 21.7304 29.558C21.6674 29.5979 21.5971 29.6248 21.5235 29.6371C21.45 29.6493 21.3747 29.6468 21.3022 29.6295C21.2296 29.6122 21.1613 29.5805 21.1011 29.5364L15.1317 25.2689L15.6415 24.5109" stroke="white" stroke-width="0.5" stroke-linecap="round" stroke-linejoin="round"/>
<defs>
<linearGradient id="paint0_linear_1_272" x1="15.0074" y1="10.1133" x2="25.0328" y2="30.0016" gradientUnits="userSpaceOnUse">
<stop stop-color="#B7EEFF"/>
<stop offset="0.13" stop-color="#ADEAFF"/>
<stop offset="0.36" stop-color="#91DFFF"/>
<stop offset="0.66" stop-color="#63CEFF"/>
<stop offset="1" stop-color="#26B7FF"/>
</linearGradient>
</defs>
</svg>
