<svg width="5" height="10" viewBox="0 0 5 10" fill="none" xmlns="http://www.w3.org/2000/svg">
<path d="M1.91454 9.36168C1.9311 9.26173 1.98102 9.17085 2.0557 9.10469C2.11949 9.04263 2.18854 8.98654 2.26201 8.9371L2.56605 8.74716L2.84838 8.57956L3.21757 8.31141L3.51075 8.07678L3.85823 7.7751C3.96904 7.67287 4.07079 7.56071 4.16227 7.43992C4.26168 7.3282 4.35244 7.20866 4.43373 7.08238C4.51181 6.93467 4.57025 6.77683 4.60747 6.61311C4.60747 6.54607 4.60747 6.38965 4.67262 6.14384C4.73777 5.89804 4.67262 5.97625 4.67262 5.88687C4.70946 5.79065 4.753 5.6973 4.80292 5.60754L4.65091 5.69692C4.58332 5.74112 4.52439 5.79797 4.47717 5.86452C4.47717 5.94273 4.47717 5.95391 4.37944 6.07681C4.36692 6.11265 4.34422 6.14379 4.31429 6.16619C4.27836 6.18892 4.23702 6.20096 4.19484 6.20096C4.15267 6.20096 4.11132 6.18892 4.0754 6.16619C4.04061 6.14463 4.01278 6.11299 3.9954 6.07522C3.97801 6.03746 3.97185 5.99526 3.97767 5.9539C3.99724 5.87033 4.04304 5.79572 4.10798 5.74161C4.04546 5.73485 3.98566 5.71178 3.93424 5.67458C3.86909 5.67458 3.85823 5.55168 3.84737 5.45112C3.83651 5.35056 3.84737 5.11593 3.84737 4.91481C3.84737 4.7137 3.84737 4.49024 3.84737 4.36734C3.84737 4.24444 3.84737 4.18857 3.93424 4.14387C3.98566 4.10667 4.04546 4.0836 4.10798 4.07684C4.04304 4.02274 3.99724 3.94812 3.97767 3.86455C3.97103 3.82469 3.97693 3.78369 3.99451 3.74752C4.01208 3.71134 4.04042 3.68188 4.0754 3.66343C4.1103 3.63794 4.15204 3.62424 4.19484 3.62424C4.23764 3.62424 4.27939 3.63794 4.31429 3.66343C4.34669 3.68815 4.36973 3.72371 4.37944 3.76399C4.44459 3.87573 4.37944 3.89807 4.47717 3.96511C4.52439 4.03166 4.58332 4.08851 4.65091 4.13271L4.80292 4.22208C4.753 4.13233 4.70946 4.03898 4.67262 3.94276C4.67262 3.85337 4.67262 3.78634 4.67262 3.68578C4.67262 3.58523 4.67262 3.28356 4.60747 3.21652C4.56841 3.05338 4.51006 2.89578 4.43373 2.74725C4.35244 2.62097 4.26168 2.50142 4.16227 2.38971C4.07079 2.26892 3.96904 2.15675 3.85823 2.05453L3.51075 1.76402C3.41856 1.67534 3.32061 1.59321 3.21757 1.51822L2.84838 1.3618L2.56605 1.1942L2.26201 1.00426C2.10999 0.892529 2.07742 0.870181 2.0557 0.836662C1.98102 0.77051 1.9311 0.679637 1.91454 0.579688C1.9079 0.516558 1.9079 0.452869 1.91454 0.38974C1.86903 0.41077 1.83105 0.445938 1.80595 0.490302C1.7718 0.583946 1.7718 0.687158 1.80595 0.780802C1.85023 0.903366 1.92074 1.0141 2.01227 1.10481C2.11188 1.19719 2.21706 1.28303 2.32717 1.3618C2.47643 1.46225 2.618 1.57431 2.75065 1.69699C2.92081 1.85324 3.08044 2.02122 3.22843 2.19977C3.33995 2.32049 3.44507 2.44729 3.54333 2.57965C3.65168 2.71226 3.74292 2.85873 3.81479 3.0154C3.85255 3.16185 3.85255 3.31588 3.81479 3.46232C3.78414 3.57384 3.724 3.67441 3.64106 3.75282H3.53247C3.48231 3.76335 3.4306 3.76335 3.38045 3.75282H3.30444V3.94276C3.34761 3.93584 3.39156 3.93584 3.43474 3.94276C3.49989 3.94276 3.52161 4.03215 3.54333 4.08801C3.55023 4.15113 3.55023 4.21484 3.54333 4.27795C3.54333 4.4232 3.54333 4.65784 3.54333 4.8813C3.54333 5.10476 3.54333 5.32822 3.54333 5.47346C3.55072 5.53655 3.55072 5.60032 3.54333 5.6634C3.54333 5.73044 3.54332 5.78631 3.43474 5.80866H3.30444V5.98742H3.38045C3.4306 5.97689 3.48231 5.97689 3.53247 5.98742H3.64106C3.72437 6.07 3.78441 6.17425 3.81479 6.2891C3.85266 6.43173 3.85266 6.58221 3.81479 6.72484C3.74331 6.88519 3.65208 7.03539 3.54333 7.17176L3.22843 7.54047C3.079 7.72119 2.91947 7.8928 2.75065 8.05443L2.32717 8.37845C2.21706 8.45722 2.11188 8.54305 2.01227 8.63543C1.92074 8.72614 1.85023 8.83688 1.80595 8.95945C1.77078 9.0529 1.77078 9.15649 1.80595 9.24994C1.83105 9.2943 1.86903 9.32947 1.91454 9.3505C1.91456 9.35423 1.91456 9.35795 1.91454 9.36168Z" fill="#602B13"/>
<path d="M2.26193 1.26134L2.0339 1.0714C1.94238 0.980683 1.87186 0.869941 1.82759 0.747377C1.79343 0.653733 1.79343 0.550529 1.82759 0.456885C1.82759 0.389847 1.93618 0.367496 1.93618 0.356323C1.93048 0.419501 1.93048 0.483084 1.93618 0.546262C1.95274 0.646212 2.00266 0.737093 2.07733 0.803246C2.09523 0.807168 2.11373 0.807168 2.13163 0.803246C2.12803 0.84413 2.12803 0.885265 2.13163 0.926149C2.14303 0.963057 2.16149 0.997242 2.18592 1.0267C2.23333 1.09542 2.25979 1.1771 2.26193 1.26134Z" fill="#CFB53B"/>
<path d="M2.26193 8.64673L2.0339 8.83668C1.94238 8.92739 1.87186 9.03813 1.82759 9.16069C1.79242 9.25415 1.79242 9.35774 1.82759 9.45119C1.85269 9.49555 1.89066 9.53072 1.93617 9.55175C1.93048 9.48857 1.93048 9.42499 1.93617 9.36181C1.95274 9.26186 2.00266 9.17098 2.07733 9.10483L2.13163 9.04896C2.12944 9.00802 2.12944 8.96699 2.13163 8.92605C2.14303 8.88915 2.16149 8.85496 2.18592 8.8255C2.2244 8.77279 2.25043 8.71158 2.26193 8.64673Z" fill="#CFB53B"/>
<path d="M4.85727 4.30043L4.68353 4.21105C4.61594 4.16685 4.55701 4.11 4.50979 4.04345C4.47725 3.97812 4.44825 3.91097 4.42292 3.84234C4.36884 3.74776 4.34244 3.63913 4.34691 3.5295C4.36204 3.49001 4.36204 3.44608 4.34691 3.40659C4.33765 3.36877 4.31893 3.3341 4.29262 3.30603C4.29262 3.23899 4.22747 3.23899 4.20575 3.1943C4.19094 3.13948 4.19094 3.08153 4.20575 3.0267C4.20575 3.0267 4.20575 2.9485 4.20575 2.84794C4.19813 2.80735 4.19813 2.76563 4.20575 2.72504C4.22231 2.68841 4.24868 2.6574 4.28176 2.63565L4.41206 2.82559C4.48839 2.97412 4.54674 3.13172 4.5858 3.29486C4.5858 3.3619 4.5858 3.51832 4.65095 3.76413C4.71611 4.00993 4.65095 3.93172 4.65095 4.0211C4.7122 4.11985 4.7812 4.21327 4.85727 4.30043Z" fill="#CFB53B"/>
<path d="M4.85714 5.61884C4.80286 5.6367 4.75158 5.66308 4.70512 5.69705C4.64001 5.74444 4.58155 5.80084 4.53139 5.86464C4.53139 5.94285 4.53138 5.95403 4.44451 6.06576C4.39256 6.16122 4.36632 6.26922 4.36851 6.3786C4.38363 6.41809 4.38363 6.46201 4.36851 6.5015C4.36167 6.54026 4.34258 6.57562 4.31421 6.60207C4.31421 6.68028 4.24906 6.6691 4.22735 6.71379C4.21401 6.76882 4.21401 6.82637 4.22735 6.88139C4.22735 6.88139 4.22735 6.97077 4.22735 7.07133C4.21972 7.10816 4.21972 7.14623 4.22735 7.18306C4.2439 7.21969 4.27027 7.2507 4.30336 7.27245L4.43366 7.09367C4.5117 6.94201 4.5701 6.78049 4.6074 6.61323C4.6074 6.54619 4.6074 6.38978 4.67255 6.15514C4.7377 5.92051 4.67255 5.97637 4.67255 5.89816C4.72685 5.8002 4.78857 5.70681 4.85714 5.61884Z" fill="#CFB53B"/>
<path d="M1.83849 0.747375L0.285706 4.91491L1.83849 9.14949" stroke="black" stroke-width="0.0568965" stroke-miterlimit="10"/>
<path d="M3.92328 5.51827V4.3898H3.63089V5.51827H3.92328Z" fill="#8C1C24"/>
<path d="M3.91254 4.49022V4.401H3.62015V4.49022H3.91254Z" fill="#CFB53B"/>
<path d="M3.91254 5.51808V5.42886H3.62015V5.51808H3.91254Z" fill="#CFB53B"/>
<path d="M4.47612 4.94889L4.12958 4.83673V5.06105L4.47612 4.94889Z" fill="#999999"/>
<path d="M4.12958 5.05997V4.94846H4.47612L4.12958 5.05997Z" fill="#666666"/>
<path d="M4.13 4.90451L4.12926 4.98257L0.318076 4.94424L4.12926 4.98257L4.13 4.90451Z" fill="#C69C6D"/>
<path d="M0.654783 4.71381C0.405035 4.71381 0.448467 4.79202 0.448467 4.89258C0.448467 4.99314 0.394174 5.06017 0.643922 5.06017C0.89367 5.06017 1.36059 4.98196 1.36059 4.89258C1.36059 4.80319 0.904531 4.71381 0.654783 4.71381Z" fill="#C7B299"/>
<path d="M1.11092 4.82553C1.05678 4.82553 1.27337 4.88129 1.27337 4.91475C1.27337 4.9482 1.05678 4.99281 1.11092 4.99281C1.16507 4.99281 1.33834 4.99281 1.33834 4.91475C1.33834 4.83668 1.1759 4.82553 1.11092 4.82553Z" fill="#998675"/>
<path d="M0.937126 4.82553C0.937126 4.82553 1.09957 4.88129 1.09957 4.91475C1.09957 4.9482 0.882979 4.99281 0.937126 4.99281C0.991273 4.99281 1.16454 4.99281 1.16454 4.91475C1.16454 4.83668 1.0021 4.82553 0.937126 4.82553Z" fill="#998675"/>
<path d="M0.752612 4.82553C0.687635 4.82553 0.91505 4.88129 0.91505 4.91475C0.91505 4.9482 0.687635 4.99281 0.752612 4.99281C0.817588 4.99281 0.980028 4.99281 0.980028 4.91475C0.980028 4.83668 0.806759 4.82553 0.752612 4.82553Z" fill="#998675"/>
<path d="M0.546079 4.82553C0.481383 4.82553 0.707822 4.88105 0.707822 4.91436C0.707822 4.94767 0.481383 4.99209 0.546079 4.99209C0.610776 4.99209 0.761735 4.99209 0.761735 4.91436C0.761735 4.83664 0.599993 4.82553 0.546079 4.82553Z" fill="#998675"/>
</svg>
