<svg width="65" height="125" viewBox="0 0 65 125" fill="none" xmlns="http://www.w3.org/2000/svg">
<path d="M23.95 122.17C24.1819 120.829 24.8497 119.602 25.85 118.68C26.7136 117.82 27.689 117.08 28.75 116.48C30.34 115.48 31.52 114.75 32.96 113.9C35.12 112.61 36.2 111.97 36.96 111.53C38.02 110.86 39.96 109.66 42.18 107.97C42.88 107.45 44.01 106.52 46.26 104.68C49 102.44 50.38 101.31 51.09 100.68C52.5943 99.2582 54.0135 97.7489 55.34 96.16C56.6809 94.6469 57.8887 93.0208 58.95 91.3C60.25 89.19 60.57 87.84 61.41 84.91C61.68 83.97 61.88 81.8 62.41 78.58C62.5464 77.385 62.8113 76.2082 63.2 75.07C63.6835 73.7661 64.2686 72.5023 64.95 71.29C64.2044 71.5901 63.4963 71.976 62.84 72.44C61.9107 73.0265 61.1165 73.8036 60.51 74.72C59.86 75.72 60.01 75.91 59.11 77.52C58.8879 78.0133 58.5759 78.4609 58.19 78.84C57.7401 79.2491 57.1802 79.5173 56.5794 79.6115C55.9787 79.7057 55.3635 79.6218 54.81 79.37C54.3396 79.0894 53.9606 78.6784 53.7192 78.1867C53.4778 77.695 53.3843 77.1438 53.45 76.6C53.7451 75.4676 54.3888 74.4566 55.29 73.71C54.3882 73.5834 53.5304 73.2403 52.79 72.71C52.01 72.09 51.79 71.08 51.7 69.71C51.53 68.08 51.5 65.12 51.5 62.32C51.5 59.52 51.5 56.56 51.7 54.92C51.83 53.57 52.01 52.56 52.79 51.92C53.5304 51.3897 54.3882 51.0466 55.29 50.92C54.3888 50.1734 53.7451 49.1624 53.45 48.03C53.3838 47.4875 53.4771 46.9375 53.7187 46.4473C53.9602 45.9571 54.3395 45.548 54.81 45.27C55.362 45.0143 55.9772 44.9273 56.5785 45.0198C57.1798 45.1123 57.7404 45.3802 58.19 45.79C58.5759 46.1691 58.8879 46.6167 59.11 47.11C60.01 48.72 59.86 48.92 60.51 49.91C61.1182 50.8277 61.9119 51.6078 62.84 52.2C63.493 52.6936 64.2011 53.1097 64.95 53.44C64.2765 52.2281 63.7013 50.964 63.23 49.66C62.8413 48.5218 62.5764 47.345 62.44 46.15C61.95 42.94 61.75 40.76 61.44 39.83C60.6 36.9 60.28 35.54 58.98 33.43C57.8786 31.7183 56.6306 30.1056 55.25 28.61C53.9286 27.0165 52.5092 25.5069 51 24.09C50.29 23.42 48.91 22.29 46.17 20.09C43.92 18.25 42.79 17.32 42.09 16.8C39.83 15.11 37.93 13.91 36.87 13.25C36.16 12.8 35.08 12.16 32.87 10.88C31.43 10.02 30.25 9.33 28.66 8.29C27.5964 7.69411 26.6204 6.95374 25.76 6.09C24.7853 5.14818 24.149 3.91073 23.95 2.57C23.8603 1.70589 23.9419 0.832571 24.19 0C23.5226 0.262363 22.9626 0.74131 22.6 1.36C22.1718 2.63103 22.2073 4.01258 22.7 5.26C23.2946 6.90727 24.2554 8.39807 25.51 9.62C26.8608 10.9418 28.3493 12.1152 29.95 13.12C31.9945 14.5106 33.9608 16.0129 35.84 17.62C38.1812 19.8033 40.4044 22.1099 42.5 24.53C45.38 27.77 45.97 28.44 46.84 29.61C48.65 32.05 49.94 33.45 50.65 35.61C51.3902 37.5184 51.6043 39.5906 51.27 41.61C50.9242 43.1704 50.0779 44.5751 48.86 45.61C48.3761 45.9164 47.8596 46.1679 47.32 46.36C46.6722 46.663 45.9736 46.8428 45.26 46.89H44.11V49.34C44.7519 49.381 45.3848 49.5123 45.99 49.73C46.3577 49.9241 46.6759 50.1999 46.9204 50.5362C47.1648 50.8725 47.3289 51.2604 47.4 51.67C47.6797 52.5172 47.7984 53.4092 47.75 54.3C47.66 56.22 47.67 59.42 47.6 62.4C47.53 65.38 47.66 68.57 47.75 70.49C47.7984 71.3808 47.6797 72.2729 47.4 73.12C47.3249 73.5152 47.163 73.8888 46.9261 74.2138C46.6892 74.5389 46.3832 74.8074 46.03 75C45.4248 75.2177 44.7919 75.349 44.15 75.39V77.85C44.15 77.85 44.58 77.85 45.29 77.85C46.0038 77.8888 46.7033 78.0654 47.35 78.37C47.8878 78.5664 48.4038 78.8177 48.89 79.12C50.1079 80.1549 50.9542 81.5596 51.3 83.12C51.6343 85.1394 51.4202 87.2116 50.68 89.12C49.97 91.28 48.68 92.69 46.87 95.12C46 96.29 45.41 96.96 42.53 100.21C40.4314 102.627 38.2084 104.934 35.87 107.12C33.977 108.72 32.001 110.219 29.95 111.61C28.3528 112.615 26.8677 113.789 25.52 115.11C24.2654 116.332 23.3046 117.823 22.71 119.47C22.2164 120.717 22.181 122.099 22.61 123.37C22.9726 123.989 23.5326 124.468 24.2 124.73C23.9478 123.902 23.8628 123.031 23.95 122.17Z" fill="#602B13"/>
<path d="M28.69 12.23C27.5402 11.4756 26.4741 10.6006 25.51 9.62C24.2554 8.39807 23.2946 6.90727 22.7 5.26C22.2064 4.01275 22.171 2.6309 22.6 1.36C22.962 0.740804 23.5222 0.261687 24.19 0C23.9406 0.828891 23.859 1.6992 23.95 2.56C24.1819 3.90078 24.8497 5.12755 25.85 6.05C26.1003 6.33434 26.3821 6.5893 26.69 6.81C26.7316 7.37422 26.8528 7.92972 27.05 8.46C27.2552 8.91568 27.5029 9.35095 27.79 9.76C27.8666 9.87259 27.9367 9.98944 28 10.11C28.3142 10.7864 28.5458 11.4982 28.69 12.23Z" fill="#CFB53B"/>
<path d="M28.69 112.5C27.5425 113.258 26.4768 114.132 25.51 115.11C24.2581 116.334 23.2977 117.824 22.7 119.47C22.2064 120.717 22.171 122.099 22.6 123.37C22.962 123.989 23.5222 124.468 24.19 124.73C23.9271 123.904 23.8319 123.033 23.91 122.17C24.1447 120.83 24.8121 119.604 25.81 118.68C26.0603 118.396 26.3421 118.141 26.65 117.92C26.6916 117.356 26.8128 116.8 27.01 116.27C27.214 115.823 27.4619 115.398 27.75 115C27.82 114.89 27.89 114.78 27.96 114.65C28.2909 113.966 28.5361 113.244 28.69 112.5Z" fill="#CFB53B"/>
<path d="M64.95 53.43C64.2035 53.136 63.4951 52.7533 62.84 52.29C61.8996 51.6994 61.0925 50.9195 60.47 50C59.84 49 59.96 48.82 59.13 47.3C58.4352 45.9994 58.1133 44.532 58.2 43.06C58.2711 42.4851 58.2165 41.9017 58.04 41.35C57.8491 40.8613 57.5825 40.4058 57.25 40C56.57 39.06 56.36 39.1 56 38.52C55.6041 37.8183 55.3974 37.0257 55.4 36.22C55.4262 35.3909 55.5165 34.5651 55.67 33.75C55.7005 33.1989 55.8471 32.6605 56.1 32.17C56.385 31.694 56.7426 31.2655 57.16 30.9C57.814 31.7013 58.4121 32.5466 58.95 33.43C60.25 35.54 60.57 36.89 61.41 39.82C61.68 40.75 61.88 42.93 62.41 46.15C62.5475 47.3448 62.8123 48.5215 63.2 49.66C63.6821 50.9612 64.2673 52.2219 64.95 53.43Z" fill="#CFB53B"/>
<path d="M64.95 71.33C64.2058 71.6288 63.4979 72.0113 62.84 72.47C61.9119 73.0622 61.1182 73.8423 60.51 74.76C59.88 75.76 60 75.94 59.17 77.45C58.4752 78.7506 58.1533 80.218 58.24 81.69C58.3111 82.2649 58.2565 82.8483 58.08 83.4C57.8949 83.9006 57.6279 84.3669 57.29 84.78C56.61 85.78 56.4 85.68 56.04 86.27C55.642 86.9709 55.4351 87.764 55.44 88.57C55.456 89.3846 55.5328 90.1969 55.67 91C55.7029 91.5507 55.8493 92.0886 56.1 92.58C56.3875 93.0513 56.7449 93.4761 57.16 93.84C57.811 93.0469 58.4089 92.2118 58.95 91.34C60.25 89.23 60.57 87.87 61.41 84.94C61.68 84.01 61.88 81.83 62.41 78.62C62.5478 77.422 62.8126 76.242 63.2 75.1C63.6821 73.7988 64.2673 72.5381 64.95 71.33Z" fill="#CFB53B"/>
<path d="M22.71 5.29999L1 61.88L22.77 119.27" stroke="black" stroke-width="0.1" stroke-miterlimit="10" stroke-linecap="round"/>
<path d="M51.77 70.04V54.74H47.73V70.04H51.77Z" fill="#8C1C24"/>
<path d="M51.77 55.95V54.73H47.73V55.95H51.77Z" fill="#CFB53B"/>
<path d="M51.76 70.04V68.82H47.72V70.04H51.76Z" fill="#CFB53B"/>
<path d="M59.51 62.26L54.74 60.77V63.74L59.51 62.26Z" fill="#999999"/>
<path d="M54.74 63.74V62.26H59.51L54.74 63.74Z" fill="#666666"/>
<path d="M54.754 61.6657L54.743 62.7956L1.08555 62.2712C1.06434 62.271 1.04408 62.2623 1.02922 62.2472C1.01437 62.232 1.00614 62.2116 1.00635 62.1904L1.01612 61.1904C1.01633 61.1692 1.02495 61.149 1.0401 61.1341C1.05525 61.1192 1.07568 61.111 1.09689 61.1112L54.7543 61.6357L54.754 61.6657Z" fill="#C69C6D"/>
<path d="M6.28002 59.46C2.75002 59.46 3.42002 60.46 3.42002 61.8C3.42002 63.14 2.56002 64.13 6.08002 64.13C9.60002 64.13 16.19 63.13 16.19 61.8C16.19 60.47 9.80002 59.46 6.28002 59.46Z" fill="#8C1C24"/>
<path d="M12.68 60.62C11.89 60.62 14.96 61.38 14.96 61.8C14.96 62.22 11.89 62.94 12.68 62.94C13.47 62.94 15.84 62.21 15.84 61.8C15.84 61.39 13.47 60.62 12.68 60.62Z" fill="#998675"/>
<path d="M10.26 60.62C9.47002 60.62 12.54 61.38 12.54 61.8C12.54 62.22 9.47002 62.94 10.26 62.94C11.05 62.94 13.43 62.21 13.43 61.8C13.43 61.39 11.05 60.62 10.26 60.62Z" fill="#998675"/>
<path d="M7.56001 60.62C6.77001 60.62 9.85001 61.38 9.85001 61.8C9.85001 62.22 6.77001 62.94 7.56001 62.94C8.35001 62.94 10.73 62.21 10.73 61.8C10.73 61.39 8.35001 60.62 7.56001 60.62Z" fill="#998675"/>
<path d="M4.67002 60.6C3.88002 60.6 6.95002 61.36 6.95002 61.78C6.95002 62.2 3.88002 62.92 4.67002 62.92C5.46002 62.92 7.83002 62.19 7.83002 61.78C7.83002 61.37 5.46002 60.6 4.67002 60.6Z" fill="#998675"/>
</svg>
