<svg width="43" height="125" viewBox="0 0 43 125" fill="none" xmlns="http://www.w3.org/2000/svg">
<line x1="1.05" y1="1" x2="1.05" y2="122" stroke="black" stroke-width="0.1"/>
<path d="M1.95 122.17C2.18186 120.829 2.84973 119.602 3.85 118.68C4.71356 117.82 5.68899 117.08 6.75 116.48C8.34 115.48 9.52 114.75 10.96 113.9C13.12 112.61 14.2 111.97 14.96 111.53C16.02 110.86 17.96 109.66 20.18 107.97C20.88 107.45 22.01 106.52 24.26 104.68C27 102.44 28.38 101.31 29.09 100.68C30.5943 99.2582 32.0135 97.7489 33.34 96.16C34.6809 94.6469 35.8887 93.0208 36.95 91.3C38.25 89.19 38.57 87.84 39.41 84.91C39.68 83.97 39.88 81.8 40.41 78.58C40.5464 77.385 40.8113 76.2082 41.2 75.07C41.6835 73.7661 42.2686 72.5023 42.95 71.29C42.2044 71.5901 41.4963 71.976 40.84 72.44C39.9107 73.0265 39.1165 73.8036 38.51 74.72C37.86 75.72 38.01 75.91 37.11 77.52C36.8879 78.0133 36.5759 78.4609 36.19 78.84C35.7401 79.2491 35.1802 79.5173 34.5794 79.6115C33.9787 79.7057 33.3635 79.6218 32.81 79.37C32.3396 79.0894 31.9606 78.6784 31.7192 78.1867C31.4778 77.695 31.3843 77.1438 31.45 76.6C31.7451 75.4676 32.3888 74.4566 33.29 73.71C32.3882 73.5834 31.5304 73.2403 30.79 72.71C30.01 72.09 29.79 71.08 29.7 69.71C29.53 68.08 29.5 65.12 29.5 62.32C29.5 59.52 29.5 56.56 29.7 54.92C29.83 53.57 30.01 52.56 30.79 51.92C31.5304 51.3897 32.3882 51.0466 33.29 50.92C32.3888 50.1734 31.7451 49.1624 31.45 48.03C31.3838 47.4875 31.4771 46.9375 31.7187 46.4473C31.9602 45.9571 32.3395 45.548 32.81 45.27C33.362 45.0143 33.9772 44.9273 34.5785 45.0198C35.1798 45.1123 35.7404 45.3802 36.19 45.79C36.5759 46.1691 36.8879 46.6167 37.11 47.11C38.01 48.72 37.86 48.92 38.51 49.91C39.1182 50.8277 39.9119 51.6078 40.84 52.2C41.493 52.6936 42.2011 53.1097 42.95 53.44C42.2765 52.2281 41.7013 50.964 41.23 49.66C40.8413 48.5218 40.5764 47.345 40.44 46.15C39.95 42.94 39.75 40.76 39.44 39.83C38.6 36.9 38.28 35.54 36.98 33.43C35.8786 31.7183 34.6306 30.1056 33.25 28.61C31.9286 27.0165 30.5092 25.5069 29 24.09C28.29 23.42 26.91 22.29 24.17 20.09C21.92 18.25 20.79 17.32 20.09 16.8C17.83 15.11 15.93 13.91 14.87 13.25C14.16 12.8 13.08 12.16 10.87 10.88C9.43 10.02 8.25 9.33 6.66 8.29C5.59637 7.69411 4.62043 6.95374 3.76 6.09C2.78526 5.14818 2.14896 3.91073 1.95 2.57C1.86034 1.70589 1.94189 0.832571 2.19 0C1.52258 0.262363 0.962637 0.74131 0.600001 1.36C0.171837 2.63103 0.207262 4.01258 0.700001 5.26C1.29462 6.90727 2.25543 8.39807 3.51 9.62C4.86081 10.9418 6.3493 12.1152 7.95 13.12C9.99452 14.5106 11.9608 16.0129 13.84 17.62C16.1812 19.8033 18.4044 22.1099 20.5 24.53C23.38 27.77 23.97 28.44 24.84 29.61C26.65 32.05 27.94 33.45 28.65 35.61C29.3902 37.5184 29.6043 39.5906 29.27 41.61C28.9242 43.1704 28.0779 44.5751 26.86 45.61C26.3761 45.9164 25.8596 46.1679 25.32 46.36C24.6722 46.663 23.9736 46.8428 23.26 46.89H22.11V49.34C22.7519 49.381 23.3848 49.5123 23.99 49.73C24.3577 49.9241 24.6759 50.1999 24.9204 50.5362C25.1648 50.8725 25.3289 51.2604 25.4 51.67C25.6797 52.5172 25.7984 53.4092 25.75 54.3C25.66 56.22 25.67 59.42 25.6 62.4C25.53 65.38 25.66 68.57 25.75 70.49C25.7984 71.3808 25.6797 72.2729 25.4 73.12C25.3249 73.5152 25.163 73.8888 24.9261 74.2138C24.6892 74.5389 24.3832 74.8074 24.03 75C23.4248 75.2177 22.7919 75.349 22.15 75.39V77.85C22.15 77.85 22.58 77.85 23.29 77.85C24.0038 77.8888 24.7033 78.0654 25.35 78.37C25.8878 78.5664 26.4038 78.8177 26.89 79.12C28.1079 80.1549 28.9542 81.5596 29.3 83.12C29.6343 85.1394 29.4202 87.2116 28.68 89.12C27.97 91.28 26.68 92.69 24.87 95.12C24 96.29 23.41 96.96 20.53 100.21C18.4314 102.627 16.2084 104.934 13.87 107.12C11.977 108.72 10.001 110.219 7.95 111.61C6.35278 112.615 4.86767 113.789 3.52 115.11C2.26543 116.332 1.30462 117.823 0.710001 119.47C0.216401 120.717 0.180968 122.099 0.610001 123.37C0.972637 123.989 1.53258 124.468 2.2 124.73C1.94776 123.902 1.86278 123.031 1.95 122.17Z" fill="#602B13"/>
<path d="M6.69001 12.23C5.54018 11.4756 4.47414 10.6006 3.51 9.62C2.25543 8.39807 1.29462 6.90727 0.700006 5.26C0.206405 4.01275 0.170973 2.6309 0.600005 1.36C0.962036 0.740804 1.52218 0.261687 2.19001 0C1.94061 0.828891 1.85902 1.6992 1.95001 2.56C2.18186 3.90078 2.84974 5.12755 3.85001 6.05C4.10031 6.33434 4.38212 6.5893 4.69001 6.81C4.73161 7.37422 4.85281 7.92972 5.05001 8.46C5.25516 8.91568 5.50293 9.35095 5.79001 9.76C5.86659 9.87259 5.9367 9.98944 6 10.11C6.31418 10.7864 6.54585 11.4982 6.69001 12.23Z" fill="#CFB53B"/>
<path d="M6.69001 112.5C5.54251 113.258 4.4768 114.132 3.51 115.11C2.25812 116.334 1.29773 117.824 0.700006 119.47C0.206405 120.717 0.170973 122.099 0.600005 123.37C0.962036 123.989 1.52218 124.468 2.19001 124.73C1.92714 123.904 1.83194 123.033 1.91 122.17C2.14471 120.83 2.81211 119.604 3.81001 118.68C4.06031 118.396 4.34212 118.141 4.65001 117.92C4.69162 117.356 4.81281 116.8 5.01 116.27C5.21403 115.823 5.46191 115.398 5.75 115C5.82 114.89 5.89001 114.78 5.96001 114.65C6.2909 113.966 6.53608 113.244 6.69001 112.5Z" fill="#CFB53B"/>
<path d="M42.95 53.43C42.2035 53.136 41.4951 52.7533 40.84 52.29C39.8996 51.6994 39.0925 50.9195 38.47 50C37.84 49 37.96 48.82 37.13 47.3C36.4352 45.9994 36.1133 44.532 36.2 43.06C36.2711 42.4851 36.2165 41.9017 36.04 41.35C35.8491 40.8613 35.5825 40.4058 35.25 40C34.57 39.06 34.36 39.1 34 38.52C33.6041 37.8183 33.3974 37.0257 33.4 36.22C33.4262 35.3909 33.5165 34.5651 33.67 33.75C33.7005 33.1989 33.8471 32.6605 34.1 32.17C34.385 31.694 34.7426 31.2655 35.16 30.9C35.814 31.7013 36.4121 32.5466 36.95 33.43C38.25 35.54 38.57 36.89 39.41 39.82C39.68 40.75 39.88 42.93 40.41 46.15C40.5475 47.3448 40.8123 48.5215 41.2 49.66C41.6821 50.9612 42.2673 52.2219 42.95 53.43Z" fill="#CFB53B"/>
<path d="M42.95 71.33C42.2058 71.6288 41.4979 72.0113 40.84 72.47C39.9119 73.0622 39.1182 73.8423 38.51 74.76C37.88 75.76 38 75.94 37.17 77.45C36.4752 78.7506 36.1533 80.218 36.24 81.69C36.3111 82.2649 36.2565 82.8483 36.08 83.4C35.8949 83.9006 35.6279 84.3669 35.29 84.78C34.61 85.78 34.4 85.68 34.04 86.27C33.642 86.9709 33.4351 87.764 33.44 88.57C33.456 89.3846 33.5328 90.1969 33.67 91C33.7029 91.5507 33.8493 92.0886 34.1 92.58C34.3875 93.0513 34.7449 93.4761 35.16 93.84C35.811 93.0469 36.4089 92.2118 36.95 91.34C38.25 89.23 38.57 87.87 39.41 84.94C39.68 84.01 39.88 81.83 40.41 78.62C40.5478 77.422 40.8126 76.242 41.2 75.1C41.6821 73.7988 42.2673 72.5381 42.95 71.33Z" fill="#CFB53B"/>
<path d="M29.77 70.04V54.74H25.73V70.04H29.77Z" fill="#8C1C24"/>
<path d="M29.77 55.95V54.73H25.73V55.95H29.77Z" fill="#CFB53B"/>
<path d="M29.76 70.04V68.82H25.72V70.04H29.76Z" fill="#CFB53B"/>
</svg>
