<svg xmlns="http://www.w3.org/2000/svg" xmlns:xlink="http://www.w3.org/1999/xlink" viewBox="0 0 31.36 43.46"><defs><linearGradient id="Безымянный_градиент_13" x1="3.61" y1="13.75" x2="27.31" y2="13.75" gradientUnits="userSpaceOnUse"><stop offset="0.01" stop-color="#fccb00"/><stop offset="0.47" stop-color="#c9961a"/><stop offset="0.57" stop-color="#e4c875"/><stop offset="0.67" stop-color="#fffad2"/><stop offset="0.72" stop-color="#fcf2c1"/><stop offset="0.81" stop-color="#f3df94"/><stop offset="0.82" stop-color="#f2dc8e"/><stop offset="1" stop-color="#fffad2"/></linearGradient><linearGradient id="Безымянный_градиент_20" y1="32.98" x2="31.36" y2="32.98" gradientUnits="userSpaceOnUse"><stop offset="0.01" stop-color="#fccb00"/><stop offset="0.31" stop-color="#c9961a"/><stop offset="0.43" stop-color="#e4c875"/><stop offset="0.54" stop-color="#fffad2"/><stop offset="0.64" stop-color="#fcf2c1"/><stop offset="0.84" stop-color="#f3df94"/><stop offset="0.87" stop-color="#f2dc8e"/><stop offset="1" stop-color="#fffad2"/></linearGradient></defs><g id="Слой_2" data-name="Слой 2"><g id="значки"><path d="M4.36,7.18A11.77,11.77,0,0,1,12.62.29a13.34,13.34,0,0,1,10.6,2.32A9.73,9.73,0,0,1,27,7.74a12.26,12.26,0,0,1-.1,5.52c-.1.49-.21,1-.32,1.47a18.84,18.84,0,0,1-1.16,2.88c-.25.62.57,1.28.57,2.07a2.06,2.06,0,0,1-1,2,8,8,0,0,1-3,.7c-.79.06-1.7.48-1.77,1.26,0,.53.34,1,.39,1.53a1.69,1.69,0,0,1-.82,1.52,4.34,4.34,0,0,1-1.7.57,18.39,18.39,0,0,1-4.86.14,4.82,4.82,0,0,1-1.8-.45,2,2,0,0,1-1.12-1.4c-.14-.86.44-1.8,0-2.57A1.81,1.81,0,0,0,9,22.15,12.09,12.09,0,0,1,7.27,22a2.54,2.54,0,0,1-1.7-1.63,2.64,2.64,0,0,1,0-1.5,2.73,2.73,0,0,0,.21-1,2.6,2.6,0,0,0-.52-1,9.22,9.22,0,0,1-.66-1.19,10.75,10.75,0,0,1-.94-5.36A10.22,10.22,0,0,1,4.36,7.18Z" fill="url(#Безымянный_градиент_13)"/><path d="M11.52,13.78A3.65,3.65,0,0,0,8.2,15.32a2.31,2.31,0,0,0-.2,2.5,2.23,2.23,0,0,0,1.78.89,6.7,6.7,0,0,0,2-.34,3.7,3.7,0,0,0,1.48-.67,2.09,2.09,0,0,0,.59-1,2.38,2.38,0,0,0-.59-2.25,2.41,2.41,0,0,0-2.24-.65" fill="#5f4100"/><path d="M17.19,15.89a2.23,2.23,0,0,0,.75,1.85,4.32,4.32,0,0,0,1.88.79,3.77,3.77,0,0,0,2.37,0,2.13,2.13,0,0,0,1.17-1.83,2.63,2.63,0,0,0-.9-2,3.57,3.57,0,0,0-2.07-.87,3.3,3.3,0,0,0-2.21.35A2.67,2.67,0,0,0,17.19,15.89Z" fill="#5f4100"/><path d="M15.73,19.28,14.17,22a.07.07,0,0,0,.06.11h3.11A.07.07,0,0,0,17.4,22l-1.55-2.69A.07.07,0,0,0,15.73,19.28Z" fill="#5f4100"/><path d="M28.53,34.27c-1.07,0-1.46.81-2.53.93a6.21,6.21,0,0,1-3.5-.93l-3.22-1.5c.74-.38,1.48-.76,2.22-1.11a8.12,8.12,0,0,1,4.27-1.13c1.23.13,2.46.83,3.63.44a2.17,2.17,0,0,0,1.08-3.07c-.42-.64-1.17-1-1.53-1.71-.54-1.05,0-2.56-.86-3.38s-2.81,0-3.48.85-.27,1.66-.84,2.57a6.23,6.23,0,0,1-2.89,2.19c-1.84.9-3.58,1.81-5.26,2.7-2.15-1-4.22-1.89-6.21-2.89A3.84,3.84,0,0,1,7.5,26.88c-.66-1-.79-2.29-1.65-3.1a2.44,2.44,0,0,0-3-.19c-1.1.82-.63,2.06-1.25,3.07s-1.84,1.56-1.5,3a2.38,2.38,0,0,0,2.85,1.71c.83-.22,1.62-1.16,2.47-1.16a6.85,6.85,0,0,1,3,1c1.2.6,2.43,1.17,3.68,1.73q-2,1.07-4,2a4,4,0,0,1-2.25.67c-1.17-.09-2.29-.79-3.45-.62a2.45,2.45,0,0,0-2,2.28C.3,38.7,1.57,39.09,2,40.2s.09,2.42,1.45,3.06a2.4,2.4,0,0,0,3.12-1.19c.33-.78.08-2,.6-2.66a6.8,6.8,0,0,1,2.66-1.76c2-.93,3.93-2,5.91-3,1.56.7,3.1,1.4,4.59,2.14a8.05,8.05,0,0,1,3.53,2.66c.65,1,.86,2.45,1.89,3.13a2.16,2.16,0,0,0,3.08-1c.25-.73.09-1.56.41-2.26.49-1.08,2-1.58,2.12-2.76S29.61,34.28,28.53,34.27Z" fill="url(#Безымянный_градиент_20)"/></g></g></svg>