<svg width="12" height="11" viewBox="0 0 12 11" fill="none" xmlns="http://www.w3.org/2000/svg">
<path d="M0.378385 4.47904C0.623907 5.48678 1.64311 7.02351 3.07056 8.2795L5.98827 10.8506L8.93454 8.22926C10.4191 6.90826 11.5382 5.48678 11.6981 3.86139C11.8894 1.92275 10.3563 0.575154 8.66618 0.507183C8.14788 0.491357 7.63359 0.605666 7.16725 0.84034C6.70091 1.07501 6.2964 1.42307 5.98827 1.85478C5.62297 1.35992 5.13362 0.978166 4.57342 0.751002C4.01322 0.523838 3.40358 0.459952 2.81076 0.566288C2.39638 0.644913 2.00198 0.810691 1.65194 1.05337C1.30191 1.29605 1.00369 1.61047 0.775709 1.9772C0.547732 2.34393 0.394846 2.75516 0.326506 3.18549C0.258165 3.61581 0.275822 4.05607 0.378385 4.47904Z" fill="#006837"/>
</svg>
