<svg xmlns="http://www.w3.org/2000/svg" xmlns:xlink="http://www.w3.org/1999/xlink" viewBox="0 0 30 42.91"><defs><linearGradient id="Безымянный_градиент_149" x1="0.5" y1="28.25" x2="29.5" y2="28.25" gradientUnits="userSpaceOnUse"><stop offset="0.14" stop-color="#c1272d"/><stop offset="0.66" stop-color="#ff4b29"/><stop offset="1" stop-color="#c1272d"/></linearGradient></defs><g id="Слой_2" data-name="Слой 2"><g id="значки"><path d="M29.19,17.08a4.9,4.9,0,0,0-3.9-3H24.5a4.64,4.64,0,0,0-3.71,2.85,5,5,0,0,1-4.54,3.15H14.56A5.1,5.1,0,0,1,9.9,17.28a5.4,5.4,0,0,0-4.4-3.19H4.93a4.48,4.48,0,0,0-.89.15A4.91,4.91,0,0,0,.5,19.06v12a5,5,0,0,0,.43,2c1.1,2.42,4,7.72,9.57,9a31.38,31.38,0,0,0,9,0,16.67,16.67,0,0,0,8.73-7.51,13,13,0,0,0,1.27-4.49V18.83A4.52,4.52,0,0,0,29.19,17.08ZM16,31.67v3.92a1,1,0,0,1-1,1H14a1,1,0,0,1-1-1V31.67a3,3,0,0,1-1.45-3.13,3,3,0,0,1,5.95.55A3,3,0,0,1,16,31.67Z" stroke="#c1272d" stroke-miterlimit="10" fill="url(#Безымянный_градиент_149)"/><path d="M3.7,14.22A12,12,0,0,1,5.5,6.09a11.79,11.79,0,0,1,8-5,11.59,11.59,0,0,1,8,2,11.73,11.73,0,0,1,4,5,13.32,13.32,0,0,1,.93,6.28" fill="none" stroke="#c1272d" stroke-miterlimit="10" stroke-width="2"/></g></g></svg>