<svg width="40" height="40" viewBox="0 0 40 40" fill="none" xmlns="http://www.w3.org/2000/svg">
<path d="M20.23 2.50965C21.6935 2.50592 22.8783 1.94261 22.8765 1.25146C22.8746 0.5603 21.6867 0.00302481 20.2233 0.00674777C18.7599 0.0104707 17.575 0.573782 17.5769 1.26494C17.5788 1.9561 18.7666 2.51337 20.23 2.50965Z" fill="url(#paint0_linear_108_6)"/>
<path d="M23.408 4.80274L16.8659 4.87071L16.2363 2.80361C16.01 2.04394 16.907 1.33625 18.1126 1.32026L22.3629 1.27628C23.5973 1.27628 24.4984 1.99596 24.2021 2.76363L23.408 4.80274Z" fill="url(#paint1_linear_108_6)"/>
<path d="M17.7423 4.37492L18.0756 1.30426H17.8451L17.6435 1.33225L17.4296 1.37623L17.195 1.46419L17.0263 1.53216C16.7795 1.64011 16.87 1.77206 16.9482 2.01195L17.7423 4.37492Z" fill="url(#paint2_linear_108_6)"/>
<path d="M19.3099 4.203L19.9436 1.28427L18.6598 1.28827L19.3099 4.203Z" fill="url(#paint3_linear_108_6)"/>
<path d="M21.1944 4.21899L21.828 1.27228L20.5443 1.27628L21.1944 4.21899Z" fill="url(#paint4_linear_108_6)"/>
<path d="M22.3383 4.33894L23.3216 2.05194C23.3557 1.98513 23.3749 1.91206 23.3778 1.83755C23.3807 1.76303 23.3673 1.68876 23.3386 1.61963C23.3098 1.55049 23.2663 1.48807 23.2109 1.43647C23.1555 1.38487 23.0895 1.34526 23.0172 1.32026L22.6304 1.26428H22.2189L22.3383 4.33894Z" fill="url(#paint5_linear_108_6)"/>
<path d="M20.1348 5.34063C21.9459 5.33602 23.4134 5.07452 23.4126 4.75654C23.4117 4.43856 21.9428 4.18453 20.1317 4.18914C18.3206 4.19374 16.8531 4.45525 16.854 4.77323C16.8548 5.0912 18.3237 5.34524 20.1348 5.34063Z" fill="url(#paint6_linear_108_6)"/>
<path d="M21.5236 4.66681H18.668C18.434 4.66681 18.2442 4.85119 18.2442 5.07863V7.00979C18.2442 7.23723 18.434 7.42161 18.668 7.42161H21.5236C21.7576 7.42161 21.9474 7.23723 21.9474 7.00979V5.07863C21.9474 4.85119 21.7576 4.66681 21.5236 4.66681Z" fill="url(#paint7_linear_108_6)"/>
<path d="M25.8068 34.7497C24.0804 35.4965 22.2162 35.8957 20.3266 35.9232C18.437 35.9507 16.5613 35.6059 14.8127 34.9096C11.1653 33.471 8.25342 30.686 6.71522 27.165C5.12819 23.6305 5.00731 19.6369 6.37782 16.0178C7.03531 14.2333 8.05833 12.5968 9.38504 11.2072C10.7117 9.8177 12.3146 8.70397 14.0968 7.93336C15.8223 7.18643 17.6857 6.78682 19.5745 6.75865C21.4633 6.73048 23.3384 7.07432 25.0868 7.76943C32.5753 10.7042 36.3566 19.1964 33.5258 26.6652C32.8676 28.4494 31.8444 30.0856 30.5177 31.4751C29.1911 32.8645 27.5886 33.9785 25.8068 34.7497Z" fill="url(#paint8_linear_108_6)"/>
<path d="M27.0742 33.0032C34.2129 29.139 36.8328 20.4815 32.9258 13.6661C29.0189 6.85068 20.0645 4.45828 12.9258 8.32249C5.78709 12.1867 3.16722 20.8442 7.07418 27.6596C10.9811 34.475 19.9355 36.8674 27.0742 33.0032Z" fill="url(#paint9_linear_108_6)"/>
<path d="M23.2435 29.396C22.0585 29.9168 20.7784 30.2023 19.4784 30.236C18.1783 30.2696 16.8845 30.0506 15.6727 29.5919C14.4375 29.1192 13.3118 28.4118 12.3615 27.5111C11.4113 26.6103 10.6555 25.5343 10.1386 24.3462C9.04946 21.9034 8.9889 19.1432 9.96986 16.6576C10.4468 15.4153 11.1738 14.2779 12.1085 13.312C13.0432 12.346 14.1668 11.5709 15.4134 11.032C16.6001 10.5151 17.8809 10.2336 19.181 10.2041C20.481 10.1746 21.7741 10.3976 22.9842 10.8601C28.1439 12.8192 30.7032 18.6127 28.687 23.7745C28.2101 25.0162 27.483 26.153 26.5482 27.1183C25.6135 28.0836 24.49 28.8579 23.2435 29.396Z" fill="url(#paint10_linear_108_6)"/>
<path d="M10.5212 17.1214C10.9192 16.029 11.5382 15.0252 12.3417 14.1689C13.1451 13.3126 14.1168 12.6213 15.1995 12.1355C16.3056 11.6385 17.5026 11.3606 18.7206 11.318C19.9385 11.2755 21.1529 11.4691 22.293 11.8876C24.6718 12.7379 26.6128 14.4604 27.6995 16.6855C28.2529 17.7846 28.5743 18.98 28.645 20.2016C28.7156 21.4231 28.5341 22.6461 28.111 23.7984C27.7115 24.8928 27.0906 25.8984 26.2851 26.756C25.4795 27.6136 24.5055 28.306 23.4204 28.7923C18.7915 30.8794 13.1833 28.8322 10.9203 24.2303C10.3709 23.1306 10.0526 21.9355 9.98407 20.7149C9.91554 19.4942 10.0981 18.2726 10.5212 17.1214Z" fill="url(#paint11_radial_108_6)"/>
<path d="M10.5212 17.1214C13.4549 9.34075 24.4367 9.43671 27.9258 16.7695C30.1971 21.2595 28.1192 27.141 23.2764 29.0402C15.6521 32.1628 7.73153 24.6021 10.5212 17.1214ZM10.5212 17.1214C7.78502 24.5421 15.6685 31.9149 23.1365 28.7163C27.7283 26.8971 29.7404 21.1956 27.6049 16.9094C24.2721 9.62462 13.4919 9.43671 10.5212 17.1214Z" fill="#0071BC"/>
<path opacity="0.29" d="M14.8991 20.8597C14.5905 20.6438 15.0431 19.5363 15.3106 18.9805C15.7549 18.1209 16.6684 16.9214 17.2485 17.1054C17.59 17.2133 17.66 17.7531 17.6888 17.833C17.8287 18.6887 17.0305 19.4324 16.4544 19.9361C16.2569 20.152 15.2324 21.0876 14.8991 20.8597Z" fill="white"/>
<path opacity="0.33" d="M11.0643 23.3706C11.4305 23.4906 11.772 23.1867 14.2325 19.8242C15.3692 18.3257 16.4187 16.7666 17.3761 15.1542C18.4829 13.263 19.0219 12.3115 18.7503 11.9156C18.1743 11.116 15.1789 11.8277 13.134 13.391C11.4362 14.6668 10.3244 16.5416 10.0398 18.6087C9.78881 20.4999 10.1715 23.0788 11.0643 23.3706Z" fill="white"/>
<path opacity="0.22" d="M15.9607 26.9851C16.5614 26.6132 17.2773 27.3489 18.594 27.6528C20.0112 27.9228 21.481 27.7036 22.7497 27.033C23.8469 26.4005 24.7947 25.5504 25.5312 24.5381C26.1072 23.7745 26.4158 23.1347 26.6874 23.2027C26.9589 23.2707 27.1194 24.0983 26.9466 24.802C26.6956 25.8456 25.811 26.4533 24.3174 27.4449C23.5637 28.0076 22.7327 28.4652 21.8486 28.8043C20.6619 29.2109 19.3951 29.3477 18.1455 29.2041C17.2238 29.1001 15.8084 28.9402 15.5533 28.1446C15.4952 27.9338 15.5029 27.711 15.5754 27.5046C15.6479 27.2981 15.7821 27.1173 15.9607 26.9851Z" fill="white"/>
<circle cx="19.5" cy="13.5" r="1.5" fill="url(#paint12_radial_108_6)"/>
<circle cx="26.5" cy="20.5" r="1.5" fill="url(#paint13_radial_108_6)"/>
<circle cx="12.5" cy="20.5" r="1.5" fill="url(#paint14_radial_108_6)"/>
<circle cx="19.5" cy="27.5" r="1.5" fill="url(#paint15_radial_108_6)"/>
<path d="M26.1737 15.3346L20.0214 20.8989L19 19.5L26.1737 15.3346Z" fill="url(#paint16_linear_108_6)"/>
<path d="M24.7258 25.2346L18.1023 20.2403L19.2838 18.9738L24.7258 25.2346Z" fill="url(#paint17_linear_108_6)"/>
<circle cx="19.5" cy="20.5" r="1.5" fill="url(#paint18_radial_108_6)"/>
<defs>
<linearGradient id="paint0_linear_108_6" x1="17.9598" y1="0.180993" x2="22.3692" y2="2.29356" gradientUnits="userSpaceOnUse">
<stop offset="0.16" stop-color="#0091D2"/>
<stop offset="0.5" stop-color="#B9FFFF"/>
<stop offset="0.58" stop-color="#A2EEF7"/>
<stop offset="0.75" stop-color="#66C4E3"/>
<stop offset="0.98" stop-color="#0880C3"/>
<stop offset="1" stop-color="#007AC0"/>
</linearGradient>
<linearGradient id="paint1_linear_108_6" x1="16.5453" y1="4.43994" x2="22.2839" y2="-0.284528" gradientUnits="userSpaceOnUse">
<stop offset="0.15" stop-color="#FFFAD2"/>
<stop offset="0.18" stop-color="#FFF6C1"/>
<stop offset="0.25" stop-color="#FEEC94"/>
<stop offset="0.35" stop-color="#FDDC4C"/>
<stop offset="0.44" stop-color="#FCCB00"/>
<stop offset="0.82" stop-color="#C9961A"/>
</linearGradient>
<linearGradient id="paint2_linear_108_6" x1="16.6488" y1="2.3207" x2="18.2695" y2="2.87966" gradientUnits="userSpaceOnUse">
<stop offset="0.14" stop-color="#C58511"/>
<stop offset="0.43" stop-color="#E7BD6D"/>
<stop offset="0.49" stop-color="#EFC981"/>
<stop offset="0.63" stop-color="#EEC687"/>
<stop offset="0.79" stop-color="#C58511"/>
</linearGradient>
<linearGradient id="paint3_linear_108_6" x1="18.4036" y1="1.62988" x2="20.1352" y2="2.57423" gradientUnits="userSpaceOnUse">
<stop offset="0.14" stop-color="#C58511"/>
<stop offset="0.43" stop-color="#E7BD6D"/>
<stop offset="0.49" stop-color="#EFC981"/>
<stop offset="0.63" stop-color="#EEC687"/>
<stop offset="0.79" stop-color="#C58511"/>
</linearGradient>
<linearGradient id="paint4_linear_108_6" x1="20.8511" y1="0.962093" x2="22.2894" y2="3.45641" gradientUnits="userSpaceOnUse">
<stop offset="0.14" stop-color="#C58511"/>
<stop offset="0.43" stop-color="#E7BD6D"/>
<stop offset="0.49" stop-color="#EFC981"/>
<stop offset="0.63" stop-color="#EEC687"/>
<stop offset="0.79" stop-color="#C58511"/>
</linearGradient>
<linearGradient id="paint5_linear_108_6" x1="22.8157" y1="1.41134" x2="22.5146" y2="4.49323" gradientUnits="userSpaceOnUse">
<stop offset="0.14" stop-color="#C58511"/>
<stop offset="0.43" stop-color="#E7BD6D"/>
<stop offset="0.49" stop-color="#EFC981"/>
<stop offset="0.63" stop-color="#EEC687"/>
<stop offset="0.79" stop-color="#C58511"/>
</linearGradient>
<linearGradient id="paint6_linear_108_6" x1="17.3487" y1="5.36627" x2="19.781" y2="2.15544" gradientUnits="userSpaceOnUse">
<stop offset="0.01" stop-color="#FCCB00"/>
<stop offset="0.37" stop-color="#FBB03B"/>
<stop offset="0.78" stop-color="#C9961A"/>
</linearGradient>
<linearGradient id="paint7_linear_108_6" x1="18.2442" y1="6.04621" x2="21.9474" y2="6.04621" gradientUnits="userSpaceOnUse">
<stop offset="0.15" stop-color="#FFFAD2"/>
<stop offset="0.18" stop-color="#FFF6C1"/>
<stop offset="0.25" stop-color="#FEEC94"/>
<stop offset="0.35" stop-color="#FDDC4C"/>
<stop offset="0.44" stop-color="#FCCB00"/>
<stop offset="0.82" stop-color="#C9961A"/>
</linearGradient>
<linearGradient id="paint8_linear_108_6" x1="9.97795" y1="35.7702" x2="26.6378" y2="11.6069" gradientUnits="userSpaceOnUse">
<stop offset="0.21" stop-color="#C9962C"/>
<stop offset="0.27" stop-color="#CC9C34"/>
<stop offset="0.37" stop-color="#D6AC4A"/>
<stop offset="0.49" stop-color="#E5C56E"/>
<stop offset="0.58" stop-color="#F2DC8E"/>
<stop offset="0.64" stop-color="#EED684"/>
<stop offset="0.74" stop-color="#E5C669"/>
<stop offset="0.86" stop-color="#D6AB3E"/>
<stop offset="0.95" stop-color="#C9961A"/>
</linearGradient>
<linearGradient id="paint9_linear_108_6" x1="5.89388" y1="16.7648" x2="33.9791" y2="24.9869" gradientUnits="userSpaceOnUse">
<stop offset="0.09" stop-color="#FFFAD2"/>
<stop offset="0.12" stop-color="#FFF6C1"/>
<stop offset="0.17" stop-color="#FEEC94"/>
<stop offset="0.24" stop-color="#FDDC4C"/>
<stop offset="0.31" stop-color="#FCCB00"/>
<stop offset="0.49" stop-color="#F2DC8E"/>
<stop offset="0.69" stop-color="#FFFAD2"/>
<stop offset="0.89" stop-color="#C9961A"/>
</linearGradient>
<linearGradient id="paint10_linear_108_6" x1="17.1446" y1="27.9966" x2="22.1851" y2="8.98441" gradientUnits="userSpaceOnUse">
<stop offset="0.07" stop-color="#C9961A"/>
<stop offset="0.22" stop-color="#E4C875"/>
<stop offset="0.29" stop-color="#F0DFA0"/>
<stop offset="0.6" stop-color="#F2DC8E"/>
<stop offset="0.71" stop-color="#FCCB00"/>
<stop offset="0.95" stop-color="#C9961A"/>
</linearGradient>
<radialGradient id="paint11_radial_108_6" cx="0" cy="0" r="1" gradientUnits="userSpaceOnUse" gradientTransform="translate(19.3077 20.4605) rotate(-164.674) scale(9.35783 9.13079)">
<stop stop-color="white"/>
<stop offset="0.02" stop-color="#F4FBFD"/>
<stop offset="0.14" stop-color="#BCE6F5"/>
<stop offset="0.25" stop-color="#8AD3EE"/>
<stop offset="0.37" stop-color="#5FC4E8"/>
<stop offset="0.49" stop-color="#3DB7E4"/>
<stop offset="0.61" stop-color="#22ADE0"/>
<stop offset="0.74" stop-color="#0FA6DD"/>
<stop offset="0.87" stop-color="#04A1DC"/>
<stop offset="1" stop-color="#00A0DB"/>
</radialGradient>
<radialGradient id="paint12_radial_108_6" cx="0" cy="0" r="1" gradientUnits="userSpaceOnUse" gradientTransform="translate(19.5 13.5) rotate(90) scale(1.5)">
<stop stop-color="#FFF6C1"/>
<stop offset="0.534722" stop-color="#FDDC4C"/>
<stop offset="0.930555" stop-color="#FDDC4C"/>
</radialGradient>
<radialGradient id="paint13_radial_108_6" cx="0" cy="0" r="1" gradientUnits="userSpaceOnUse" gradientTransform="translate(26.5 20.5) rotate(90) scale(1.5)">
<stop stop-color="#FFF6C1"/>
<stop offset="0.534722" stop-color="#FDDC4C"/>
<stop offset="0.930555" stop-color="#FDDC4C"/>
</radialGradient>
<radialGradient id="paint14_radial_108_6" cx="0" cy="0" r="1" gradientUnits="userSpaceOnUse" gradientTransform="translate(12.5 20.5) rotate(90) scale(1.5)">
<stop stop-color="#FFF6C1"/>
<stop offset="0.534722" stop-color="#FDDC4C"/>
<stop offset="0.930555" stop-color="#FDDC4C"/>
</radialGradient>
<radialGradient id="paint15_radial_108_6" cx="0" cy="0" r="1" gradientUnits="userSpaceOnUse" gradientTransform="translate(19.5 27.5) rotate(90) scale(1.5)">
<stop stop-color="#FFF6C1"/>
<stop offset="0.534722" stop-color="#FDDC4C"/>
<stop offset="0.930555" stop-color="#FDDC4C"/>
</radialGradient>
<linearGradient id="paint16_linear_108_6" x1="26.1737" y1="15.3346" x2="19.5107" y2="20.1994" gradientUnits="userSpaceOnUse">
<stop offset="0.173439" stop-color="#FFFAD2"/>
<stop offset="0.461805" stop-color="#FDDC4C"/>
<stop offset="0.725451" stop-color="#FCCB00"/>
</linearGradient>
<linearGradient id="paint17_linear_108_6" x1="24.7258" y1="25.2346" x2="16.6821" y2="17.7312" gradientUnits="userSpaceOnUse">
<stop stop-color="#FFFAD2"/>
<stop offset="0.388889" stop-color="#FDD21C"/>
<stop offset="1" stop-color="#FCCB00"/>
</linearGradient>
<radialGradient id="paint18_radial_108_6" cx="0" cy="0" r="1" gradientUnits="userSpaceOnUse" gradientTransform="translate(19.5 20.5) rotate(90) scale(1.5)">
<stop offset="0.154514" stop-color="#FFF6C1"/>
<stop offset="0.425347" stop-color="#FDDC4C"/>
<stop offset="0.873264" stop-color="#F3DF3D"/>
</radialGradient>
</defs>
</svg>
