<svg width="40" height="40" viewBox="0 0 40 40" fill="none" xmlns="http://www.w3.org/2000/svg">
<path d="M20.0156 20.0703L34.1543 5.90394V5.88832L20.0156 0V20.0703Z" fill="#1A93E8"/>
<path d="M20.0156 20.0703V0L5.84567 5.85709V5.87271L20.0156 20.0703Z" fill="#BDEFFE"/>
<path d="M40 20.0078L34.1699 5.84146L20.0312 20.0078H40Z" fill="#44BFFC"/>
<path d="M5.89243 34.1273L19.9688 40L20.0312 39.9688V19.9766L5.89243 34.1273Z" fill="#147CE8"/>
<path d="M20.0156 20.0078L34.1232 34.1585L40 20.0234L39.9844 20.0078H20.0156Z" fill="#7DE0FD"/>
<path d="M20.0312 39.9844L34.1232 34.1585L34.1387 34.1273L20.0312 19.9766V39.9844Z" fill="#23A4E8"/>
<path d="M20.0312 19.9766H0.0155945L5.83009 34.1117L5.89245 34.1273L20.0312 19.9766Z" fill="#2CA8EF"/>
<path d="M5.87685 5.79462L0 19.9297L0.0155885 19.9766H20.0312L5.87685 5.79462Z" fill="#48C5F5"/>
<path d="M28.1995 11.6829L19.922 8.24677L11.629 11.6673L8.19952 19.9766L11.629 28.2702L19.9065 31.7063L28.1995 28.2702L31.629 19.9766L28.1995 11.6829Z" fill="url(#paint0_linear_1_296)"/>
<path d="M33.3705 21.4957C33.5313 21.6134 33.6626 21.7669 33.7539 21.9442C33.8453 22.1215 33.8942 22.3177 33.8967 22.5173C33.8409 22.8386 33.6695 23.1284 33.415 23.3317C33.1605 23.5351 32.8405 23.6381 32.5154 23.6212" stroke="white" stroke-width="0.5" stroke-miterlimit="10" stroke-linecap="round"/>
<path d="M24.9837 18.3487C24.7485 18.339 24.5169 18.4086 24.3259 18.5464C24.0995 18.7249 23.952 18.9851 23.9148 19.2714C23.8919 19.5132 23.9262 19.757 24.0147 19.9831C24.1033 20.2092 24.2437 20.4113 24.4246 20.573" stroke="white" stroke-width="0.5" stroke-miterlimit="10" stroke-linecap="round"/>
<path d="M28.4042 11.9227L35.163 14.4766L31.2162 24.9558L24.4575 22.4184L28.4042 11.9227M28.2233 11C28.1221 11.001 28.0236 11.0331 27.9412 11.092C27.8589 11.151 27.7966 11.2339 27.7629 11.3295L23.5859 22.4349C23.5622 22.4943 23.5507 22.5578 23.552 22.6218C23.5533 22.6858 23.5674 22.7488 23.5935 22.8072C23.6196 22.8656 23.6571 22.9181 23.7038 22.9617C23.7505 23.0053 23.8055 23.0391 23.8655 23.061L31.2327 25.8456H31.3971C31.4969 25.8482 31.595 25.8195 31.6776 25.7633C31.7603 25.7071 31.8232 25.6264 31.8576 25.5325L36.0345 14.4272C36.0585 14.3666 36.0702 14.3019 36.0691 14.2368C36.068 14.1716 36.0541 14.1073 36.0281 14.0476C36.0021 13.9879 35.9646 13.9339 35.9177 13.8888C35.8709 13.8436 35.8155 13.8082 35.755 13.7846L28.3878 11.033H28.2233V11Z" fill="white"/>
<path d="M28.9469 12.8454C28.8835 12.8464 28.8222 12.8678 28.7719 12.9063C28.7215 12.9449 28.6849 12.9986 28.6673 13.0596L28.5193 13.4386C28.5037 13.4763 28.496 13.5168 28.4967 13.5577C28.4975 13.5985 28.5066 13.6387 28.5236 13.6758C28.5406 13.713 28.565 13.7462 28.5954 13.7734C28.6258 13.8006 28.6615 13.8212 28.7002 13.834H28.7824H28.9469C29.0104 13.8351 29.0728 13.8168 29.1257 13.7815C29.1786 13.7461 29.2195 13.6955 29.2429 13.6363L29.358 13.2573C29.3738 13.2184 29.3817 13.1768 29.3811 13.1348C29.3805 13.0928 29.3716 13.0514 29.3547 13.0129C29.3378 12.9745 29.3134 12.9399 29.2829 12.9111C29.2524 12.8823 29.2164 12.86 29.1771 12.8454H29.0949H28.9469Z" fill="white"/>
<path d="M23.4379 15.0533C23.3638 15.0555 23.2926 15.0828 23.2359 15.1306C23.1792 15.1785 23.1403 15.2441 23.1255 15.3169V15.7288C23.116 15.8094 23.1382 15.8906 23.1872 15.9551C23.2363 16.0197 23.3085 16.0626 23.3886 16.0748H23.5201C23.5951 16.0758 23.6679 16.0497 23.7253 16.0013C23.7827 15.9529 23.8207 15.8854 23.8326 15.8112V15.3993C23.8396 15.3591 23.8382 15.3178 23.8285 15.2781C23.8188 15.2385 23.8011 15.2012 23.7764 15.1687C23.7517 15.1363 23.7206 15.1092 23.685 15.0894C23.6494 15.0695 23.61 15.0572 23.5695 15.0533H23.4379Z" fill="white"/>
<path d="M31.43 27.1967C31.3857 27.1984 31.3422 27.2096 31.3025 27.2295C31.2628 27.2494 31.2278 27.2775 31.1998 27.312L30.9202 27.6086C30.8909 27.6377 30.8676 27.6724 30.8517 27.7105C30.8358 27.7487 30.8276 27.7897 30.8276 27.831C30.8276 27.8724 30.8358 27.9134 30.8517 27.9515C30.8676 27.9897 30.8909 28.0244 30.9202 28.0535V28.0535C30.948 28.085 30.9822 28.1103 31.0204 28.1276C31.0587 28.1449 31.1002 28.1539 31.1422 28.1539C31.1842 28.1539 31.2257 28.1449 31.264 28.1276C31.3023 28.1103 31.3365 28.085 31.3642 28.0535L31.6273 27.7569C31.6828 27.6961 31.7136 27.6168 31.7136 27.5345C31.7136 27.4521 31.6828 27.3728 31.6273 27.312H31.5451C31.4919 27.2609 31.4215 27.2315 31.3478 27.2296L31.43 27.1967Z" fill="white"/>
<path d="M30.69 23.0281C30.6269 23.0291 30.5655 23.0483 30.513 23.0834C30.4605 23.1184 30.4192 23.1679 30.394 23.2258L30.2624 23.6048C30.2466 23.6436 30.2387 23.6853 30.2393 23.7273C30.2399 23.7693 30.2488 23.8107 30.2657 23.8491C30.2826 23.8876 30.307 23.9222 30.3375 23.951C30.368 23.9798 30.404 24.0021 30.4433 24.0167H30.5255H30.5913C30.6521 24.0145 30.7109 23.9947 30.7605 23.9596C30.8102 23.9245 30.8485 23.8756 30.8709 23.819L31.0189 23.44C31.0347 23.4011 31.0426 23.3595 31.042 23.3175C31.0415 23.2755 31.0325 23.234 31.0156 23.1956C30.9987 23.1572 30.9743 23.1225 30.9438 23.0938C30.9133 23.065 30.8773 23.0426 30.838 23.0281H30.7558H30.69Z" fill="white"/>
<path d="M30.3282 17.08L30.7722 18.8265L29.2758 19.8481L28.8318 18.1015L30.3282 17.08ZM30.5913 15.8936H30.4762L28.0424 17.5413C28.0072 17.5556 27.9752 17.5769 27.9485 17.604C27.9218 17.6311 27.9008 17.6634 27.887 17.6989C27.8731 17.7343 27.8666 17.7723 27.8679 17.8103C27.8692 17.8484 27.8782 17.8858 27.8944 17.9203L28.618 20.7872C28.6423 20.8364 28.6798 20.8778 28.7263 20.9069C28.7727 20.936 28.8263 20.9516 28.8811 20.952C28.9182 20.9659 28.9591 20.9659 28.9962 20.952L31.43 19.3043C31.4652 19.29 31.4972 19.2687 31.5239 19.2416C31.5506 19.2145 31.5716 19.1822 31.5854 19.1468C31.5993 19.1113 31.6058 19.0734 31.6045 19.0353C31.6032 18.9972 31.5942 18.9598 31.578 18.9254L30.9202 16.0749C30.8976 16.0092 30.8514 15.9542 30.7907 15.9207C30.7299 15.8872 30.6588 15.8776 30.5913 15.8936Z" fill="white"/>
<path d="M25.7895 14.0482L22.5828 13.7681C22.5089 13.759 22.4339 13.7651 22.3625 13.7863C22.2911 13.8074 22.2248 13.843 22.1677 13.891C22.1107 13.9389 22.064 13.998 22.0308 14.0648C21.9975 14.1315 21.9783 14.2044 21.9743 14.2789L21.0041 25.3348C20.995 25.4088 21.0011 25.484 21.0222 25.5555C21.0433 25.6271 21.0789 25.6935 21.1267 25.7507C21.1745 25.8079 21.2336 25.8546 21.3002 25.8879C21.3668 25.9212 21.4395 25.9405 21.5139 25.9444L24.6219 26.2245" stroke="white" stroke-width="0.5" stroke-linecap="round" stroke-linejoin="round"/>
<path d="M35.7879 17.9202L38.1723 19.6832C38.2898 19.7746 38.3673 19.908 38.3888 20.0555C38.4103 20.2029 38.3739 20.3529 38.2874 20.4741L31.8905 29.4045C31.8479 29.4658 31.7935 29.518 31.7304 29.5579C31.6674 29.5979 31.5971 29.6248 31.5235 29.637C31.45 29.6493 31.3747 29.6467 31.3022 29.6295C31.2296 29.6122 31.1613 29.5805 31.1011 29.5363L25.1317 25.2689L25.6415 24.5109" stroke="white" stroke-width="0.5" stroke-linecap="round" stroke-linejoin="round"/>
<defs>
<linearGradient id="paint0_linear_1_296" x1="15.0074" y1="10.1133" x2="25.0328" y2="30.0016" gradientUnits="userSpaceOnUse">
<stop stop-color="#B7EEFF"/>
<stop offset="0.13" stop-color="#ADEAFF"/>
<stop offset="0.36" stop-color="#91DFFF"/>
<stop offset="0.66" stop-color="#63CEFF"/>
<stop offset="1" stop-color="#26B7FF"/>
</linearGradient>
</defs>
</svg>
