<svg xmlns="http://www.w3.org/2000/svg" viewBox="0 0 36.26 81.92"><g style="isolation:isolate"><g id="Слой_2" data-name="Слой 2"><g id="значки"><path d="M21.87,62.49l1,6.68a3.21,3.21,0,0,1-.19,1.68l-2.6,6.5H16.51l-2.6-6.5a3.21,3.21,0,0,1-.2-1.68l1-6.68Z" fill="#754c24"/><path d="M17.16,76.38h2.26l2.26-5.63A3.33,3.33,0,0,0,21.87,69L21,63.46H15.55L14.71,69a3.23,3.23,0,0,0,.2,1.71Z" fill="#999" stroke="#000" stroke-miterlimit="10" stroke-width="0.1"/><path d="M19.93,64.75l.64,4.33a2.51,2.51,0,0,1-.15,1.33l-1.87,4.68H18l-1.88-4.68A2.62,2.62,0,0,1,16,69.08l.65-4.33Z" fill="#e6e6e6" stroke="#000" stroke-miterlimit="10" stroke-width="0.1" opacity="0.25" style="mix-blend-mode:screen"/><polygon points="6.23 59.26 30.04 59.26 31.7 57.6 36.26 62.17 31.7 66.73 29.71 64.75 6.55 64.75 4.57 66.73 0 62.17 4.57 57.6 6.23 59.26" fill="#754c24"/><polygon points="5.96 59.91 30.3 59.91 31.7 58.52 35.35 62.17 31.7 65.82 29.98 64.11 6.28 64.11 4.57 65.82 0.91 62.17 4.57 58.52 5.96 59.91"/><polygon points="4.57 59.88 2.28 62.17 4.57 64.45 5.88 63.14 30.38 63.14 31.7 64.45 33.98 62.17 31.7 59.88 30.7 60.88 5.56 60.88 4.57 59.88" fill="#a67c52"/><polygon points="6.18 62.17 30.4 62.17 31.7 60.88 33.63 62.49 31.7 64.51 30.65 63.46 5.62 63.46 4.57 64.51 2.63 62.49 4.57 60.88 6.18 62.17" fill="#c69c6d" opacity="0.12" style="mix-blend-mode:multiply"/><polygon points="18.13 0 10.7 15.99 13.29 59.26 22.98 59.26 25.56 15.99 18.13 0" fill="gray"/><polygon points="24.43 16.23 22.07 59.1 14.19 59.1 11.83 16.23 18.13 1.53 24.43 16.23" fill="#e6e6e6"/><polygon points="19.59 17.58 18.67 59.1 17.92 59.1 17 17.58 18.29 10.06 19.59 17.58" stroke="#000" stroke-miterlimit="10" opacity="0.41" style="mix-blend-mode:multiply"/><polygon points="18.94 17.63 18.29 46.84 17.65 17.63 18.29 13.87 18.94 17.63" fill="#f2f2f2" stroke="#000" stroke-miterlimit="10" opacity="0.48" style="mix-blend-mode:screen"/><polygon points="20.12 75.41 22 78.67 20.12 81.92 16.36 81.92 14.48 78.67 16.36 75.41 20.12 75.41" fill="#754c24"/><polygon points="16.92 80.95 19.56 80.95 20.88 78.67 19.56 76.38 16.92 76.38 15.6 78.67 16.92 80.95" fill="#999" stroke="#000" stroke-miterlimit="10" stroke-width="0.1"/><polygon points="18.81 77.67 19.39 78.67 18.81 79.66 17.66 79.66 17.09 78.67 17.66 77.67 18.81 77.67" fill="#e6e6e6" stroke="#000" stroke-miterlimit="10" stroke-width="0.1" opacity="0.19" style="mix-blend-mode:screen"/></g></g></g></svg>