<svg xmlns="http://www.w3.org/2000/svg" xmlns:xlink="http://www.w3.org/1999/xlink" viewBox="0 0 33.7 36.19"><defs><linearGradient id="Безымянный_градиент_413" x1="14.52" y1="36.18" x2="14.52" gradientUnits="userSpaceOnUse"><stop offset="0.01" stop-color="#cd7f32"/><stop offset="0.25" stop-color="#c9961a"/><stop offset="0.36" stop-color="#e4c875"/><stop offset="0.47" stop-color="#fffad2"/><stop offset="0.53" stop-color="#fcf2c1"/><stop offset="0.64" stop-color="#f3df94"/><stop offset="0.65" stop-color="#f2dc8e"/><stop offset="1" stop-color="#cd7f32"/></linearGradient><linearGradient id="Безымянный_градиент_411" x1="21.64" y1="36.19" x2="21.64" y2="18.01" gradientUnits="userSpaceOnUse"><stop offset="0" stop-color="#f2dc8e"/><stop offset="0.13" stop-color="#ca8e22"/><stop offset="0.23" stop-color="#aa692e"/><stop offset="0.47" stop-color="#fffad2"/><stop offset="0.5" stop-color="#faf1c1"/><stop offset="0.57" stop-color="#edd894"/><stop offset="0.65" stop-color="#d8b14c"/><stop offset="0.71" stop-color="#c9961a"/><stop offset="0.87" stop-color="#cb8b26"/><stop offset="1" stop-color="#cd7f32"/></linearGradient></defs><g id="Слой_2" data-name="Слой 2"><g id="значки"><path d="M9.58,36.18h0Z" fill="none"/><path d="M29,4.66V31.52H14a4.66,4.66,0,0,1-4.41,4.66H9.07a4.66,4.66,0,0,1-4.41-4.66V4.66A4.66,4.66,0,0,0,0,0H24.37A4.67,4.67,0,0,1,29,4.66Z" fill="url(#Безымянный_градиент_413)"/><path d="M33.7,31.52A4.67,4.67,0,0,1,29,36.19H9.58A4.66,4.66,0,0,0,14,31.52Z" fill="url(#Безымянный_градиент_411)"/><path d="M28.78,36.18h0Z" fill="none"/></g></g></svg>