<svg xmlns="http://www.w3.org/2000/svg" xmlns:xlink="http://www.w3.org/1999/xlink" viewBox="0 0 23.57 23.54"><defs><linearGradient id="Безымянный_градиент_150" x1="0.01" y1="11.77" x2="23.54" y2="11.77" gradientUnits="userSpaceOnUse"><stop offset="0" stop-color="#8fdc2e"/><stop offset="0.43" stop-color="#8ddb2e"/><stop offset="0.59" stop-color="#86d72c"/><stop offset="0.7" stop-color="#7bd12a"/><stop offset="0.79" stop-color="#6ac827"/><stop offset="0.87" stop-color="#54bc23"/><stop offset="0.93" stop-color="#39ae1e"/><stop offset="0.99" stop-color="#199d19"/><stop offset="1" stop-color="#159b18"/></linearGradient><linearGradient id="Безымянный_градиент_105" x1="11.45" y1="11.97" x2="1.47" y2="1.48" gradientUnits="userSpaceOnUse"><stop offset="0"/><stop offset="0.51" stop-color="#4b6521"/><stop offset="1" stop-color="#90c13f"/></linearGradient><linearGradient id="Безымянный_градиент_99" x1="18.32" y1="8.05" x2="15.37" y2="4.94" gradientUnits="userSpaceOnUse"><stop offset="0" stop-color="#94c741"/><stop offset="1"/></linearGradient><linearGradient id="Безымянный_градиент_125" x1="22.04" y1="22.06" x2="12.02" y2="11.53" gradientUnits="userSpaceOnUse"><stop offset="0"/><stop offset="0.52" stop-color="#4f6b23"/><stop offset="1" stop-color="#94c741"/></linearGradient><linearGradient id="Безымянный_градиент_121" y1="17.64" x2="11.75" y2="17.64" gradientUnits="userSpaceOnUse"><stop offset="0" stop-color="#94c741"/><stop offset="1" stop-color="#040602"/></linearGradient><linearGradient id="Безымянный_градиент_40" x1="11.87" y1="12.17" x2="11.87" y2="22.07" gradientUnits="userSpaceOnUse"><stop offset="0"/><stop offset="0.53" stop-color="#4f6b23"/><stop offset="1" stop-color="#94c741"/></linearGradient><linearGradient id="Безымянный_градиент_40-2" x1="11.77" y1="935.24" x2="11.77" y2="945.59" gradientTransform="matrix(1, 0, 0, -1, 0, 946.9)" xlink:href="#Безымянный_градиент_40"/><linearGradient id="Безымянный_градиент_132" x1="11.75" y1="5.05" x2="11.75" y2="18.43" gradientUnits="userSpaceOnUse"><stop offset="0.01" stop-color="#c9eb78"/><stop offset="1" stop-color="#53c02c"/></linearGradient></defs><g style="isolation:isolate"><g id="Слой_2" data-name="Слой 2"><g id="значки"><polygon points="23.54 3.03 23.54 20.5 20.51 23.53 3.04 23.53 0.01 20.5 0.01 3.03 3.04 0 20.51 0 23.54 3.03" fill="url(#Безымянный_градиент_150)"/><polygon points="11.75 11.69 3.02 0.01 0 3.05 11.75 11.69" fill="url(#Безымянный_градиент_105)" style="mix-blend-mode:screen"/><polygon points="11.8 11.69 20.55 0.01 23.57 3.06 11.8 11.69" fill="url(#Безымянный_градиент_99)" style="mix-blend-mode:screen"/><polygon points="23.53 20.52 21.88 22.17 20.5 23.53 20.49 23.54 20.49 23.53 11.8 11.74 23.53 20.52 23.53 20.52" fill="url(#Безымянный_градиент_125)" style="mix-blend-mode:screen"/><polygon points="11.75 11.74 3.03 23.53 0.01 20.5 0 20.5 0.01 20.5 11.75 11.74" fill="url(#Безымянный_градиент_121)" style="mix-blend-mode:screen"/><polygon points="22.08 19.53 22.07 19.54 22.07 19.54 20.63 20.92 19.45 22.06 19.44 22.06 19.43 22.07 19.43 22.06 4.3 22.06 1.68 19.53 1.67 19.52 1.68 19.52 1.68 19.3 11.88 12.17 22.08 19.3 22.08 19.53" fill="url(#Безымянный_градиент_40)" style="mix-blend-mode:screen"/><polygon points="22.08 3.97 22.07 3.96 22.07 3.96 20.62 2.52 19.42 1.32 19.41 1.32 19.41 1.31 19.4 1.32 4.13 1.32 1.47 3.97 1.47 3.97 1.47 3.98 1.47 4.21 11.78 11.67 22.08 4.21 22.08 3.97" fill="url(#Безымянный_градиент_40-2)" style="mix-blend-mode:screen"/><polygon points="18.44 6.77 18.44 16.71 16.72 18.43 6.78 18.43 5.06 16.71 5.06 6.77 6.78 5.05 16.72 5.05 18.44 6.77" fill="url(#Безымянный_градиент_132)"/><text transform="translate(2.1 15.86)" font-size="12" fill="#fff" font-family="Roboto-Regular, Roboto">+10</text></g></g></g></svg>