<svg xmlns="http://www.w3.org/2000/svg" viewBox="0 0 48.74 68.16"><g style="isolation:isolate"><g id="Слой_2" data-name="Слой 2"><g id="значки"><path d="M24.29,60s16.93-11,22-27.9C47.76,27.29,48.74,17,48.74,17a50.94,50.94,0,0,0-24.45-6.72C8.43,10.25.11,17,.11,17s-.88,4,2.41,15.32C7.36,49,24.29,60,24.29,60Z" fill="#a67c52"/><path d="M24.29,58C20.82,55.5,8.06,45.57,4.07,31.84c-2.43-8.37-2.51-12.57-2.44-14,2-1.36,9.77-6,22.66-6a49.92,49.92,0,0,1,22.74,6c-.28,2.7-1.13,10-2.25,13.74C40.56,45.55,27.77,55.5,24.29,58Z" fill="#8c6239"/><path d="M24.29,56C19.84,52.64,9.15,43.55,5.62,31.39c-2-6.89-2.37-10.8-2.39-12.64,2.7-1.67,9.83-5.27,21.06-5.27a48.37,48.37,0,0,1,21,5.28,91.24,91.24,0,0,1-2.07,12.37C39.49,43.51,28.75,52.64,24.29,56Z" fill="#4d4d4d"/><path d="M21.18,16.17l-.84-5.56a2.68,2.68,0,0,1,.17-1.4L22.67,3.8h3L27.8,9.21a2.68,2.68,0,0,1,.17,1.4l-.84,5.56Z" fill="#603813"/><path d="M25.1,4.61H23.22L21.77,8.22a7,7,0,0,0-.42,3.64l.52,3.5h4.57l.52-3.5a7,7,0,0,0-.42-3.64Z" fill="#999" stroke="#000" stroke-miterlimit="10" stroke-width="0.1"/><path d="M22.8,14.28l-.51-3.36a3.06,3.06,0,0,1,.18-1.56l1.47-3.67h.43l1.47,3.67A3,3,0,0,1,26,10.92l-.51,3.36Z" fill="#e6e6e6" stroke="#000" stroke-miterlimit="10" stroke-width="0.1" opacity="0.25" style="mix-blend-mode:screen"/><polygon points="34.19 18.85 14.39 18.85 13 20.23 9.2 16.43 13 12.63 14.65 14.28 33.92 14.28 35.58 12.63 39.38 16.43 35.58 20.23 34.19 18.85" fill="#603813"/><polygon points="34.42 18.32 14.16 18.32 13 19.47 9.96 16.43 13 13.39 14.43 14.82 34.15 14.82 35.58 13.39 38.62 16.43 35.58 19.47 34.42 18.32"/><polygon points="35.58 18.33 37.48 16.43 35.58 14.53 34.48 15.63 14.1 15.63 13 14.53 11.1 16.43 13 18.33 13.83 17.51 34.75 17.51 35.58 18.33" fill="#a67c52"/><polygon points="34.23 16.43 14.08 16.43 13 17.51 11.39 16.16 13 14.49 13.88 15.36 34.7 15.36 35.58 14.49 37.19 16.16 35.58 17.51 34.23 16.43" fill="#c69c6d" opacity="0.12" style="mix-blend-mode:multiply"/><polygon points="24.29 68.16 30.47 54.86 28.32 18.85 20.26 18.85 18.11 54.86 24.29 68.16" fill="gray"/><polygon points="19.05 54.65 21.01 18.99 27.57 18.99 29.53 54.65 24.29 66.89 19.05 54.65" fill="#e6e6e6"/><polygon points="23.08 53.53 23.84 18.99 24.47 18.99 25.23 53.53 24.16 59.79 23.08 53.53" stroke="#000" stroke-miterlimit="10" opacity="0.41" style="mix-blend-mode:multiply"/><polygon points="23.62 53.49 24.16 29.18 24.69 53.49 24.16 56.62 23.62 53.49" fill="#f2f2f2" stroke="#000" stroke-miterlimit="10" opacity="0.48" style="mix-blend-mode:screen"/><polygon points="22.64 5.42 21.07 2.71 22.64 0 25.77 0 27.33 2.71 25.77 5.42 22.64 5.42" fill="#603813"/><polygon points="25.3 0.81 23.1 0.81 22.01 2.71 23.1 4.61 25.3 4.61 26.4 2.71 25.3 0.81" fill="#999" stroke="#000" stroke-miterlimit="10" stroke-width="0.1"/><polygon points="23.73 3.54 23.25 2.71 23.73 1.88 24.68 1.88 25.16 2.71 24.68 3.54 23.73 3.54" fill="#e6e6e6" stroke="#000" stroke-miterlimit="10" stroke-width="0.1" opacity="0.19" style="mix-blend-mode:screen"/></g></g></g></svg>