<svg xmlns="http://www.w3.org/2000/svg" viewBox="0 0 26 41.02"><g id="Слой_2" data-name="Слой 2"><g id="значки"><path d="M0,0H26a0,0,0,0,1,0,0V0a2,2,0,0,1-2,2H2A2,2,0,0,1,0,0V0A0,0,0,0,1,0,0Z"/><path d="M0,39H26a0,0,0,0,1,0,0v0a2,2,0,0,1-2,2H2a2,2,0,0,1-2-2v0a0,0,0,0,1,0,0Z" transform="translate(26 80.02) rotate(-180)"/><path d="M23,3.53,14,19.38a2.33,2.33,0,0,0,0,2.26l9,15.85H3.33l9-15.85a2.33,2.33,0,0,0,0-2.26l-9-15.85H23m.09-.5H3.24a.45.45,0,0,0-.39.67l9,15.92a1.8,1.8,0,0,1,0,1.77l-9,15.93a.45.45,0,0,0,.39.67H23.05a.45.45,0,0,0,.39-.67l-9-15.93a1.8,1.8,0,0,1,0-1.77l9-15.92A.45.45,0,0,0,23.05,3Z"/><polygon points="13.06 30.26 6.62 37.21 19.5 37.21 13.06 30.26" fill="#fbb03b"/><polygon points="13.11 20.06 18.93 9.97 7.29 9.97 13.11 20.06" fill="#fbb03b"/><circle cx="13.11" cy="23.87" r="0.34" fill="#fbb03b"/><circle cx="13.11" cy="28.13" r="0.34" fill="#fbb03b"/><circle cx="13.11" cy="25.89" r="0.34" fill="#fbb03b"/></g></g></svg>