<svg xmlns="http://www.w3.org/2000/svg" xmlns:xlink="http://www.w3.org/1999/xlink" viewBox="0 0 40 40"><defs><linearGradient id="Безымянный_градиент_337" y1="20" x2="40" y2="20" gradientTransform="translate(19.12 -8.27) rotate(43.21)" gradientUnits="userSpaceOnUse"><stop offset="0" stop-color="#ffb5b6"/><stop offset="0.05" stop-color="#ffaead"/><stop offset="0.13" stop-color="#ff9a93"/><stop offset="0.24" stop-color="#ff7a6a"/><stop offset="0.36" stop-color="#ff4e31"/><stop offset="0.45" stop-color="#ff2800"/><stop offset="0.66" stop-color="red"/><stop offset="0.99" stop-color="#c1272d"/></linearGradient></defs><g style="isolation:isolate"><g id="Слой_2" data-name="Слой 2"><g id="значки"><rect x="5.28" y="5.28" width="29.45" height="29.45" rx="1.96" transform="translate(-8.27 19.12) rotate(-43.21)" fill="url(#Безымянный_градиент_337)"/><text transform="translate(18.23 23.18)" font-size="12" fill="#f2f2f2" font-family="Roboto-Regular, Roboto">10</text><path d="M14.67,21.74l.13.91a.34.34,0,0,1,0,.22l-.36.89h-.48l-.36-.89a.34.34,0,0,1,0-.22l.13-.91Z" fill="#754c24"/><path d="M14,23.63h.3l0-.06a3.29,3.29,0,0,0,.19-1.7h-.74a3.29,3.29,0,0,0,.19,1.7Z" fill="#999" stroke="#000" stroke-miterlimit="10" stroke-width="0.1"/><path d="M14.4,22h0a2.51,2.51,0,0,1-.15,1.33l0,.08h-.07l0-.08A2.51,2.51,0,0,1,14,22h.44Z" fill="#e6e6e6" stroke="#000" stroke-miterlimit="10" stroke-width="0.1" opacity="0.25" style="mix-blend-mode:screen"/><polygon points="12.54 21.3 15.78 21.3 16 21.07 16.63 21.69 16 22.32 15.73 22.05 12.58 22.05 12.31 22.32 11.69 21.69 12.31 21.07 12.54 21.3" fill="#754c24"/><polygon points="12.5 21.39 15.82 21.39 16 21.2 16.5 21.69 16 22.19 15.77 21.96 12.54 21.96 12.31 22.19 11.81 21.69 12.31 21.2 12.5 21.39"/><polygon points="12.31 21.38 12 21.69 12.31 22 12.49 21.82 15.83 21.82 16 22 16.32 21.69 16 21.38 15.87 21.52 12.45 21.52 12.31 21.38" fill="#a67c52"/><polygon points="12.53 21.69 15.83 21.69 16 21.52 16.27 21.74 16 22.01 15.86 21.87 12.45 21.87 12.31 22.01 12.05 21.74 12.31 21.52 12.53 21.69" fill="#c69c6d" opacity="0.12" style="mix-blend-mode:multiply"/><polygon points="14.16 13.23 13.15 15.4 13.5 21.3 14.82 21.3 15.17 15.4 14.16 13.23" fill="gray"/><polygon points="15.02 15.43 14.69 21.27 13.62 21.27 13.3 15.43 14.16 13.43 15.02 15.43" fill="#b3b3b3"/><polygon points="14.43 23.5 14.68 23.94 14.43 24.38 13.92 24.38 13.66 23.94 13.92 23.5 14.43 23.5" fill="#754c24"/><polygon points="13.99 24.25 14.35 24.25 14.53 23.94 14.35 23.63 13.99 23.63 13.81 23.94 13.99 24.25" fill="#999" stroke="#000" stroke-miterlimit="10" stroke-width="0.1"/><polygon points="14.25 23.8 14.33 23.94 14.25 24.07 14.09 24.07 14.02 23.94 14.09 23.8 14.25 23.8" fill="#e6e6e6" stroke="#000" stroke-miterlimit="10" stroke-width="0.1" opacity="0.19" style="mix-blend-mode:screen"/></g></g></g></svg>