<svg xmlns="http://www.w3.org/2000/svg" xmlns:xlink="http://www.w3.org/1999/xlink" viewBox="0 0 40 40"><defs><linearGradient id="Безымянный_градиент_161" y1="20" x2="40" y2="20" gradientUnits="userSpaceOnUse"><stop offset="0" stop-color="#cce0f4"/><stop offset="0.05" stop-color="#c3dcf2"/><stop offset="0.14" stop-color="#a9d2ee"/><stop offset="0.24" stop-color="#80c2e7"/><stop offset="0.37" stop-color="#47acde"/><stop offset="0.45" stop-color="#1e9cd7"/><stop offset="0.66" stop-color="#0071bc"/><stop offset="0.99" stop-color="#2e3192"/></linearGradient></defs><g style="isolation:isolate"><g id="Слой_2" data-name="Слой 2"><g id="значки"><path d="M.78,21.44,17.2,39.09a2.85,2.85,0,0,0,4.05.13L39.38,22a2,2,0,0,0,.08-2.82L22.43.91a2.84,2.84,0,0,0-4-.13L.9,17.36A2.9,2.9,0,0,0,.78,21.44Z" fill="url(#Безымянный_градиент_161)"/><text transform="translate(18.12 22.81)" font-size="11.41" fill="#f2f2f2" font-family="Roboto-Regular, Roboto">10</text><path d="M14.77,22.05l.14.91a.45.45,0,0,1,0,.23l-.35.88H14l-.35-.88a.45.45,0,0,1,0-.23l.14-.91Z" fill="#754c24"/><path d="M14.13,23.94h.31l0-.05a3.22,3.22,0,0,0,.2-1.71h-.75a3.32,3.32,0,0,0,.2,1.71Z" fill="#999" stroke="#000" stroke-miterlimit="10" stroke-width="0.1"/><path d="M14.51,22.36h0a2.49,2.49,0,0,1-.16,1.32l0,.08h-.07l0-.08a2.6,2.6,0,0,1-.16-1.32h.45Z" fill="#e6e6e6" stroke="#000" stroke-miterlimit="10" stroke-width="0.1" opacity="0.25" style="mix-blend-mode:screen"/><polygon points="12.64 21.61 15.88 21.61 16.11 21.38 16.73 22.01 16.11 22.63 15.84 22.36 12.69 22.36 12.42 22.63 11.79 22.01 12.42 21.38 12.64 21.61" fill="#754c24"/><polygon points="12.61 21.7 15.92 21.7 16.11 21.51 16.61 22.01 16.11 22.5 15.88 22.27 12.65 22.27 12.42 22.5 11.92 22.01 12.42 21.51 12.61 21.7"/><polygon points="12.42 21.7 12.11 22.01 12.42 22.32 12.6 22.14 15.93 22.14 16.11 22.32 16.42 22.01 16.11 21.7 15.98 21.83 12.55 21.83 12.42 21.7" fill="#a67c52"/><polygon points="12.64 22.01 15.94 22.01 16.11 21.83 16.38 22.05 16.11 22.32 15.97 22.18 12.56 22.18 12.42 22.32 12.15 22.05 12.42 21.83 12.64 22.01" fill="#c69c6d" opacity="0.12" style="mix-blend-mode:multiply"/><polygon points="14.26 13.54 13.25 15.72 13.6 21.61 14.92 21.61 15.28 15.72 14.26 13.54" fill="gray"/><polygon points="15.12 15.74 14.8 21.58 13.73 21.58 13.41 15.74 14.26 13.74 15.12 15.74" fill="#b3b3b3"/><polygon points="14.53 23.81 14.79 24.25 14.53 24.7 14.02 24.7 13.77 24.25 14.02 23.81 14.53 23.81" fill="#754c24"/><polygon points="14.1 24.56 14.46 24.56 14.64 24.25 14.46 23.94 14.1 23.94 13.92 24.25 14.1 24.56" fill="#999" stroke="#000" stroke-miterlimit="10" stroke-width="0.1"/><polygon points="14.36 24.12 14.43 24.25 14.36 24.39 14.2 24.39 14.12 24.25 14.2 24.12 14.36 24.12" fill="#e6e6e6" stroke="#000" stroke-miterlimit="10" stroke-width="0.1" opacity="0.19" style="mix-blend-mode:screen"/></g></g></g></svg>