<svg xmlns="http://www.w3.org/2000/svg" xmlns:xlink="http://www.w3.org/1999/xlink" viewBox="0 0 40 40"><defs><linearGradient id="Безымянный_градиент_357" y1="20" x2="40" y2="20" gradientTransform="translate(19.12 -8.27) rotate(43.21)" gradientUnits="userSpaceOnUse"><stop offset="0" stop-color="#c69c6d"/><stop offset="0.18" stop-color="#bd9365"/><stop offset="0.45" stop-color="#a67c52"/><stop offset="0.66" stop-color="#8c6239"/><stop offset="0.99" stop-color="#754c24"/></linearGradient></defs><g style="isolation:isolate"><g id="Слой_2" data-name="Слой 2"><g id="значки"><rect x="5.28" y="5.28" width="29.45" height="29.45" rx="1.96" transform="translate(-8.27 19.12) rotate(-43.21)" fill="url(#Безымянный_градиент_357)"/><text transform="translate(19.91 22.2)" font-size="12" fill="#f2f2f2" font-family="Roboto-Regular, Roboto">10</text><path d="M15.5,20.59l.14.91a.45.45,0,0,1,0,.23l-.35.89h-.49l-.35-.89a.45.45,0,0,1,0-.23l.14-.91Z" fill="#754c24"/><path d="M14.86,22.48h.31l0-.05a3.43,3.43,0,0,0,.2-1.71h-.75a3.22,3.22,0,0,0,.2,1.71Z" fill="#999" stroke="#000" stroke-miterlimit="10" stroke-width="0.1"/><path d="M15.24,20.9h0a2.58,2.58,0,0,1-.16,1.32l0,.09H15l0-.09a2.58,2.58,0,0,1-.15-1.32h.45Z" fill="#e6e6e6" stroke="#000" stroke-miterlimit="10" stroke-width="0.1" opacity="0.25" style="mix-blend-mode:screen"/><polygon points="13.37 20.15 16.61 20.15 16.84 19.93 17.46 20.55 16.84 21.17 16.57 20.9 13.41 20.9 13.14 21.17 12.52 20.55 13.14 19.93 13.37 20.15" fill="#754c24"/><polygon points="13.33 20.24 16.65 20.24 16.84 20.05 17.34 20.55 16.84 21.05 16.6 20.81 13.38 20.81 13.14 21.05 12.65 20.55 13.14 20.05 13.33 20.24"/><polygon points="13.14 20.24 12.83 20.55 13.14 20.86 13.32 20.68 16.66 20.68 16.84 20.86 17.15 20.55 16.84 20.24 16.7 20.37 13.28 20.37 13.14 20.24" fill="#a67c52"/><polygon points="13.36 20.55 16.66 20.55 16.84 20.37 17.1 20.59 16.84 20.87 16.7 20.72 13.29 20.72 13.14 20.87 12.88 20.59 13.14 20.37 13.36 20.55" fill="#c69c6d" opacity="0.12" style="mix-blend-mode:multiply"/><polygon points="14.99 12.08 13.98 14.26 14.33 20.15 15.65 20.15 16 14.26 14.99 12.08" fill="gray"/><polygon points="15.85 14.29 15.53 20.12 14.46 20.12 14.13 14.29 14.99 12.28 15.85 14.29" fill="#b3b3b3"/><polygon points="15.26 22.35 15.52 22.8 15.26 23.24 14.75 23.24 14.49 22.8 14.75 22.35 15.26 22.35" fill="#754c24"/><polygon points="14.82 23.11 15.19 23.11 15.37 22.8 15.19 22.48 14.82 22.48 14.65 22.8 14.82 23.11" fill="#999" stroke="#000" stroke-miterlimit="10" stroke-width="0.1"/><polygon points="15.08 22.66 15.16 22.8 15.08 22.93 14.93 22.93 14.85 22.8 14.93 22.66 15.08 22.66" fill="#e6e6e6" stroke="#000" stroke-miterlimit="10" stroke-width="0.1" opacity="0.19" style="mix-blend-mode:screen"/></g></g></g></svg>