<svg xmlns="http://www.w3.org/2000/svg" xmlns:xlink="http://www.w3.org/1999/xlink" viewBox="0 0 40 40"><defs><linearGradient id="Безымянный_градиент_347" y1="20" x2="40" y2="20" gradientTransform="translate(19.12 -8.27) rotate(43.21)" gradientUnits="userSpaceOnUse"><stop offset="0" stop-color="#8cc63f"/><stop offset="0.09" stop-color="#83c440"/><stop offset="0.24" stop-color="#69bf44"/><stop offset="0.42" stop-color="#40b649"/><stop offset="0.45" stop-color="#39b54a"/><stop offset="0.66" stop-color="#009245"/><stop offset="0.99" stop-color="#006837"/></linearGradient></defs><g style="isolation:isolate"><g id="Слой_2" data-name="Слой 2"><g id="значки"><rect x="5.28" y="5.28" width="29.45" height="29.45" rx="1.96" transform="translate(-8.27 19.12) rotate(-43.21)" fill="url(#Безымянный_градиент_347)"/><text transform="translate(19.17 22.54)" font-size="12" fill="#f2f2f2" font-family="Roboto-Regular, Roboto">10</text><path d="M16.47,20.81l.13.91a.45.45,0,0,1,0,.23l-.35.88h-.49L15.38,22a.45.45,0,0,1,0-.23l.14-.91Z" fill="#754c24"/><path d="M15.82,22.7h.31l0-.05a3.22,3.22,0,0,0,.2-1.71H15.6a3.43,3.43,0,0,0,.2,1.71Z" fill="#999" stroke="#000" stroke-miterlimit="10" stroke-width="0.1"/><path d="M16.2,21.12h0a2.58,2.58,0,0,1-.15,1.32l0,.09h-.07l0-.09a2.48,2.48,0,0,1-.15-1.32h.44Z" fill="#e6e6e6" stroke="#000" stroke-miterlimit="10" stroke-width="0.1" opacity="0.25" style="mix-blend-mode:screen"/><polygon points="14.34 20.37 17.58 20.37 17.8 20.14 18.43 20.77 17.8 21.39 17.53 21.12 14.38 21.12 14.11 21.39 13.49 20.77 14.11 20.14 14.34 20.37" fill="#754c24"/><polygon points="14.3 20.46 17.61 20.46 17.8 20.27 18.3 20.77 17.8 21.26 17.57 21.03 14.34 21.03 14.11 21.26 13.61 20.77 14.11 20.27 14.3 20.46"/><polygon points="14.11 20.46 13.8 20.77 14.11 21.08 14.29 20.9 17.62 20.9 17.8 21.08 18.11 20.77 17.8 20.46 17.67 20.59 14.24 20.59 14.11 20.46" fill="#a67c52"/><polygon points="14.33 20.77 17.63 20.77 17.8 20.59 18.07 20.81 17.8 21.09 17.66 20.94 14.25 20.94 14.11 21.09 13.85 20.81 14.11 20.59 14.33 20.77" fill="#c69c6d" opacity="0.12" style="mix-blend-mode:multiply"/><polygon points="15.96 12.3 14.94 14.48 15.3 20.37 16.61 20.37 16.97 14.48 15.96 12.3" fill="gray"/><polygon points="16.81 14.5 16.49 20.34 15.42 20.34 15.1 14.5 15.96 12.5 16.81 14.5" fill="#b3b3b3"/><polygon points="16.23 22.57 16.48 23.01 16.23 23.46 15.71 23.46 15.46 23.01 15.71 22.57 16.23 22.57" fill="#754c24"/><polygon points="15.79 23.32 16.15 23.32 16.33 23.01 16.15 22.7 15.79 22.7 15.61 23.01 15.79 23.32" fill="#999" stroke="#000" stroke-miterlimit="10" stroke-width="0.1"/><polygon points="16.05 22.88 16.13 23.01 16.05 23.15 15.89 23.15 15.81 23.01 15.89 22.88 16.05 22.88" fill="#e6e6e6" stroke="#000" stroke-miterlimit="10" stroke-width="0.1" opacity="0.19" style="mix-blend-mode:screen"/></g></g></g></svg>