<svg xmlns="http://www.w3.org/2000/svg" xmlns:xlink="http://www.w3.org/1999/xlink" viewBox="0 0 25.66 25.61"><defs><linearGradient id="Безымянный_градиент_38" x1="-450.2" y1="1027.33" x2="-439.4" y2="1036.65" gradientTransform="translate(818.7 -770.37) rotate(22.5)" gradientUnits="userSpaceOnUse"><stop offset="0" stop-color="#cce0f4"/><stop offset="0" stop-color="#c3e6f9"/><stop offset="0" stop-color="#b7eeff"/><stop offset="0.13" stop-color="#adeaff"/><stop offset="0.36" stop-color="#91dfff"/><stop offset="0.66" stop-color="#63ceff"/><stop offset="1" stop-color="#26b7ff"/></linearGradient></defs><g id="Слой_2" data-name="Слой 2"><g id="значки"><polygon points="12.84 12.85 21.91 3.78 21.91 3.77 12.84 0 12.84 12.85 12.84 12.85" fill="#1a93e8"/><polygon points="12.84 12.85 12.84 0 3.75 3.75 3.75 3.76 12.84 12.85 12.84 12.85" fill="#bdeffe"/><polygon points="25.66 12.81 21.92 3.74 12.85 12.81 25.66 12.81" fill="#44bffc"/><polygon points="3.78 21.85 12.81 25.61 12.85 25.59 12.85 12.79 3.78 21.85" fill="#147ce8"/><polygon points="12.84 12.81 21.89 21.87 25.66 12.82 25.65 12.81 12.84 12.81 12.84 12.81" fill="#7de0fd"/><polygon points="12.85 25.6 21.89 21.87 21.9 21.85 12.85 12.79 12.85 25.6" fill="#23a4e8"/><polygon points="12.85 12.79 0.01 12.79 3.74 21.84 3.78 21.85 12.85 12.79 12.85 12.79" fill="#2ca8ef"/><polygon points="3.77 3.71 0 12.76 0.01 12.79 12.85 12.79 3.77 3.71" fill="#48c5f5"/><polygon points="18.09 7.48 12.78 5.28 7.46 7.47 5.26 12.79 7.46 18.1 12.77 20.3 18.09 18.1 20.29 12.79 18.09 7.48" fill="url(#Безымянный_градиент_38)"/><text transform="translate(2.77 16.2)" font-size="10" fill="#fff" font-family="Roboto-Regular, Roboto" letter-spacing="-0.08em">+<tspan x="4.86" y="0" letter-spacing="-0.03em">1</tspan></text><path d="M19.69,13a.78.78,0,0,1,.32.62.81.81,0,0,1-.84.67" fill="none" stroke="#fff" stroke-linecap="round" stroke-miterlimit="10" stroke-width="0.5"/><path d="M14.59,11.09a.64.64,0,0,0-.4.12.67.67,0,0,0-.25.44.94.94,0,0,0,.31.79" fill="none" stroke="#fff" stroke-linecap="round" stroke-miterlimit="10" stroke-width="0.5"/><path d="M16.67,7.19l4.11,1.55-2.4,6.36-4.11-1.54,2.4-6.37m-.11-.56a.3.3,0,0,0-.28.2l-2.54,6.74a.29.29,0,0,0,.17.38l4.48,1.69.1,0a.29.29,0,0,0,.28-.19l2.54-6.74a.3.3,0,0,0-.17-.39L16.66,6.65l-.1,0Z" fill="#fff"/><path d="M17,7.75a.18.18,0,0,0-.17.13l-.09.23a.18.18,0,0,0,.11.24l.05,0H17a.19.19,0,0,0,.18-.12L17.25,8a.19.19,0,0,0-.11-.25l-.05,0Z" fill="#fff"/><path d="M13.65,9.09a.2.2,0,0,0-.19.16l0,.25a.19.19,0,0,0,.16.21h.08a.19.19,0,0,0,.19-.16l0-.25a.18.18,0,0,0-.16-.21h-.08Z" fill="#fff"/><path d="M18.51,16.46a.19.19,0,0,0-.14.07l-.17.18a.19.19,0,0,0,0,.27l0,0a.18.18,0,0,0,.27,0l.16-.18a.2.2,0,0,0,0-.27l-.05,0a.18.18,0,0,0-.12-.05Z" fill="#fff"/><path d="M18.06,13.93a.2.2,0,0,0-.18.12l-.08.23a.19.19,0,0,0,.11.25l.05,0H18a.19.19,0,0,0,.17-.12l.09-.23a.19.19,0,0,0-.11-.25l-.05,0Z" fill="#fff"/><path d="M17.84,10.32l.27,1.06L17.2,12l-.27-1.06.91-.62M18,9.6l-.07,0-1.48,1a.17.17,0,0,0-.09.23l.44,1.74a.18.18,0,0,0,.16.1.1.1,0,0,0,.07,0l1.48-1a.17.17,0,0,0,.09-.23L18.2,9.71A.17.17,0,0,0,18,9.6Z" fill="#fff"/><path d="M15.08,8.48l-1.95-.17a.33.33,0,0,0-.37.31l-.59,6.71a.33.33,0,0,0,.31.37l1.89.17" fill="none" stroke="#fff" stroke-linecap="round" stroke-linejoin="round" stroke-width="0.5"/><path d="M21.16,10.83l1.45,1.07a.35.35,0,0,1,.07.48L18.79,17.8a.34.34,0,0,1-.48.08l-3.63-2.59.31-.46" fill="none" stroke="#fff" stroke-linecap="round" stroke-linejoin="round" stroke-width="0.5"/></g></g></svg>