<svg xmlns="http://www.w3.org/2000/svg" xmlns:xlink="http://www.w3.org/1999/xlink" viewBox="0 0 25.66 25.61"><defs><linearGradient id="Безымянный_градиент_38" x1="-429.93" y1="1028.52" x2="-419.13" y2="1037.84" gradientTransform="translate(800.43 -779.23) rotate(22.5)" gradientUnits="userSpaceOnUse"><stop offset="0" stop-color="#cce0f4"/><stop offset="0" stop-color="#c3e6f9"/><stop offset="0" stop-color="#b7eeff"/><stop offset="0.13" stop-color="#adeaff"/><stop offset="0.36" stop-color="#91dfff"/><stop offset="0.66" stop-color="#63ceff"/><stop offset="1" stop-color="#26b7ff"/></linearGradient></defs><g id="Слой_2" data-name="Слой 2"><g id="значки"><polygon points="12.84 12.85 21.91 3.78 21.91 3.77 12.84 0 12.84 12.85 12.84 12.85" fill="#1a93e8"/><polygon points="12.84 12.85 12.84 0 3.75 3.75 3.75 3.76 12.84 12.85 12.84 12.85" fill="#bdeffe"/><polygon points="25.66 12.81 21.92 3.74 12.85 12.81 25.66 12.81" fill="#44bffc"/><polygon points="3.78 21.85 12.81 25.61 12.85 25.59 12.85 12.79 3.78 21.85" fill="#147ce8"/><polygon points="12.84 12.81 21.89 21.87 25.66 12.82 25.65 12.81 12.84 12.81 12.84 12.81" fill="#7de0fd"/><polygon points="12.85 25.6 21.89 21.87 21.9 21.85 12.85 12.79 12.85 25.6" fill="#23a4e8"/><polygon points="12.85 12.79 0.01 12.79 3.74 21.84 3.78 21.85 12.85 12.79 12.85 12.79" fill="#2ca8ef"/><polygon points="3.77 3.71 0 12.76 0.01 12.79 12.85 12.79 3.77 3.71" fill="#48c5f5"/><polygon points="18.09 7.48 12.78 5.28 7.46 7.47 5.26 12.79 7.46 18.1 12.77 20.3 18.09 18.1 20.29 12.79 18.09 7.48" fill="url(#Безымянный_градиент_38)"/><text transform="translate(3.78 16.46)" font-size="10" fill="red" font-family="Roboto-Regular, Roboto" letter-spacing="-0.08em">+<tspan x="4.86" y="0" letter-spacing="-0.03em">1</tspan></text><path d="M18,11.55l.08,0,3.34,1.9,0,0-4.91,2.84a.21.21,0,0,1-.12,0l-.08,0-3.34-1.9,0,0,4.91-2.83a.24.24,0,0,1,.12,0m0-.1a.47.47,0,0,0-.17,0l-4.91,2.84c-.09.05-.1.13,0,.17l3.33,1.93a.25.25,0,0,0,.13,0,.34.34,0,0,0,.17-.05l4.91-2.83c.09-.05.1-.13,0-.18L18.1,11.48a.25.25,0,0,0-.13,0Z" fill="red"/><path d="M18,12.24h.08l-.13.08-.1,0h-.08l.13-.08a.16.16,0,0,1,.1,0m0-.1-.15,0-.14.09c-.08,0-.09.11,0,.14l0,0,.11,0a.37.37,0,0,0,.15,0l.15-.09c.07,0,.08-.11,0-.15l-.05,0a.2.2,0,0,0-.11,0Z" fill="red"/><path d="M16.46,15.56h.08l-.13.08-.09,0h-.09l.14-.08s.05,0,.09,0m0-.1a.32.32,0,0,0-.14,0l-.15.09c-.08,0-.09.11,0,.14l.06,0,.11,0a.32.32,0,0,0,.14,0l.15-.09c.07,0,.08-.11,0-.15l-.06,0a.2.2,0,0,0-.11,0Z" fill="red"/><path d="M18.14,13.39h.05l-.28.93a.14.14,0,0,1-.09,0l-1.67.17h0l.28-.94a.21.21,0,0,1,.08,0l1.68-.17m0-.1-1.68.17c-.09,0-.16,0-.16.1l-.3,1c0,.05.07.09.16.09l1.68-.17c.09,0,.17,0,.17-.09l.3-1c0-.06-.08-.1-.17-.1Z" fill="red"/><path d="M12.88,14.51l3.31,1.92a.22.22,0,0,1,.1.18v1.55L13,16.24a.24.24,0,0,1-.1-.19V14.51m0-.11s-.09,0-.09.13v1.52a.36.36,0,0,0,.15.28l3.32,1.92h.06c.05,0,.09,0,.09-.12V16.61a.36.36,0,0,0-.15-.27l-3.32-1.92-.06,0Z" fill="red"/><path d="M21.41,13.58h0v1.53a.24.24,0,0,1-.09.18l-4.94,2.87a0,0,0,0,1,0,0V16.61a.24.24,0,0,1,.09-.18l4.95-2.85m0-.11h-.05l-5,2.86a.38.38,0,0,0-.14.27v1.53c0,.08,0,.12.09.12h.05l5-2.86a.38.38,0,0,0,.14-.27V13.59c0-.08,0-.12-.09-.12Z" fill="red"/><line x1="12.83" y1="14.85" x2="16.33" y2="16.93" fill="none" stroke="red" stroke-miterlimit="10" stroke-width="0.1"/><line x1="16.34" y1="16.94" x2="21.45" y2="13.98" fill="none" stroke="red" stroke-miterlimit="10" stroke-width="0.1"/><line x1="16.32" y1="17.38" x2="21.46" y2="14.4" fill="none" stroke="red" stroke-miterlimit="10" stroke-width="0.1"/><line x1="16.32" y1="17.86" x2="21.47" y2="14.87" fill="none" stroke="red" stroke-miterlimit="10" stroke-width="0.1"/><line x1="12.83" y1="15.29" x2="16.33" y2="17.37" fill="none" stroke="red" stroke-miterlimit="10" stroke-width="0.1"/><line x1="12.83" y1="15.78" x2="16.33" y2="17.86" fill="none" stroke="red" stroke-miterlimit="10" stroke-width="0.1"/><path d="M19.85,7.88v6.89H15.4V7.88h4.45m.2-.5H15.2a.31.31,0,0,0-.3.3V15a.31.31,0,0,0,.3.3h4.85a.31.31,0,0,0,.3-.3V7.68a.31.31,0,0,0-.3-.3Z" fill="red"/><path d="M16.08,8.28H16a.17.17,0,0,0-.17.17v.29a.16.16,0,0,0,.17.17h.09a.16.16,0,0,0,.17-.17V8.45a.17.17,0,0,0-.17-.17Z" fill="red"/><path d="M19.27,13.75h-.1a.18.18,0,0,0-.17.18v.29a.18.18,0,0,0,.17.17h.1a.18.18,0,0,0,.17-.17v-.29a.18.18,0,0,0-.17-.18Z" fill="red"/><path d="M17.62,10.42l.64.92-.64.91L17,11.34l.64-.92m0-.75a.18.18,0,0,0-.12.05l-1,1.49a.18.18,0,0,0,0,.25l1,1.49a.18.18,0,0,0,.12.05.21.21,0,0,0,.13-.05l1-1.49a.18.18,0,0,0,0-.25l-1-1.49a.21.21,0,0,0-.13-.05Z" fill="red"/></g></g></svg>