<svg xmlns="http://www.w3.org/2000/svg" xmlns:xlink="http://www.w3.org/1999/xlink" viewBox="0 0 25.66 25.61"><defs><linearGradient id="Безымянный_градиент_38" x1="-453.03" y1="1013.09" x2="-442.24" y2="1022.41" gradientTransform="translate(815.87 -756.13) rotate(22.5)" gradientUnits="userSpaceOnUse"><stop offset="0" stop-color="#cce0f4"/><stop offset="0" stop-color="#c3e6f9"/><stop offset="0" stop-color="#b7eeff"/><stop offset="0.13" stop-color="#adeaff"/><stop offset="0.36" stop-color="#91dfff"/><stop offset="0.66" stop-color="#63ceff"/><stop offset="1" stop-color="#26b7ff"/></linearGradient></defs><g id="Слой_2" data-name="Слой 2"><g id="значки"><polygon points="12.84 12.85 21.91 3.78 21.91 3.77 12.84 0 12.84 12.85 12.84 12.85" fill="#1a93e8"/><polygon points="12.84 12.85 12.84 0 3.75 3.75 3.75 3.76 12.84 12.85 12.84 12.85" fill="#bdeffe"/><polygon points="25.66 12.81 21.92 3.74 12.85 12.81 25.66 12.81" fill="#44bffc"/><polygon points="3.78 21.85 12.81 25.61 12.85 25.59 12.85 12.79 3.78 21.85" fill="#147ce8"/><polygon points="12.84 12.81 21.89 21.87 25.66 12.82 25.65 12.81 12.84 12.81 12.84 12.81" fill="#7de0fd"/><polygon points="12.85 25.6 21.89 21.87 21.9 21.85 12.85 12.79 12.85 25.6" fill="#23a4e8"/><polygon points="12.85 12.79 0.01 12.79 3.74 21.84 3.78 21.85 12.85 12.79 12.85 12.79" fill="#2ca8ef"/><polygon points="3.77 3.71 0 12.76 0.01 12.79 12.85 12.79 3.77 3.71" fill="#48c5f5"/><polygon points="18.09 7.48 12.78 5.28 7.46 7.47 5.26 12.79 7.46 18.1 12.77 20.3 18.09 18.1 20.29 12.79 18.09 7.48" fill="url(#Безымянный_градиент_38)"/><text transform="translate(3.78 16.2)" font-size="10" fill="#fff" font-family="Roboto-Regular, Roboto" letter-spacing="-0.08em">+<tspan x="4.86" y="0" letter-spacing="-0.03em">1</tspan></text><path d="M20.67,7.71v10h-6.6v-10h6.6m.2-.5h-7a.29.29,0,0,0-.3.3V17.92a.29.29,0,0,0,.3.3h7a.29.29,0,0,0,.3-.3V7.51a.29.29,0,0,0-.3-.3Z" fill="#fff"/><path d="M15.21,8.46h-.12a.25.25,0,0,0-.25.25V9.1a.26.26,0,0,0,.25.25h.12a.25.25,0,0,0,.25-.25V8.71a.25.25,0,0,0-.25-.25Z" fill="#fff"/><path d="M19.66,16.11h-.12a.25.25,0,0,0-.25.25v.39a.25.25,0,0,0,.25.24h.12a.25.25,0,0,0,.25-.24v-.39a.25.25,0,0,0-.25-.25Z" fill="#fff"/><path d="M17.37,11.1l1.14,1.63-1.14,1.63-1.13-1.63,1.13-1.63m0-.7a.28.28,0,0,0-.17.07l-1.45,2.09a.23.23,0,0,0,0,.34L17.2,15a.28.28,0,0,0,.17.07.26.26,0,0,0,.17-.07L19,12.9a.25.25,0,0,0,0-.34l-1.46-2.09a.26.26,0,0,0-.17-.07Z" fill="#fff"/></g></g></svg>