<svg xmlns="http://www.w3.org/2000/svg" xmlns:xlink="http://www.w3.org/1999/xlink" viewBox="0 0 38.55 41.9"><defs><linearGradient id="Безымянный_градиент_1035" x1="2.55" y1="20.91" x2="36.01" y2="20.91" gradientUnits="userSpaceOnUse"><stop offset="0.45" stop-color="#c1272d"/><stop offset="0.58" stop-color="#ed1c24"/></linearGradient></defs><g id="Слой_2" data-name="Слой 2"><g id="значки"><path d="M19.41.06,19.28,0l-.14.06L0,8.39l.05.29c.09.59,2.31,14.6,3.83,19.16s8.94,10.7,15,13.84l.29.16.14.06.13-.06.29-.16c6-3.14,13.47-9.32,15-13.84S38.41,9.27,38.51,8.68l0-.29Z" fill="#c1272d"/><path d="M19.28,1.25l-18,7.84C1.71,11.84,3.65,23.51,5,27.48s8.47,10.07,14.31,13.13c5.83-3.06,12.94-9,14.3-13.13s3.26-15.64,3.7-18.39ZM32.5,27.12c-1.21,3.63-7.81,9.21-13.22,12.19-5.42-3-12-8.56-13.23-12.19S3.14,13.38,2.55,9.78L19.28,2.5,36,9.78C35.42,13.38,33.68,23.55,32.5,27.12Z" fill="#ed1c24"/><path d="M36,9.78c-.59,3.6-2.33,13.77-3.51,17.34s-7.81,9.21-13.22,12.19c-5.42-3-12-8.56-13.23-12.19S3.14,13.38,2.55,9.78L19.28,2.5Z" fill="#c1272d"/><path d="M36,9.78c-.59,3.6-2.33,13.77-3.51,17.34s-7.81,9.21-13.22,12.19c-5.42-3-12-8.56-13.23-12.19S3.14,13.38,2.55,9.78L19.28,2.5Z" fill="url(#Безымянный_градиент_1035)"/></g></g></svg>