<svg xmlns="http://www.w3.org/2000/svg" xmlns:xlink="http://www.w3.org/1999/xlink" viewBox="0 0 17.3 27.5"><defs><linearGradient id="Безымянный_градиент_166" x1="6.09" y1="7.64" x2="11.17" y2="19.85" gradientUnits="userSpaceOnUse"><stop offset="0" stop-color="#ffe836"/><stop offset="1" stop-color="#ffb248"/></linearGradient></defs><g id="Слой_2" data-name="Слой 2"><g id="значки"><polygon points="17.3 5.1 8.65 0 8.65 13.75 17.3 5.1" fill="#fd9412"/><polygon points="8.65 13.75 17.3 13.75 17.3 5.1 17.3 5.1 8.65 13.75 8.65 13.75" fill="#feb63f"/><polygon points="8.65 13.75 8.65 13.75 8.65 13.75 8.65 13.75" fill="none"/><polygon points="8.65 0 0 5.1 8.65 13.75 8.65 0" fill="#ffd942"/><polygon points="8.65 13.75 8.65 13.75 8.65 13.75 8.65 13.75" fill="none"/><polygon points="8.65 13.75 8.65 27.5 17.3 22.4 17.3 22.4 8.65 13.75 8.65 13.75" fill="#feb740"/><polygon points="8.65 13.75 17.3 22.4 17.3 13.75 8.65 13.75" fill="#ffce42"/><polygon points="8.65 13.75 0 5.1 0 5.1 0 13.75 8.65 13.75 8.65 13.75" fill="#ffc63b"/><polygon points="8.65 13.75 0 22.4 0 22.4 8.65 27.5 8.65 13.75 8.65 13.75" fill="#ff7f00"/><polygon points="0 13.75 0 22.4 8.65 13.75 0 13.75" fill="#fd9515"/><polygon points="13.14 18.3 13.14 9.27 8.63 6.58 4.15 9.27 4.15 18.3 8.63 20.91 13.14 18.3" fill="url(#Безымянный_градиент_166)"/><line x1="6" y1="20" x2="6" y2="8" fill="none" stroke="#fff" stroke-linecap="round" stroke-miterlimit="10"/><line x1="3.75" y1="11" x2="6" y2="8" fill="none" stroke="#fff" stroke-linecap="round" stroke-miterlimit="10"/><line x1="8.25" y1="11" x2="6" y2="8" fill="none" stroke="#fff" stroke-linecap="round" stroke-miterlimit="10"/><line x1="12" y1="20" x2="12" y2="8" fill="none" stroke="#fff" stroke-linecap="round" stroke-miterlimit="10"/><line x1="9.75" y1="11" x2="12" y2="8" fill="none" stroke="#fff" stroke-linecap="round" stroke-miterlimit="10"/><line x1="14.25" y1="11" x2="12" y2="8" fill="none" stroke="#fff" stroke-linecap="round" stroke-miterlimit="10"/></g></g></svg>