<svg xmlns="http://www.w3.org/2000/svg" xmlns:xlink="http://www.w3.org/1999/xlink" viewBox="0 0 17.3 27.5"><defs><linearGradient id="Безымянный_градиент_166" x1="6.05" y1="7.71" x2="11.13" y2="19.93" gradientUnits="userSpaceOnUse"><stop offset="0" stop-color="#ffe836"/><stop offset="1" stop-color="#ffb248"/></linearGradient></defs><g id="Слой_2" data-name="Слой 2"><g id="значки"><polygon points="17.3 5.1 8.65 0 8.65 13.75 17.3 5.1" fill="#fd9412"/><polygon points="8.65 13.75 17.3 13.75 17.3 5.1 17.3 5.1 8.65 13.75 8.65 13.75" fill="#feb63f"/><polygon points="8.65 13.75 8.65 13.75 8.65 13.75 8.65 13.75" fill="none"/><polygon points="8.65 0 0 5.1 8.65 13.75 8.65 0" fill="#ffd942"/><polygon points="8.65 13.75 8.65 13.75 8.65 13.75 8.65 13.75" fill="none"/><polygon points="8.65 13.75 8.65 27.5 17.3 22.4 17.3 22.4 8.65 13.75 8.65 13.75" fill="#feb740"/><polygon points="8.65 13.75 17.3 22.4 17.3 13.75 8.65 13.75" fill="#ffce42"/><polygon points="8.65 13.75 0 5.1 0 5.1 0 13.75 8.65 13.75 8.65 13.75" fill="#ffc63b"/><polygon points="8.65 13.75 0 22.4 0 22.4 8.65 27.5 8.65 13.75 8.65 13.75" fill="#ff7f00"/><polygon points="0 13.75 0 22.4 8.65 13.75 0 13.75" fill="#fd9515"/><polygon points="13.1 18.37 13.1 9.34 8.58 6.66 4.11 9.34 4.11 18.37 8.58 20.99 13.1 18.37" fill="url(#Безымянный_градиент_166)"/><path d="M8.64,14.1l2.41,0A3,3,0,0,0,14,11l0-2.83" fill="none" stroke="#fff" stroke-linecap="round" stroke-miterlimit="10"/><line x1="12.41" y1="11.26" x2="13.96" y2="8.19" fill="none" stroke="#fff" stroke-linecap="round" stroke-miterlimit="10"/><line x1="15.59" y1="11.26" x2="13.96" y2="8.19" fill="none" stroke="#fff" stroke-linecap="round" stroke-miterlimit="10"/><path d="M8.65,14.1l-2.41,0A3,3,0,0,1,3.3,11l0-2.83" fill="none" stroke="#fff" stroke-linecap="round" stroke-miterlimit="10"/><line x1="4.87" y1="11.26" x2="3.33" y2="8.19" fill="none" stroke="#fff" stroke-linecap="round" stroke-miterlimit="10"/><line x1="1.7" y1="11.26" x2="3.33" y2="8.19" fill="none" stroke="#fff" stroke-linecap="round" stroke-miterlimit="10"/><line x1="8.64" y1="20" x2="8.64" y2="8" fill="none" stroke="#fff" stroke-linecap="round" stroke-miterlimit="10"/><line x1="7.12" y1="11.26" x2="8.64" y2="8" fill="none" stroke="#fff" stroke-linecap="round" stroke-miterlimit="10"/><line x1="10.16" y1="11.26" x2="8.64" y2="8" fill="none" stroke="#fff" stroke-linecap="round" stroke-miterlimit="10"/><line x1="5.36" y1="17.17" x2="12.23" y2="17.17" fill="none" stroke="#fff" stroke-linecap="round" stroke-miterlimit="10"/></g></g></svg>