<svg width="19" height="19" viewBox="0 0 19 19" fill="none" xmlns="http://www.w3.org/2000/svg">
<g clip-path="url(#clip0_1494_9027)">
<path d="M13.4583 2.37508C13.6662 2.16715 13.913 2.00221 14.1847 1.88968C14.4564 1.77716 14.7475 1.71924 15.0416 1.71924C15.3356 1.71924 15.6268 1.77716 15.8985 1.88968C16.1701 2.00221 16.417 2.16715 16.6249 2.37508C16.8328 2.583 16.9978 2.82985 17.1103 3.10152C17.2228 3.37318 17.2808 3.66436 17.2808 3.95841C17.2808 4.25246 17.2228 4.54363 17.1103 4.8153C16.9978 5.08697 16.8328 5.33382 16.6249 5.54174L5.93742 16.2292L1.58325 17.4167L2.77075 13.0626L13.4583 2.37508Z" stroke="#667080" stroke-width="2" stroke-linecap="round" stroke-linejoin="round"/>
</g>
<defs>
<clipPath id="clip0_1494_9027">
<rect width="19" height="19" fill="white"/>
</clipPath>
</defs>
</svg>
