<svg width="40" height="40" viewBox="0 0 40 40" fill="none" xmlns="http://www.w3.org/2000/svg">
<path fill-rule="evenodd" clip-rule="evenodd" d="M20 0C8.95333 0 0 8.955 0 20C0 31.045 8.95333 40 20 40C31.045 40 40 31.045 40 20C40 8.955 31.045 0 20 0ZM20.2333 31.6967C13.7867 31.6967 8.56667 26.4633 8.56667 20C8.56667 13.5367 13.7867 8.30333 20.2333 8.30333C23.3833 8.30333 26.0167 9.465 28.0367 11.3517L24.7467 14.6483V14.6417C23.5217 13.4717 21.9683 12.8717 20.2333 12.8717C16.3833 12.8717 13.255 16.1317 13.255 19.9933C13.255 23.8517 16.3833 27.1217 20.2333 27.1217C23.7267 27.1217 26.1033 25.1183 26.5933 22.3683H20.2333V17.8067H31.2083C31.355 18.59 31.4333 19.4067 31.4333 20.2633C31.4333 26.9467 26.9717 31.6967 20.2333 31.6967Z" fill="url(#paint0_linear_1198_12664)"/>
<defs>
<linearGradient id="paint0_linear_1198_12664" x1="10" y1="-8.88705e-07" x2="33.934" y2="28.0648" gradientUnits="userSpaceOnUse">
<stop stop-color="#B07B15"/>
<stop offset="0.458333" stop-color="#FACF5D"/>
<stop offset="0.989583" stop-color="#B48328"/>
</linearGradient>
</defs>
</svg>
