<svg width="40" height="40" viewBox="0 0 40 40" fill="none" xmlns="http://www.w3.org/2000/svg">
<path d="M20 0.799999C9.396 0.799999 0.800003 9.396 0.800003 20C0.800003 30.604 9.396 39.2 20 39.2C30.604 39.2 39.2 30.604 39.2 20C39.2 9.396 30.604 0.799999 20 0.799999ZM27.384 22.462C27.384 22.462 29.082 24.138 29.5 24.916C29.512 24.932 29.518 24.948 29.522 24.956C29.692 25.242 29.732 25.464 29.648 25.63C29.508 25.906 29.028 26.042 28.864 26.054H25.864C25.656 26.054 25.22 26 24.692 25.636C24.286 25.352 23.886 24.886 23.496 24.432C22.914 23.756 22.41 23.172 21.902 23.172C21.8375 23.1719 21.7734 23.182 21.712 23.202C21.328 23.326 20.836 23.874 20.836 25.334C20.836 25.79 20.476 26.052 20.222 26.052H18.848C18.38 26.052 15.942 25.888 13.782 23.61C11.138 20.82 8.758 15.224 8.738 15.172C8.588 14.81 8.898 14.616 9.236 14.616H12.266C12.67 14.616 12.802 14.862 12.894 15.08C13.002 15.334 13.398 16.344 14.048 17.48C15.102 19.332 15.748 20.084 16.266 20.084C16.3631 20.0829 16.4585 20.0581 16.544 20.012C17.22 19.636 17.094 17.226 17.064 16.726C17.064 16.632 17.062 15.648 16.716 15.176C16.468 14.834 16.046 14.704 15.79 14.656C15.8936 14.513 16.0301 14.3971 16.188 14.318C16.652 14.086 17.488 14.052 18.318 14.052H18.78C19.68 14.064 19.912 14.122 20.238 14.204C20.898 14.362 20.912 14.788 20.854 16.246C20.836 16.66 20.818 17.128 20.818 17.68C20.818 17.8 20.812 17.928 20.812 18.064C20.792 18.806 20.768 19.648 21.292 19.994C21.3603 20.0369 21.4393 20.0597 21.52 20.06C21.702 20.06 22.25 20.06 23.734 17.514C24.1917 16.6945 24.5894 15.843 24.924 14.966C24.954 14.914 25.042 14.754 25.146 14.692C25.2228 14.6529 25.3079 14.633 25.394 14.634H28.956C29.344 14.634 29.61 14.692 29.66 14.842C29.748 15.08 29.644 15.806 28.018 18.008L27.292 18.966C25.818 20.898 25.818 20.996 27.384 22.462Z" fill="url(#paint0_linear_1198_12655)"/>
<defs>
<linearGradient id="paint0_linear_1198_12655" x1="20" y1="-8" x2="38.8028" y2="29.8236" gradientUnits="userSpaceOnUse">
<stop stop-color="#B07B15"/>
<stop offset="0.458333" stop-color="#FACF5D"/>
<stop offset="0.989583" stop-color="#B48328"/>
</linearGradient>
</defs>
</svg>
